<?xml version="1.0" encoding="utf-8" standalone="no"?>
<!DOCTYPE svg PUBLIC "-//W3C//DTD SVG 1.1//EN"
  "http://www.w3.org/Graphics/SVG/1.1/DTD/svg11.dtd">
<!-- Created with matplotlib (https://matplotlib.org/) -->
<svg height="309.024687pt" version="1.1" viewBox="0 0 408.312937 309.024687" width="408.312937pt" xmlns="http://www.w3.org/2000/svg" xmlns:xlink="http://www.w3.org/1999/xlink">
 <metadata>
  <rdf:RDF xmlns:cc="http://creativecommons.org/ns#" xmlns:dc="http://purl.org/dc/elements/1.1/" xmlns:rdf="http://www.w3.org/1999/02/22-rdf-syntax-ns#">
   <cc:Work>
    <dc:type rdf:resource="http://purl.org/dc/dcmitype/StillImage"/>
    <dc:date>2020-12-04T11:56:04.207970</dc:date>
    <dc:format>image/svg+xml</dc:format>
    <dc:creator>
     <cc:Agent>
      <dc:title>Matplotlib v3.3.2, https://matplotlib.org/</dc:title>
     </cc:Agent>
    </dc:creator>
   </cc:Work>
  </rdf:RDF>
 </metadata>
 <defs>
  <style type="text/css">*{stroke-linecap:butt;stroke-linejoin:round;}</style>
 </defs>
 <g id="figure_1">
  <g id="patch_1">
   <path d="M 0 309.024687 
L 408.312937 309.024687 
L 408.312937 0 
L 0 0 
z
" style="fill:#ffffff;stroke:#ffffff;stroke-linejoin:miter;"/>
  </g>
  <g id="axes_1">
   <g id="patch_2">
    <path d="M 43.992938 273.312 
L 401.112938 273.312 
L 401.112938 7.2 
L 43.992938 7.2 
z
" style="fill:#ebebeb;"/>
   </g>
   <g id="matplotlib.axis_1">
    <g id="xtick_1">
     <g id="line2d_1">
      <path clip-path="url(#p15be734a0a)" d="M 84.664446 273.312 
L 84.664446 7.2 
" style="fill:none;stroke:#ffffff;"/>
     </g>
     <g id="line2d_2">
      <path d="M 84.664446 273.312 
" style="fill:none;stroke:#333333;stroke-width:1.5;"/>
      <defs>
       <path d="M 0 0 
L 0 2.75 
" id="ma707bcff65" style="stroke:#000000;"/>
      </defs>
      <g>
       <use style="fill:#333333;stroke:#000000;" x="84.664446" xlink:href="#ma707bcff65" y="273.312"/>
      </g>
     </g>
     <g id="text_1">
      <!-- 7 -->
      <g style="fill:#4d4d4d;" transform="translate(81.864946 284.948625)scale(0.088 -0.088)">
       <defs>
        <path d="M 8.203125 72.90625 
L 55.078125 72.90625 
L 55.078125 68.703125 
L 28.609375 0 
L 18.3125 0 
L 43.21875 64.59375 
L 8.203125 64.59375 
z
" id="DejaVuSans-55"/>
       </defs>
       <use xlink:href="#DejaVuSans-55"/>
      </g>
     </g>
    </g>
    <g id="xtick_2">
     <g id="line2d_3">
      <path clip-path="url(#p15be734a0a)" d="M 148.63328 273.312 
L 148.63328 7.2 
" style="fill:none;stroke:#ffffff;"/>
     </g>
     <g id="line2d_4">
      <path d="M 148.63328 273.312 
" style="fill:none;stroke:#333333;stroke-width:1.5;"/>
      <g>
       <use style="fill:#333333;stroke:#000000;" x="148.63328" xlink:href="#ma707bcff65" y="273.312"/>
      </g>
     </g>
     <g id="text_2">
      <!-- 8 -->
      <g style="fill:#4d4d4d;" transform="translate(145.83378 284.948625)scale(0.088 -0.088)">
       <defs>
        <path d="M 31.78125 34.625 
Q 24.75 34.625 20.71875 30.859375 
Q 16.703125 27.09375 16.703125 20.515625 
Q 16.703125 13.921875 20.71875 10.15625 
Q 24.75 6.390625 31.78125 6.390625 
Q 38.8125 6.390625 42.859375 10.171875 
Q 46.921875 13.96875 46.921875 20.515625 
Q 46.921875 27.09375 42.890625 30.859375 
Q 38.875 34.625 31.78125 34.625 
z
M 21.921875 38.8125 
Q 15.578125 40.375 12.03125 44.71875 
Q 8.5 49.078125 8.5 55.328125 
Q 8.5 64.0625 14.71875 69.140625 
Q 20.953125 74.21875 31.78125 74.21875 
Q 42.671875 74.21875 48.875 69.140625 
Q 55.078125 64.0625 55.078125 55.328125 
Q 55.078125 49.078125 51.53125 44.71875 
Q 48 40.375 41.703125 38.8125 
Q 48.828125 37.15625 52.796875 32.3125 
Q 56.78125 27.484375 56.78125 20.515625 
Q 56.78125 9.90625 50.3125 4.234375 
Q 43.84375 -1.421875 31.78125 -1.421875 
Q 19.734375 -1.421875 13.25 4.234375 
Q 6.78125 9.90625 6.78125 20.515625 
Q 6.78125 27.484375 10.78125 32.3125 
Q 14.796875 37.15625 21.921875 38.8125 
z
M 18.3125 54.390625 
Q 18.3125 48.734375 21.84375 45.5625 
Q 25.390625 42.390625 31.78125 42.390625 
Q 38.140625 42.390625 41.71875 45.5625 
Q 45.3125 48.734375 45.3125 54.390625 
Q 45.3125 60.0625 41.71875 63.234375 
Q 38.140625 66.40625 31.78125 66.40625 
Q 25.390625 66.40625 21.84375 63.234375 
Q 18.3125 60.0625 18.3125 54.390625 
z
" id="DejaVuSans-56"/>
       </defs>
       <use xlink:href="#DejaVuSans-56"/>
      </g>
     </g>
    </g>
    <g id="xtick_3">
     <g id="line2d_5">
      <path clip-path="url(#p15be734a0a)" d="M 212.602114 273.312 
L 212.602114 7.2 
" style="fill:none;stroke:#ffffff;"/>
     </g>
     <g id="line2d_6">
      <path d="M 212.602114 273.312 
" style="fill:none;stroke:#333333;stroke-width:1.5;"/>
      <g>
       <use style="fill:#333333;stroke:#000000;" x="212.602114" xlink:href="#ma707bcff65" y="273.312"/>
      </g>
     </g>
     <g id="text_3">
      <!-- 9 -->
      <g style="fill:#4d4d4d;" transform="translate(209.802614 284.948625)scale(0.088 -0.088)">
       <defs>
        <path d="M 10.984375 1.515625 
L 10.984375 10.5 
Q 14.703125 8.734375 18.5 7.8125 
Q 22.3125 6.890625 25.984375 6.890625 
Q 35.75 6.890625 40.890625 13.453125 
Q 46.046875 20.015625 46.78125 33.40625 
Q 43.953125 29.203125 39.59375 26.953125 
Q 35.25 24.703125 29.984375 24.703125 
Q 19.046875 24.703125 12.671875 31.3125 
Q 6.296875 37.9375 6.296875 49.421875 
Q 6.296875 60.640625 12.9375 67.421875 
Q 19.578125 74.21875 30.609375 74.21875 
Q 43.265625 74.21875 49.921875 64.515625 
Q 56.59375 54.828125 56.59375 36.375 
Q 56.59375 19.140625 48.40625 8.859375 
Q 40.234375 -1.421875 26.421875 -1.421875 
Q 22.703125 -1.421875 18.890625 -0.6875 
Q 15.09375 0.046875 10.984375 1.515625 
z
M 30.609375 32.421875 
Q 37.25 32.421875 41.125 36.953125 
Q 45.015625 41.5 45.015625 49.421875 
Q 45.015625 57.28125 41.125 61.84375 
Q 37.25 66.40625 30.609375 66.40625 
Q 23.96875 66.40625 20.09375 61.84375 
Q 16.21875 57.28125 16.21875 49.421875 
Q 16.21875 41.5 20.09375 36.953125 
Q 23.96875 32.421875 30.609375 32.421875 
z
" id="DejaVuSans-57"/>
       </defs>
       <use xlink:href="#DejaVuSans-57"/>
      </g>
     </g>
    </g>
    <g id="xtick_4">
     <g id="line2d_7">
      <path clip-path="url(#p15be734a0a)" d="M 276.570948 273.312 
L 276.570948 7.2 
" style="fill:none;stroke:#ffffff;"/>
     </g>
     <g id="line2d_8">
      <path d="M 276.570948 273.312 
" style="fill:none;stroke:#333333;stroke-width:1.5;"/>
      <g>
       <use style="fill:#333333;stroke:#000000;" x="276.570948" xlink:href="#ma707bcff65" y="273.312"/>
      </g>
     </g>
     <g id="text_4">
      <!-- 10 -->
      <g style="fill:#4d4d4d;" transform="translate(270.971948 284.948625)scale(0.088 -0.088)">
       <defs>
        <path d="M 12.40625 8.296875 
L 28.515625 8.296875 
L 28.515625 63.921875 
L 10.984375 60.40625 
L 10.984375 69.390625 
L 28.421875 72.90625 
L 38.28125 72.90625 
L 38.28125 8.296875 
L 54.390625 8.296875 
L 54.390625 0 
L 12.40625 0 
z
" id="DejaVuSans-49"/>
        <path d="M 31.78125 66.40625 
Q 24.171875 66.40625 20.328125 58.90625 
Q 16.5 51.421875 16.5 36.375 
Q 16.5 21.390625 20.328125 13.890625 
Q 24.171875 6.390625 31.78125 6.390625 
Q 39.453125 6.390625 43.28125 13.890625 
Q 47.125 21.390625 47.125 36.375 
Q 47.125 51.421875 43.28125 58.90625 
Q 39.453125 66.40625 31.78125 66.40625 
z
M 31.78125 74.21875 
Q 44.046875 74.21875 50.515625 64.515625 
Q 56.984375 54.828125 56.984375 36.375 
Q 56.984375 17.96875 50.515625 8.265625 
Q 44.046875 -1.421875 31.78125 -1.421875 
Q 19.53125 -1.421875 13.0625 8.265625 
Q 6.59375 17.96875 6.59375 36.375 
Q 6.59375 54.828125 13.0625 64.515625 
Q 19.53125 74.21875 31.78125 74.21875 
z
" id="DejaVuSans-48"/>
       </defs>
       <use xlink:href="#DejaVuSans-49"/>
       <use x="63.623047" xlink:href="#DejaVuSans-48"/>
      </g>
     </g>
    </g>
    <g id="xtick_5">
     <g id="line2d_9">
      <path clip-path="url(#p15be734a0a)" d="M 340.539782 273.312 
L 340.539782 7.2 
" style="fill:none;stroke:#ffffff;"/>
     </g>
     <g id="line2d_10">
      <path d="M 340.539782 273.312 
" style="fill:none;stroke:#333333;stroke-width:1.5;"/>
      <g>
       <use style="fill:#333333;stroke:#000000;" x="340.539782" xlink:href="#ma707bcff65" y="273.312"/>
      </g>
     </g>
     <g id="text_5">
      <!-- 11 -->
      <g style="fill:#4d4d4d;" transform="translate(334.940782 284.948625)scale(0.088 -0.088)">
       <use xlink:href="#DejaVuSans-49"/>
       <use x="63.623047" xlink:href="#DejaVuSans-49"/>
      </g>
     </g>
    </g>
    <g id="xtick_6">
     <g id="line2d_11">
      <path clip-path="url(#p15be734a0a)" d="M 52.680029 273.312 
L 52.680029 7.2 
" style="fill:none;stroke:#ffffff;stroke-width:0.5;"/>
     </g>
    </g>
    <g id="xtick_7">
     <g id="line2d_12">
      <path clip-path="url(#p15be734a0a)" d="M 116.648863 273.312 
L 116.648863 7.2 
" style="fill:none;stroke:#ffffff;stroke-width:0.5;"/>
     </g>
    </g>
    <g id="xtick_8">
     <g id="line2d_13">
      <path clip-path="url(#p15be734a0a)" d="M 180.617697 273.312 
L 180.617697 7.2 
" style="fill:none;stroke:#ffffff;stroke-width:0.5;"/>
     </g>
    </g>
    <g id="xtick_9">
     <g id="line2d_14">
      <path clip-path="url(#p15be734a0a)" d="M 244.586531 273.312 
L 244.586531 7.2 
" style="fill:none;stroke:#ffffff;stroke-width:0.5;"/>
     </g>
    </g>
    <g id="xtick_10">
     <g id="line2d_15">
      <path clip-path="url(#p15be734a0a)" d="M 308.555365 273.312 
L 308.555365 7.2 
" style="fill:none;stroke:#ffffff;stroke-width:0.5;"/>
     </g>
    </g>
    <g id="xtick_11">
     <g id="line2d_16">
      <path clip-path="url(#p15be734a0a)" d="M 372.524199 273.312 
L 372.524199 7.2 
" style="fill:none;stroke:#ffffff;stroke-width:0.5;"/>
     </g>
    </g>
    <g id="text_6">
     <!-- Log GDP per Capita (PPP) in 2015 -->
     <g transform="translate(124.520984 299.537031)scale(0.11 -0.11)">
      <defs>
       <path d="M 9.8125 72.90625 
L 19.671875 72.90625 
L 19.671875 8.296875 
L 55.171875 8.296875 
L 55.171875 0 
L 9.8125 0 
z
" id="DejaVuSans-76"/>
       <path d="M 30.609375 48.390625 
Q 23.390625 48.390625 19.1875 42.75 
Q 14.984375 37.109375 14.984375 27.296875 
Q 14.984375 17.484375 19.15625 11.84375 
Q 23.34375 6.203125 30.609375 6.203125 
Q 37.796875 6.203125 41.984375 11.859375 
Q 46.1875 17.53125 46.1875 27.296875 
Q 46.1875 37.015625 41.984375 42.703125 
Q 37.796875 48.390625 30.609375 48.390625 
z
M 30.609375 56 
Q 42.328125 56 49.015625 48.375 
Q 55.71875 40.765625 55.71875 27.296875 
Q 55.71875 13.875 49.015625 6.21875 
Q 42.328125 -1.421875 30.609375 -1.421875 
Q 18.84375 -1.421875 12.171875 6.21875 
Q 5.515625 13.875 5.515625 27.296875 
Q 5.515625 40.765625 12.171875 48.375 
Q 18.84375 56 30.609375 56 
z
" id="DejaVuSans-111"/>
       <path d="M 45.40625 27.984375 
Q 45.40625 37.75 41.375 43.109375 
Q 37.359375 48.484375 30.078125 48.484375 
Q 22.859375 48.484375 18.828125 43.109375 
Q 14.796875 37.75 14.796875 27.984375 
Q 14.796875 18.265625 18.828125 12.890625 
Q 22.859375 7.515625 30.078125 7.515625 
Q 37.359375 7.515625 41.375 12.890625 
Q 45.40625 18.265625 45.40625 27.984375 
z
M 54.390625 6.78125 
Q 54.390625 -7.171875 48.1875 -13.984375 
Q 42 -20.796875 29.203125 -20.796875 
Q 24.46875 -20.796875 20.265625 -20.09375 
Q 16.0625 -19.390625 12.109375 -17.921875 
L 12.109375 -9.1875 
Q 16.0625 -11.328125 19.921875 -12.34375 
Q 23.78125 -13.375 27.78125 -13.375 
Q 36.625 -13.375 41.015625 -8.765625 
Q 45.40625 -4.15625 45.40625 5.171875 
L 45.40625 9.625 
Q 42.625 4.78125 38.28125 2.390625 
Q 33.9375 0 27.875 0 
Q 17.828125 0 11.671875 7.65625 
Q 5.515625 15.328125 5.515625 27.984375 
Q 5.515625 40.671875 11.671875 48.328125 
Q 17.828125 56 27.875 56 
Q 33.9375 56 38.28125 53.609375 
Q 42.625 51.21875 45.40625 46.390625 
L 45.40625 54.6875 
L 54.390625 54.6875 
z
" id="DejaVuSans-103"/>
       <path id="DejaVuSans-32"/>
       <path d="M 59.515625 10.40625 
L 59.515625 29.984375 
L 43.40625 29.984375 
L 43.40625 38.09375 
L 69.28125 38.09375 
L 69.28125 6.78125 
Q 63.578125 2.734375 56.6875 0.65625 
Q 49.8125 -1.421875 42 -1.421875 
Q 24.90625 -1.421875 15.25 8.5625 
Q 5.609375 18.5625 5.609375 36.375 
Q 5.609375 54.25 15.25 64.234375 
Q 24.90625 74.21875 42 74.21875 
Q 49.125 74.21875 55.546875 72.453125 
Q 61.96875 70.703125 67.390625 67.28125 
L 67.390625 56.78125 
Q 61.921875 61.421875 55.765625 63.765625 
Q 49.609375 66.109375 42.828125 66.109375 
Q 29.4375 66.109375 22.71875 58.640625 
Q 16.015625 51.171875 16.015625 36.375 
Q 16.015625 21.625 22.71875 14.15625 
Q 29.4375 6.6875 42.828125 6.6875 
Q 48.046875 6.6875 52.140625 7.59375 
Q 56.25 8.5 59.515625 10.40625 
z
" id="DejaVuSans-71"/>
       <path d="M 19.671875 64.796875 
L 19.671875 8.109375 
L 31.59375 8.109375 
Q 46.6875 8.109375 53.6875 14.9375 
Q 60.6875 21.78125 60.6875 36.53125 
Q 60.6875 51.171875 53.6875 57.984375 
Q 46.6875 64.796875 31.59375 64.796875 
z
M 9.8125 72.90625 
L 30.078125 72.90625 
Q 51.265625 72.90625 61.171875 64.09375 
Q 71.09375 55.28125 71.09375 36.53125 
Q 71.09375 17.671875 61.125 8.828125 
Q 51.171875 0 30.078125 0 
L 9.8125 0 
z
" id="DejaVuSans-68"/>
       <path d="M 19.671875 64.796875 
L 19.671875 37.40625 
L 32.078125 37.40625 
Q 38.96875 37.40625 42.71875 40.96875 
Q 46.484375 44.53125 46.484375 51.125 
Q 46.484375 57.671875 42.71875 61.234375 
Q 38.96875 64.796875 32.078125 64.796875 
z
M 9.8125 72.90625 
L 32.078125 72.90625 
Q 44.34375 72.90625 50.609375 67.359375 
Q 56.890625 61.8125 56.890625 51.125 
Q 56.890625 40.328125 50.609375 34.8125 
Q 44.34375 29.296875 32.078125 29.296875 
L 19.671875 29.296875 
L 19.671875 0 
L 9.8125 0 
z
" id="DejaVuSans-80"/>
       <path d="M 18.109375 8.203125 
L 18.109375 -20.796875 
L 9.078125 -20.796875 
L 9.078125 54.6875 
L 18.109375 54.6875 
L 18.109375 46.390625 
Q 20.953125 51.265625 25.265625 53.625 
Q 29.59375 56 35.59375 56 
Q 45.5625 56 51.78125 48.09375 
Q 58.015625 40.1875 58.015625 27.296875 
Q 58.015625 14.40625 51.78125 6.484375 
Q 45.5625 -1.421875 35.59375 -1.421875 
Q 29.59375 -1.421875 25.265625 0.953125 
Q 20.953125 3.328125 18.109375 8.203125 
z
M 48.6875 27.296875 
Q 48.6875 37.203125 44.609375 42.84375 
Q 40.53125 48.484375 33.40625 48.484375 
Q 26.265625 48.484375 22.1875 42.84375 
Q 18.109375 37.203125 18.109375 27.296875 
Q 18.109375 17.390625 22.1875 11.75 
Q 26.265625 6.109375 33.40625 6.109375 
Q 40.53125 6.109375 44.609375 11.75 
Q 48.6875 17.390625 48.6875 27.296875 
z
" id="DejaVuSans-112"/>
       <path d="M 56.203125 29.59375 
L 56.203125 25.203125 
L 14.890625 25.203125 
Q 15.484375 15.921875 20.484375 11.0625 
Q 25.484375 6.203125 34.421875 6.203125 
Q 39.59375 6.203125 44.453125 7.46875 
Q 49.3125 8.734375 54.109375 11.28125 
L 54.109375 2.78125 
Q 49.265625 0.734375 44.1875 -0.34375 
Q 39.109375 -1.421875 33.890625 -1.421875 
Q 20.796875 -1.421875 13.15625 6.1875 
Q 5.515625 13.8125 5.515625 26.8125 
Q 5.515625 40.234375 12.765625 48.109375 
Q 20.015625 56 32.328125 56 
Q 43.359375 56 49.78125 48.890625 
Q 56.203125 41.796875 56.203125 29.59375 
z
M 47.21875 32.234375 
Q 47.125 39.59375 43.09375 43.984375 
Q 39.0625 48.390625 32.421875 48.390625 
Q 24.90625 48.390625 20.390625 44.140625 
Q 15.875 39.890625 15.1875 32.171875 
z
" id="DejaVuSans-101"/>
       <path d="M 41.109375 46.296875 
Q 39.59375 47.171875 37.8125 47.578125 
Q 36.03125 48 33.890625 48 
Q 26.265625 48 22.1875 43.046875 
Q 18.109375 38.09375 18.109375 28.8125 
L 18.109375 0 
L 9.078125 0 
L 9.078125 54.6875 
L 18.109375 54.6875 
L 18.109375 46.1875 
Q 20.953125 51.171875 25.484375 53.578125 
Q 30.03125 56 36.53125 56 
Q 37.453125 56 38.578125 55.875 
Q 39.703125 55.765625 41.0625 55.515625 
z
" id="DejaVuSans-114"/>
       <path d="M 64.40625 67.28125 
L 64.40625 56.890625 
Q 59.421875 61.53125 53.78125 63.8125 
Q 48.140625 66.109375 41.796875 66.109375 
Q 29.296875 66.109375 22.65625 58.46875 
Q 16.015625 50.828125 16.015625 36.375 
Q 16.015625 21.96875 22.65625 14.328125 
Q 29.296875 6.6875 41.796875 6.6875 
Q 48.140625 6.6875 53.78125 8.984375 
Q 59.421875 11.28125 64.40625 15.921875 
L 64.40625 5.609375 
Q 59.234375 2.09375 53.4375 0.328125 
Q 47.65625 -1.421875 41.21875 -1.421875 
Q 24.65625 -1.421875 15.125 8.703125 
Q 5.609375 18.84375 5.609375 36.375 
Q 5.609375 53.953125 15.125 64.078125 
Q 24.65625 74.21875 41.21875 74.21875 
Q 47.75 74.21875 53.53125 72.484375 
Q 59.328125 70.75 64.40625 67.28125 
z
" id="DejaVuSans-67"/>
       <path d="M 34.28125 27.484375 
Q 23.390625 27.484375 19.1875 25 
Q 14.984375 22.515625 14.984375 16.5 
Q 14.984375 11.71875 18.140625 8.90625 
Q 21.296875 6.109375 26.703125 6.109375 
Q 34.1875 6.109375 38.703125 11.40625 
Q 43.21875 16.703125 43.21875 25.484375 
L 43.21875 27.484375 
z
M 52.203125 31.203125 
L 52.203125 0 
L 43.21875 0 
L 43.21875 8.296875 
Q 40.140625 3.328125 35.546875 0.953125 
Q 30.953125 -1.421875 24.3125 -1.421875 
Q 15.921875 -1.421875 10.953125 3.296875 
Q 6 8.015625 6 15.921875 
Q 6 25.140625 12.171875 29.828125 
Q 18.359375 34.515625 30.609375 34.515625 
L 43.21875 34.515625 
L 43.21875 35.40625 
Q 43.21875 41.609375 39.140625 45 
Q 35.0625 48.390625 27.6875 48.390625 
Q 23 48.390625 18.546875 47.265625 
Q 14.109375 46.140625 10.015625 43.890625 
L 10.015625 52.203125 
Q 14.9375 54.109375 19.578125 55.046875 
Q 24.21875 56 28.609375 56 
Q 40.484375 56 46.34375 49.84375 
Q 52.203125 43.703125 52.203125 31.203125 
z
" id="DejaVuSans-97"/>
       <path d="M 9.421875 54.6875 
L 18.40625 54.6875 
L 18.40625 0 
L 9.421875 0 
z
M 9.421875 75.984375 
L 18.40625 75.984375 
L 18.40625 64.59375 
L 9.421875 64.59375 
z
" id="DejaVuSans-105"/>
       <path d="M 18.3125 70.21875 
L 18.3125 54.6875 
L 36.8125 54.6875 
L 36.8125 47.703125 
L 18.3125 47.703125 
L 18.3125 18.015625 
Q 18.3125 11.328125 20.140625 9.421875 
Q 21.96875 7.515625 27.59375 7.515625 
L 36.8125 7.515625 
L 36.8125 0 
L 27.59375 0 
Q 17.1875 0 13.234375 3.875 
Q 9.28125 7.765625 9.28125 18.015625 
L 9.28125 47.703125 
L 2.6875 47.703125 
L 2.6875 54.6875 
L 9.28125 54.6875 
L 9.28125 70.21875 
z
" id="DejaVuSans-116"/>
       <path d="M 31 75.875 
Q 24.46875 64.65625 21.28125 53.65625 
Q 18.109375 42.671875 18.109375 31.390625 
Q 18.109375 20.125 21.3125 9.0625 
Q 24.515625 -2 31 -13.1875 
L 23.1875 -13.1875 
Q 15.875 -1.703125 12.234375 9.375 
Q 8.59375 20.453125 8.59375 31.390625 
Q 8.59375 42.28125 12.203125 53.3125 
Q 15.828125 64.359375 23.1875 75.875 
z
" id="DejaVuSans-40"/>
       <path d="M 8.015625 75.875 
L 15.828125 75.875 
Q 23.140625 64.359375 26.78125 53.3125 
Q 30.421875 42.28125 30.421875 31.390625 
Q 30.421875 20.453125 26.78125 9.375 
Q 23.140625 -1.703125 15.828125 -13.1875 
L 8.015625 -13.1875 
Q 14.5 -2 17.703125 9.0625 
Q 20.90625 20.125 20.90625 31.390625 
Q 20.90625 42.671875 17.703125 53.65625 
Q 14.5 64.65625 8.015625 75.875 
z
" id="DejaVuSans-41"/>
       <path d="M 54.890625 33.015625 
L 54.890625 0 
L 45.90625 0 
L 45.90625 32.71875 
Q 45.90625 40.484375 42.875 44.328125 
Q 39.84375 48.1875 33.796875 48.1875 
Q 26.515625 48.1875 22.3125 43.546875 
Q 18.109375 38.921875 18.109375 30.90625 
L 18.109375 0 
L 9.078125 0 
L 9.078125 54.6875 
L 18.109375 54.6875 
L 18.109375 46.1875 
Q 21.34375 51.125 25.703125 53.5625 
Q 30.078125 56 35.796875 56 
Q 45.21875 56 50.046875 50.171875 
Q 54.890625 44.34375 54.890625 33.015625 
z
" id="DejaVuSans-110"/>
       <path d="M 19.1875 8.296875 
L 53.609375 8.296875 
L 53.609375 0 
L 7.328125 0 
L 7.328125 8.296875 
Q 12.9375 14.109375 22.625 23.890625 
Q 32.328125 33.6875 34.8125 36.53125 
Q 39.546875 41.84375 41.421875 45.53125 
Q 43.3125 49.21875 43.3125 52.78125 
Q 43.3125 58.59375 39.234375 62.25 
Q 35.15625 65.921875 28.609375 65.921875 
Q 23.96875 65.921875 18.8125 64.3125 
Q 13.671875 62.703125 7.8125 59.421875 
L 7.8125 69.390625 
Q 13.765625 71.78125 18.9375 73 
Q 24.125 74.21875 28.421875 74.21875 
Q 39.75 74.21875 46.484375 68.546875 
Q 53.21875 62.890625 53.21875 53.421875 
Q 53.21875 48.921875 51.53125 44.890625 
Q 49.859375 40.875 45.40625 35.40625 
Q 44.1875 33.984375 37.640625 27.21875 
Q 31.109375 20.453125 19.1875 8.296875 
z
" id="DejaVuSans-50"/>
       <path d="M 10.796875 72.90625 
L 49.515625 72.90625 
L 49.515625 64.59375 
L 19.828125 64.59375 
L 19.828125 46.734375 
Q 21.96875 47.46875 24.109375 47.828125 
Q 26.265625 48.1875 28.421875 48.1875 
Q 40.625 48.1875 47.75 41.5 
Q 54.890625 34.8125 54.890625 23.390625 
Q 54.890625 11.625 47.5625 5.09375 
Q 40.234375 -1.421875 26.90625 -1.421875 
Q 22.3125 -1.421875 17.546875 -0.640625 
Q 12.796875 0.140625 7.71875 1.703125 
L 7.71875 11.625 
Q 12.109375 9.234375 16.796875 8.0625 
Q 21.484375 6.890625 26.703125 6.890625 
Q 35.15625 6.890625 40.078125 11.328125 
Q 45.015625 15.765625 45.015625 23.390625 
Q 45.015625 31 40.078125 35.4375 
Q 35.15625 39.890625 26.703125 39.890625 
Q 22.75 39.890625 18.8125 39.015625 
Q 14.890625 38.140625 10.796875 36.28125 
z
" id="DejaVuSans-53"/>
      </defs>
      <use xlink:href="#DejaVuSans-76"/>
      <use x="53.962891" xlink:href="#DejaVuSans-111"/>
      <use x="115.144531" xlink:href="#DejaVuSans-103"/>
      <use x="178.621094" xlink:href="#DejaVuSans-32"/>
      <use x="210.408203" xlink:href="#DejaVuSans-71"/>
      <use x="287.898438" xlink:href="#DejaVuSans-68"/>
      <use x="364.900391" xlink:href="#DejaVuSans-80"/>
      <use x="425.203125" xlink:href="#DejaVuSans-32"/>
      <use x="456.990234" xlink:href="#DejaVuSans-112"/>
      <use x="520.466797" xlink:href="#DejaVuSans-101"/>
      <use x="581.990234" xlink:href="#DejaVuSans-114"/>
      <use x="623.103516" xlink:href="#DejaVuSans-32"/>
      <use x="654.890625" xlink:href="#DejaVuSans-67"/>
      <use x="724.714844" xlink:href="#DejaVuSans-97"/>
      <use x="785.994141" xlink:href="#DejaVuSans-112"/>
      <use x="849.470703" xlink:href="#DejaVuSans-105"/>
      <use x="877.253906" xlink:href="#DejaVuSans-116"/>
      <use x="916.462891" xlink:href="#DejaVuSans-97"/>
      <use x="977.742188" xlink:href="#DejaVuSans-32"/>
      <use x="1009.529297" xlink:href="#DejaVuSans-40"/>
      <use x="1048.542969" xlink:href="#DejaVuSans-80"/>
      <use x="1108.845703" xlink:href="#DejaVuSans-80"/>
      <use x="1169.148438" xlink:href="#DejaVuSans-80"/>
      <use x="1229.451172" xlink:href="#DejaVuSans-41"/>
      <use x="1268.464844" xlink:href="#DejaVuSans-32"/>
      <use x="1300.251953" xlink:href="#DejaVuSans-105"/>
      <use x="1328.035156" xlink:href="#DejaVuSans-110"/>
      <use x="1391.414062" xlink:href="#DejaVuSans-32"/>
      <use x="1423.201172" xlink:href="#DejaVuSans-50"/>
      <use x="1486.824219" xlink:href="#DejaVuSans-48"/>
      <use x="1550.447266" xlink:href="#DejaVuSans-49"/>
      <use x="1614.070312" xlink:href="#DejaVuSans-53"/>
     </g>
    </g>
   </g>
   <g id="matplotlib.axis_2">
    <g id="ytick_1">
     <g id="line2d_17">
      <path clip-path="url(#p15be734a0a)" d="M 43.992938 266.592 
L 401.112938 266.592 
" style="fill:none;stroke:#ffffff;"/>
     </g>
     <g id="line2d_18">
      <path d="M 43.992938 266.592 
" style="fill:none;stroke:#333333;stroke-width:1.5;"/>
      <defs>
       <path d="M 0 0 
L -2.75 0 
" id="m5a1cc0a695" style="stroke:#000000;"/>
      </defs>
      <g>
       <use style="fill:#333333;stroke:#000000;" x="43.992938" xlink:href="#m5a1cc0a695" y="266.592"/>
      </g>
     </g>
     <g id="text_7">
      <!-- 300 -->
      <g style="fill:#4d4d4d;" transform="translate(22.245938 269.02025)scale(0.088 -0.088)">
       <defs>
        <path d="M 40.578125 39.3125 
Q 47.65625 37.796875 51.625 33 
Q 55.609375 28.21875 55.609375 21.1875 
Q 55.609375 10.40625 48.1875 4.484375 
Q 40.765625 -1.421875 27.09375 -1.421875 
Q 22.515625 -1.421875 17.65625 -0.515625 
Q 12.796875 0.390625 7.625 2.203125 
L 7.625 11.71875 
Q 11.71875 9.328125 16.59375 8.109375 
Q 21.484375 6.890625 26.8125 6.890625 
Q 36.078125 6.890625 40.9375 10.546875 
Q 45.796875 14.203125 45.796875 21.1875 
Q 45.796875 27.640625 41.28125 31.265625 
Q 36.765625 34.90625 28.71875 34.90625 
L 20.21875 34.90625 
L 20.21875 43.015625 
L 29.109375 43.015625 
Q 36.375 43.015625 40.234375 45.921875 
Q 44.09375 48.828125 44.09375 54.296875 
Q 44.09375 59.90625 40.109375 62.90625 
Q 36.140625 65.921875 28.71875 65.921875 
Q 24.65625 65.921875 20.015625 65.03125 
Q 15.375 64.15625 9.8125 62.3125 
L 9.8125 71.09375 
Q 15.4375 72.65625 20.34375 73.4375 
Q 25.25 74.21875 29.59375 74.21875 
Q 40.828125 74.21875 47.359375 69.109375 
Q 53.90625 64.015625 53.90625 55.328125 
Q 53.90625 49.265625 50.4375 45.09375 
Q 46.96875 40.921875 40.578125 39.3125 
z
" id="DejaVuSans-51"/>
       </defs>
       <use xlink:href="#DejaVuSans-51"/>
       <use x="63.623047" xlink:href="#DejaVuSans-48"/>
       <use x="127.246094" xlink:href="#DejaVuSans-48"/>
      </g>
     </g>
    </g>
    <g id="ytick_2">
     <g id="line2d_19">
      <path clip-path="url(#p15be734a0a)" d="M 43.992938 176.992 
L 401.112938 176.992 
" style="fill:none;stroke:#ffffff;"/>
     </g>
     <g id="line2d_20">
      <path d="M 43.992938 176.992 
" style="fill:none;stroke:#333333;stroke-width:1.5;"/>
      <g>
       <use style="fill:#333333;stroke:#000000;" x="43.992938" xlink:href="#m5a1cc0a695" y="176.992"/>
      </g>
     </g>
     <g id="text_8">
      <!-- 400 -->
      <g style="fill:#4d4d4d;" transform="translate(22.245938 179.42025)scale(0.088 -0.088)">
       <defs>
        <path d="M 37.796875 64.3125 
L 12.890625 25.390625 
L 37.796875 25.390625 
z
M 35.203125 72.90625 
L 47.609375 72.90625 
L 47.609375 25.390625 
L 58.015625 25.390625 
L 58.015625 17.1875 
L 47.609375 17.1875 
L 47.609375 0 
L 37.796875 0 
L 37.796875 17.1875 
L 4.890625 17.1875 
L 4.890625 26.703125 
z
" id="DejaVuSans-52"/>
       </defs>
       <use xlink:href="#DejaVuSans-52"/>
       <use x="63.623047" xlink:href="#DejaVuSans-48"/>
       <use x="127.246094" xlink:href="#DejaVuSans-48"/>
      </g>
     </g>
    </g>
    <g id="ytick_3">
     <g id="line2d_21">
      <path clip-path="url(#p15be734a0a)" d="M 43.992938 87.392 
L 401.112938 87.392 
" style="fill:none;stroke:#ffffff;"/>
     </g>
     <g id="line2d_22">
      <path d="M 43.992938 87.392 
" style="fill:none;stroke:#333333;stroke-width:1.5;"/>
      <g>
       <use style="fill:#333333;stroke:#000000;" x="43.992938" xlink:href="#m5a1cc0a695" y="87.392"/>
      </g>
     </g>
     <g id="text_9">
      <!-- 500 -->
      <g style="fill:#4d4d4d;" transform="translate(22.245938 89.82025)scale(0.088 -0.088)">
       <use xlink:href="#DejaVuSans-53"/>
       <use x="63.623047" xlink:href="#DejaVuSans-48"/>
       <use x="127.246094" xlink:href="#DejaVuSans-48"/>
      </g>
     </g>
    </g>
    <g id="ytick_4">
     <g id="line2d_23">
      <path clip-path="url(#p15be734a0a)" d="M 43.992938 221.792 
L 401.112938 221.792 
" style="fill:none;stroke:#ffffff;stroke-width:0.5;"/>
     </g>
    </g>
    <g id="ytick_5">
     <g id="line2d_24">
      <path clip-path="url(#p15be734a0a)" d="M 43.992938 132.192 
L 401.112938 132.192 
" style="fill:none;stroke:#ffffff;stroke-width:0.5;"/>
     </g>
    </g>
    <g id="ytick_6">
     <g id="line2d_25">
      <path clip-path="url(#p15be734a0a)" d="M 43.992938 42.592 
L 401.112938 42.592 
" style="fill:none;stroke:#ffffff;stroke-width:0.5;"/>
     </g>
    </g>
    <g id="text_10">
     <!-- PIRLS -->
     <g transform="translate(15.558281 153.844641)rotate(-90)scale(0.11 -0.11)">
      <defs>
       <path d="M 9.8125 72.90625 
L 19.671875 72.90625 
L 19.671875 0 
L 9.8125 0 
z
" id="DejaVuSans-73"/>
       <path d="M 44.390625 34.1875 
Q 47.5625 33.109375 50.5625 29.59375 
Q 53.5625 26.078125 56.59375 19.921875 
L 66.609375 0 
L 56 0 
L 46.6875 18.703125 
Q 43.0625 26.03125 39.671875 28.421875 
Q 36.28125 30.8125 30.421875 30.8125 
L 19.671875 30.8125 
L 19.671875 0 
L 9.8125 0 
L 9.8125 72.90625 
L 32.078125 72.90625 
Q 44.578125 72.90625 50.734375 67.671875 
Q 56.890625 62.453125 56.890625 51.90625 
Q 56.890625 45.015625 53.6875 40.46875 
Q 50.484375 35.9375 44.390625 34.1875 
z
M 19.671875 64.796875 
L 19.671875 38.921875 
L 32.078125 38.921875 
Q 39.203125 38.921875 42.84375 42.21875 
Q 46.484375 45.515625 46.484375 51.90625 
Q 46.484375 58.296875 42.84375 61.546875 
Q 39.203125 64.796875 32.078125 64.796875 
z
" id="DejaVuSans-82"/>
       <path d="M 53.515625 70.515625 
L 53.515625 60.890625 
Q 47.90625 63.578125 42.921875 64.890625 
Q 37.9375 66.21875 33.296875 66.21875 
Q 25.25 66.21875 20.875 63.09375 
Q 16.5 59.96875 16.5 54.203125 
Q 16.5 49.359375 19.40625 46.890625 
Q 22.3125 44.4375 30.421875 42.921875 
L 36.375 41.703125 
Q 47.40625 39.59375 52.65625 34.296875 
Q 57.90625 29 57.90625 20.125 
Q 57.90625 9.515625 50.796875 4.046875 
Q 43.703125 -1.421875 29.984375 -1.421875 
Q 24.8125 -1.421875 18.96875 -0.25 
Q 13.140625 0.921875 6.890625 3.21875 
L 6.890625 13.375 
Q 12.890625 10.015625 18.65625 8.296875 
Q 24.421875 6.59375 29.984375 6.59375 
Q 38.421875 6.59375 43.015625 9.90625 
Q 47.609375 13.234375 47.609375 19.390625 
Q 47.609375 24.75 44.3125 27.78125 
Q 41.015625 30.8125 33.5 32.328125 
L 27.484375 33.5 
Q 16.453125 35.6875 11.515625 40.375 
Q 6.59375 45.0625 6.59375 53.421875 
Q 6.59375 63.09375 13.40625 68.65625 
Q 20.21875 74.21875 32.171875 74.21875 
Q 37.3125 74.21875 42.625 73.28125 
Q 47.953125 72.359375 53.515625 70.515625 
z
" id="DejaVuSans-83"/>
      </defs>
      <use xlink:href="#DejaVuSans-80"/>
      <use x="60.302734" xlink:href="#DejaVuSans-73"/>
      <use x="89.794922" xlink:href="#DejaVuSans-82"/>
      <use x="159.277344" xlink:href="#DejaVuSans-76"/>
      <use x="214.990234" xlink:href="#DejaVuSans-83"/>
     </g>
    </g>
   </g>
   <g id="PathCollection_1">
    <path clip-path="url(#p15be734a0a)" d="M 346.747116 142.924454 
C 347.217176 142.924454 347.668047 142.737697 348.00043 142.405314 
C 348.332813 142.072931 348.51957 141.62206 348.51957 141.152 
C 348.51957 140.68194 348.332813 140.231069 348.00043 139.898686 
C 347.668047 139.566303 347.217176 139.379546 346.747116 139.379546 
C 346.277056 139.379546 345.826185 139.566303 345.493802 139.898686 
C 345.161419 140.231069 344.974662 140.68194 344.974662 141.152 
C 344.974662 141.62206 345.161419 142.072931 345.493802 142.405314 
C 345.826185 142.737697 346.277056 142.924454 346.747116 142.924454 
z
" style="stroke:#000000;stroke-width:0.886227;"/>
    <path clip-path="url(#p15be734a0a)" d="M 267.456127 150.59104 
C 267.926187 150.59104 268.377058 150.404283 268.709441 150.0719 
C 269.041824 149.739517 269.228581 149.288646 269.228581 148.818586 
C 269.228581 148.348526 269.041824 147.897655 268.709441 147.565272 
C 268.377058 147.232889 267.926187 147.046132 267.456127 147.046132 
C 266.986067 147.046132 266.535196 147.232889 266.202813 147.565272 
C 265.87043 147.897655 265.683673 148.348526 265.683673 148.818586 
C 265.683673 149.288646 265.87043 149.739517 266.202813 150.0719 
C 266.535196 150.404283 266.986067 150.59104 267.456127 150.59104 
z
" style="stroke:#000000;stroke-width:0.886227;"/>
    <path clip-path="url(#p15be734a0a)" d="M 320.424753 58.700454 
C 320.894814 58.700454 321.345685 58.513697 321.678068 58.181314 
C 322.01045 57.848931 322.197207 57.39806 322.197207 56.928 
C 322.197207 56.45794 322.01045 56.007069 321.678068 55.674686 
C 321.345685 55.342303 320.894814 55.155546 320.424753 55.155546 
C 319.954693 55.155546 319.503822 55.342303 319.171439 55.674686 
C 318.839056 56.007069 318.6523 56.45794 318.6523 56.928 
C 318.6523 57.39806 318.839056 57.848931 319.171439 58.181314 
C 319.503822 58.513697 319.954693 58.700454 320.424753 58.700454 
z
" style="stroke:#000000;stroke-width:0.886227;"/>
    <path clip-path="url(#p15be734a0a)" d="M 321.346276 59.596454 
C 321.816336 59.596454 322.267207 59.409697 322.59959 59.077314 
C 322.931973 58.744931 323.11873 58.29406 323.11873 57.824 
C 323.11873 57.35394 322.931973 56.903069 322.59959 56.570686 
C 322.267207 56.238303 321.816336 56.051546 321.346276 56.051546 
C 320.876216 56.051546 320.425345 56.238303 320.092962 56.570686 
C 319.760579 56.903069 319.573822 57.35394 319.573822 57.824 
C 319.573822 58.29406 319.760579 58.744931 320.092962 59.077314 
C 320.425345 59.409697 320.876216 59.596454 321.346276 59.596454 
z
" style="stroke:#000000;stroke-width:0.886227;"/>
    <path clip-path="url(#p15be734a0a)" d="M 258.857719 118.732454 
C 259.327779 118.732454 259.77865 118.545697 260.111033 118.213314 
C 260.443416 117.880931 260.630173 117.43006 260.630173 116.96 
C 260.630173 116.48994 260.443416 116.039069 260.111033 115.706686 
C 259.77865 115.374303 259.327779 115.187546 258.857719 115.187546 
C 258.387658 115.187546 257.936787 115.374303 257.604405 115.706686 
C 257.272022 116.039069 257.085265 116.48994 257.085265 116.96 
C 257.085265 117.43006 257.272022 117.880931 257.604405 118.213314 
C 257.936787 118.545697 258.387658 118.732454 258.857719 118.732454 
z
" style="stroke:#000000;stroke-width:0.886227;"/>
    <path clip-path="url(#p15be734a0a)" d="M 60.225665 185.597165 
C 60.695725 185.597165 61.146596 185.410408 61.478979 185.078025 
C 61.811362 184.745642 61.998119 184.294771 61.998119 183.824711 
C 61.998119 183.354651 61.811362 182.90378 61.478979 182.571397 
C 61.146596 182.239014 60.695725 182.052257 60.225665 182.052257 
C 59.755605 182.052257 59.304733 182.239014 58.972351 182.571397 
C 58.639968 182.90378 58.453211 183.354651 58.453211 183.824711 
C 58.453211 184.294771 58.639968 184.745642 58.972351 185.078025 
C 59.304733 185.410408 59.755605 185.597165 60.225665 185.597165 
z
" style="stroke:#000000;stroke-width:0.886227;"/>
    <path clip-path="url(#p15be734a0a)" d="M 122.691702 183.964223 
C 123.161762 183.964223 123.612633 183.777466 123.945016 183.445084 
C 124.277399 183.112701 124.464156 182.66183 124.464156 182.19177 
C 124.464156 181.721709 124.277399 181.270838 123.945016 180.938455 
C 123.612633 180.606073 123.161762 180.419316 122.691702 180.419316 
C 122.221642 180.419316 121.770771 180.606073 121.438388 180.938455 
C 121.106005 181.270838 120.919248 181.721709 120.919248 182.19177 
C 120.919248 182.66183 121.106005 183.112701 121.438388 183.445084 
C 121.770771 183.777466 122.221642 183.964223 122.691702 183.964223 
z
" style="stroke:#000000;stroke-width:0.886227;"/>
    <path clip-path="url(#p15be734a0a)" d="M 108.682528 183.237235 
C 109.152588 183.237235 109.603459 183.050478 109.935842 182.718095 
C 110.268225 182.385713 110.454982 181.934842 110.454982 181.464781 
C 110.454982 180.994721 110.268225 180.54385 109.935842 180.211467 
C 109.603459 179.879084 109.152588 179.692327 108.682528 179.692327 
C 108.212467 179.692327 107.761596 179.879084 107.429214 180.211467 
C 107.096831 180.54385 106.910074 180.994721 106.910074 181.464781 
C 106.910074 181.934842 107.096831 182.385713 107.429214 182.718095 
C 107.761596 183.050478 108.212467 183.237235 108.682528 183.237235 
z
" style="stroke:#000000;stroke-width:0.886227;"/>
    <path clip-path="url(#p15be734a0a)" d="M 260.001642 52.428454 
C 260.471702 52.428454 260.922573 52.241697 261.254956 51.909314 
C 261.587339 51.576931 261.774096 51.12606 261.774096 50.656 
C 261.774096 50.18594 261.587339 49.735069 261.254956 49.402686 
C 260.922573 49.070303 260.471702 48.883546 260.001642 48.883546 
C 259.531582 48.883546 259.080711 49.070303 258.748328 49.402686 
C 258.415945 49.735069 258.229188 50.18594 258.229188 50.656 
C 258.229188 51.12606 258.415945 51.576931 258.748328 51.909314 
C 259.080711 52.241697 259.531582 52.428454 260.001642 52.428454 
z
" style="stroke:#000000;stroke-width:0.886227;"/>
    <path clip-path="url(#p15be734a0a)" d="M 250.554081 139.613372 
C 251.024142 139.613372 251.475013 139.426615 251.807396 139.094232 
C 252.139778 138.761849 252.326535 138.310978 252.326535 137.840918 
C 252.326535 137.370858 252.139778 136.919987 251.807396 136.587604 
C 251.475013 136.255221 251.024142 136.068464 250.554081 136.068464 
C 250.084021 136.068464 249.63315 136.255221 249.300767 136.587604 
C 248.968385 136.919987 248.781628 137.370858 248.781628 137.840918 
C 248.781628 138.310978 248.968385 138.761849 249.300767 139.094232 
C 249.63315 139.426615 250.084021 139.613372 250.554081 139.613372 
z
" style="stroke:#000000;stroke-width:0.886227;"/>
    <path clip-path="url(#p15be734a0a)" d="M 253.496836 196.684454 
C 253.966897 196.684454 254.417768 196.497697 254.750151 196.165314 
C 255.082533 195.832931 255.26929 195.38206 255.26929 194.912 
C 255.26929 194.44194 255.082533 193.991069 254.750151 193.658686 
C 254.417768 193.326303 253.966897 193.139546 253.496836 193.139546 
C 253.026776 193.139546 252.575905 193.326303 252.243522 193.658686 
C 251.91114 193.991069 251.724383 194.44194 251.724383 194.912 
C 251.724383 195.38206 251.91114 195.832931 252.243522 196.165314 
C 252.575905 196.497697 253.026776 196.684454 253.496836 196.684454 
z
" style="stroke:#000000;stroke-width:0.886227;"/>
    <path clip-path="url(#p15be734a0a)" d="M 319.585226 43.468454 
C 320.055286 43.468454 320.506157 43.281697 320.83854 42.949314 
C 321.170923 42.616931 321.35768 42.16606 321.35768 41.696 
C 321.35768 41.22594 321.170923 40.775069 320.83854 40.442686 
C 320.506157 40.110303 320.055286 39.923546 319.585226 39.923546 
C 319.115166 39.923546 318.664295 40.110303 318.331912 40.442686 
C 317.999529 40.775069 317.812772 41.22594 317.812772 41.696 
C 317.812772 42.16606 317.999529 42.616931 318.331912 42.949314 
C 318.664295 43.281697 319.115166 43.468454 319.585226 43.468454 
z
" style="stroke:#000000;stroke-width:0.886227;"/>
    <path clip-path="url(#p15be734a0a)" d="M 278.035624 80.25504 
C 278.505684 80.25504 278.956555 80.068283 279.288938 79.7359 
C 279.621321 79.403517 279.808078 78.952646 279.808078 78.482586 
C 279.808078 78.012526 279.621321 77.561655 279.288938 77.229272 
C 278.956555 76.896889 278.505684 76.710132 278.035624 76.710132 
C 277.565564 76.710132 277.114693 76.896889 276.78231 77.229272 
C 276.449927 77.561655 276.26317 78.012526 276.26317 78.482586 
C 276.26317 78.952646 276.449927 79.403517 276.78231 79.7359 
C 277.114693 80.068283 277.565564 80.25504 278.035624 80.25504 
z
" style="stroke:#000000;stroke-width:0.886227;"/>
    <path clip-path="url(#p15be734a0a)" d="M 153.995534 188.478813 
C 154.465594 188.478813 154.916465 188.292056 155.248848 187.959674 
C 155.58123 187.627291 155.767987 187.17642 155.767987 186.706359 
C 155.767987 186.236299 155.58123 185.785428 155.248848 185.453045 
C 154.916465 185.120662 154.465594 184.933906 153.995534 184.933906 
C 153.525473 184.933906 153.074602 185.120662 152.742219 185.453045 
C 152.409837 185.785428 152.22308 186.236299 152.22308 186.706359 
C 152.22308 187.17642 152.409837 187.627291 152.742219 187.959674 
C 153.074602 188.292056 153.525473 188.478813 153.995534 188.478813 
z
" style="stroke:#000000;stroke-width:0.886227;"/>
    <path clip-path="url(#p15be734a0a)" d="M 154.925157 187.416235 
C 155.395217 187.416235 155.846088 187.229478 156.178471 186.897095 
C 156.510854 186.564713 156.69761 186.113842 156.69761 185.643781 
C 156.69761 185.173721 156.510854 184.72285 156.178471 184.390467 
C 155.846088 184.058084 155.395217 183.871327 154.925157 183.871327 
C 154.455096 183.871327 154.004225 184.058084 153.671842 184.390467 
C 153.33946 184.72285 153.152703 185.173721 153.152703 185.643781 
C 153.152703 186.113842 153.33946 186.564713 153.671842 186.897095 
C 154.004225 187.229478 154.455096 187.416235 154.925157 187.416235 
z
" style="stroke:#000000;stroke-width:0.886227;"/>
    <path clip-path="url(#p15be734a0a)" d="M 188.311346 198.645219 
C 188.781407 198.645219 189.232278 198.458463 189.564661 198.12608 
C 189.897043 197.793697 190.0838 197.342826 190.0838 196.872766 
C 190.0838 196.402705 189.897043 195.951834 189.564661 195.619451 
C 189.232278 195.287069 188.781407 195.100312 188.311346 195.100312 
C 187.841286 195.100312 187.390415 195.287069 187.058032 195.619451 
C 186.725649 195.951834 186.538893 196.402705 186.538893 196.872766 
C 186.538893 197.342826 186.725649 197.793697 187.058032 198.12608 
C 187.390415 198.458463 187.841286 198.645219 188.311346 198.645219 
z
" style="stroke:#000000;stroke-width:0.886227;"/>
    <path clip-path="url(#p15be734a0a)" d="M 242.768513 134.860454 
C 243.238573 134.860454 243.689444 134.673697 244.021827 134.341314 
C 244.35421 134.008931 244.540967 133.55806 244.540967 133.088 
C 244.540967 132.61794 244.35421 132.167069 244.021827 131.834686 
C 243.689444 131.502303 243.238573 131.315546 242.768513 131.315546 
C 242.298453 131.315546 241.847582 131.502303 241.515199 131.834686 
C 241.182816 132.167069 240.996059 132.61794 240.996059 133.088 
C 240.996059 133.55806 241.182816 134.008931 241.515199 134.341314 
C 241.847582 134.673697 242.298453 134.860454 242.768513 134.860454 
z
" style="stroke:#000000;stroke-width:0.886227;"/>
    <path clip-path="url(#p15be734a0a)" d="M 251.627549 109.073684 
C 252.097609 109.073684 252.54848 108.886927 252.880863 108.554545 
C 253.213246 108.222162 253.400003 107.771291 253.400003 107.30123 
C 253.400003 106.83117 253.213246 106.380299 252.880863 106.047916 
C 252.54848 105.715534 252.097609 105.528777 251.627549 105.528777 
C 251.157489 105.528777 250.706618 105.715534 250.374235 106.047916 
C 250.041852 106.380299 249.855095 106.83117 249.855095 107.30123 
C 249.855095 107.771291 250.041852 108.222162 250.374235 108.554545 
C 250.706618 108.886927 251.157489 109.073684 251.627549 109.073684 
z
" style="stroke:#000000;stroke-width:0.886227;"/>
    <path clip-path="url(#p15be734a0a)" d="M 297.612371 44.364454 
C 298.082431 44.364454 298.533302 44.177697 298.865685 43.845314 
C 299.198068 43.512931 299.384825 43.06206 299.384825 42.592 
C 299.384825 42.12194 299.198068 41.671069 298.865685 41.338686 
C 298.533302 41.006303 298.082431 40.819546 297.612371 40.819546 
C 297.14231 40.819546 296.691439 41.006303 296.359057 41.338686 
C 296.026674 41.671069 295.839917 42.12194 295.839917 42.592 
C 295.839917 43.06206 296.026674 43.512931 296.359057 43.845314 
C 296.691439 44.177697 297.14231 44.364454 297.612371 44.364454 
z
" style="stroke:#000000;stroke-width:0.886227;"/>
    <path clip-path="url(#p15be734a0a)" d="M 320.743579 49.740454 
C 321.213639 49.740454 321.66451 49.553697 321.996893 49.221314 
C 322.329275 48.888931 322.516032 48.43806 322.516032 47.968 
C 322.516032 47.49794 322.329275 47.047069 321.996893 46.714686 
C 321.66451 46.382303 321.213639 46.195546 320.743579 46.195546 
C 320.273518 46.195546 319.822647 46.382303 319.490264 46.714686 
C 319.157882 47.047069 318.971125 47.49794 318.971125 47.968 
C 318.971125 48.43806 319.157882 48.888931 319.490264 49.221314 
C 319.822647 49.553697 320.273518 49.740454 320.743579 49.740454 
z
" style="stroke:#000000;stroke-width:0.886227;"/>
    <path clip-path="url(#p15be734a0a)" d="M 322.92017 36.300454 
C 323.39023 36.300454 323.841101 36.113697 324.173484 35.781314 
C 324.505867 35.448931 324.692624 34.99806 324.692624 34.528 
C 324.692624 34.05794 324.505867 33.607069 324.173484 33.274686 
C 323.841101 32.942303 323.39023 32.755546 322.92017 32.755546 
C 322.45011 32.755546 321.999239 32.942303 321.666856 33.274686 
C 321.334473 33.607069 321.147716 34.05794 321.147716 34.528 
C 321.147716 34.99806 321.334473 35.448931 321.666856 35.781314 
C 321.999239 36.113697 322.45011 36.300454 322.92017 36.300454 
z
" style="stroke:#000000;stroke-width:0.886227;"/>
    <path clip-path="url(#p15be734a0a)" d="M 244.642998 213.409204 
C 245.113058 213.409204 245.563929 213.222447 245.896312 212.890064 
C 246.228695 212.557681 246.415451 212.10681 246.415451 211.63675 
C 246.415451 211.16669 246.228695 210.715819 245.896312 210.383436 
C 245.563929 210.051053 245.113058 209.864296 244.642998 209.864296 
C 244.172937 209.864296 243.722066 210.051053 243.389683 210.383436 
C 243.057301 210.715819 242.870544 211.16669 242.870544 211.63675 
C 242.870544 212.10681 243.057301 212.557681 243.389683 212.890064 
C 243.722066 213.222447 244.172937 213.409204 244.642998 213.409204 
z
" style="stroke:#000000;stroke-width:0.886227;"/>
    <path clip-path="url(#p15be734a0a)" d="M 230.678427 150.59104 
C 231.148487 150.59104 231.599358 150.404283 231.931741 150.0719 
C 232.264124 149.739517 232.45088 149.288646 232.45088 148.818586 
C 232.45088 148.348526 232.264124 147.897655 231.931741 147.565272 
C 231.599358 147.232889 231.148487 147.046132 230.678427 147.046132 
C 230.208366 147.046132 229.757495 147.232889 229.425112 147.565272 
C 229.09273 147.897655 228.905973 148.348526 228.905973 148.818586 
C 228.905973 149.288646 229.09273 149.739517 229.425112 150.0719 
C 229.757495 150.404283 230.208366 150.59104 230.678427 150.59104 
z
" style="stroke:#000000;stroke-width:0.886227;"/>
    <path clip-path="url(#p15be734a0a)" d="M 301.042138 73.036454 
C 301.512198 73.036454 301.963069 72.849697 302.295452 72.517314 
C 302.627835 72.184931 302.814592 71.73406 302.814592 71.264 
C 302.814592 70.79394 302.627835 70.343069 302.295452 70.010686 
C 301.963069 69.678303 301.512198 69.491546 301.042138 69.491546 
C 300.572078 69.491546 300.121207 69.678303 299.788824 70.010686 
C 299.456441 70.343069 299.269684 70.79394 299.269684 71.264 
C 299.269684 71.73406 299.456441 72.184931 299.788824 72.517314 
C 300.121207 72.849697 300.572078 73.036454 301.042138 73.036454 
z
" style="stroke:#000000;stroke-width:0.886227;"/>
    <path clip-path="url(#p15be734a0a)" d="M 313.021833 25.548454 
C 313.491893 25.548454 313.942764 25.361697 314.275147 25.029314 
C 314.60753 24.696931 314.794287 24.24606 314.794287 23.776 
C 314.794287 23.30594 314.60753 22.855069 314.275147 22.522686 
C 313.942764 22.190303 313.491893 22.003546 313.021833 22.003546 
C 312.551773 22.003546 312.100902 22.190303 311.768519 22.522686 
C 311.436136 22.855069 311.249379 23.30594 311.249379 23.776 
C 311.249379 24.24606 311.436136 24.696931 311.768519 25.029314 
C 312.100902 25.361697 312.551773 25.548454 313.021833 25.548454 
z
" style="stroke:#000000;stroke-width:0.886227;"/>
    <path clip-path="url(#p15be734a0a)" d="M 311.06025 67.660454 
C 311.530311 67.660454 311.981182 67.473697 312.313565 67.141314 
C 312.645947 66.808931 312.832704 66.35806 312.832704 65.888 
C 312.832704 65.41794 312.645947 64.967069 312.313565 64.634686 
C 311.981182 64.302303 311.530311 64.115546 311.06025 64.115546 
C 310.59019 64.115546 310.139319 64.302303 309.806936 64.634686 
C 309.474554 64.967069 309.287797 65.41794 309.287797 65.888 
C 309.287797 66.35806 309.474554 66.808931 309.806936 67.141314 
C 310.139319 67.473697 310.59019 67.660454 311.06025 67.660454 
z
" style="stroke:#000000;stroke-width:0.886227;"/>
    <path clip-path="url(#p15be734a0a)" d="M 219.495941 94.540454 
C 219.966002 94.540454 220.416873 94.353697 220.749256 94.021314 
C 221.081638 93.688931 221.268395 93.23806 221.268395 92.768 
C 221.268395 92.29794 221.081638 91.847069 220.749256 91.514686 
C 220.416873 91.182303 219.966002 90.995546 219.495941 90.995546 
C 219.025881 90.995546 218.57501 91.182303 218.242627 91.514686 
C 217.910244 91.847069 217.723488 92.29794 217.723488 92.768 
C 217.723488 93.23806 217.910244 93.688931 218.242627 94.021314 
C 218.57501 94.353697 219.025881 94.540454 219.495941 94.540454 
z
" style="stroke:#000000;stroke-width:0.886227;"/>
    <path clip-path="url(#p15be734a0a)" d="M 205.86183 162.030653 
C 206.33189 162.030653 206.782761 161.843896 207.115144 161.511513 
C 207.447526 161.179131 207.634283 160.728259 207.634283 160.258199 
C 207.634283 159.788139 207.447526 159.337268 207.115144 159.004885 
C 206.782761 158.672502 206.33189 158.485745 205.86183 158.485745 
C 205.391769 158.485745 204.940898 158.672502 204.608515 159.004885 
C 204.276133 159.337268 204.089376 159.788139 204.089376 160.258199 
C 204.089376 160.728259 204.276133 161.179131 204.608515 161.511513 
C 204.940898 161.843896 205.391769 162.030653 205.86183 162.030653 
z
" style="stroke:#000000;stroke-width:0.886227;"/>
    <path clip-path="url(#p15be734a0a)" d="M 333.453035 21.068454 
C 333.923095 21.068454 334.373966 20.881697 334.706349 20.549314 
C 335.038731 20.216931 335.225488 19.76606 335.225488 19.296 
C 335.225488 18.82594 335.038731 18.375069 334.706349 18.042686 
C 334.373966 17.710303 333.923095 17.523546 333.453035 17.523546 
C 332.982974 17.523546 332.532103 17.710303 332.19972 18.042686 
C 331.867338 18.375069 331.680581 18.82594 331.680581 19.296 
C 331.680581 19.76606 331.867338 20.216931 332.19972 20.549314 
C 332.532103 20.881697 332.982974 21.068454 333.453035 21.068454 
z
" style="stroke:#000000;stroke-width:0.886227;"/>
    <path clip-path="url(#p15be734a0a)" d="M 172.235611 159.948454 
C 172.705671 159.948454 173.156542 159.761697 173.488925 159.429314 
C 173.821308 159.096931 174.008064 158.64606 174.008064 158.176 
C 174.008064 157.70594 173.821308 157.255069 173.488925 156.922686 
C 173.156542 156.590303 172.705671 156.403546 172.235611 156.403546 
C 171.76555 156.403546 171.314679 156.590303 170.982296 156.922686 
C 170.649914 157.255069 170.463157 157.70594 170.463157 158.176 
C 170.463157 158.64606 170.649914 159.096931 170.982296 159.429314 
C 171.314679 159.761697 171.76555 159.948454 172.235611 159.948454 
z
" style="stroke:#000000;stroke-width:0.886227;"/>
    <path clip-path="url(#p15be734a0a)" d="M 272.779994 38.988454 
C 273.250054 38.988454 273.700925 38.801697 274.033308 38.469314 
C 274.365691 38.136931 274.552448 37.68606 274.552448 37.216 
C 274.552448 36.74594 274.365691 36.295069 274.033308 35.962686 
C 273.700925 35.630303 273.250054 35.443546 272.779994 35.443546 
C 272.309934 35.443546 271.859062 35.630303 271.52668 35.962686 
C 271.194297 36.295069 271.00754 36.74594 271.00754 37.216 
C 271.00754 37.68606 271.194297 38.136931 271.52668 38.469314 
C 271.859062 38.801697 272.309934 38.988454 272.779994 38.988454 
z
" style="stroke:#000000;stroke-width:0.886227;"/>
    <path clip-path="url(#p15be734a0a)" d="M 284.759482 48.844454 
C 285.229542 48.844454 285.680413 48.657697 286.012796 48.325314 
C 286.345179 47.992931 286.531936 47.54206 286.531936 47.072 
C 286.531936 46.60194 286.345179 46.151069 286.012796 45.818686 
C 285.680413 45.486303 285.229542 45.299546 284.759482 45.299546 
C 284.289422 45.299546 283.838551 45.486303 283.506168 45.818686 
C 283.173785 46.151069 282.987028 46.60194 282.987028 47.072 
C 282.987028 47.54206 283.173785 47.992931 283.506168 48.325314 
C 283.838551 48.657697 284.289422 48.844454 284.759482 48.844454 
z
" style="stroke:#000000;stroke-width:0.886227;"/>
    <path clip-path="url(#p15be734a0a)" d="M 228.367235 150.092454 
C 228.837295 150.092454 229.288166 149.905697 229.620549 149.573314 
C 229.952932 149.240931 230.139689 148.79006 230.139689 148.32 
C 230.139689 147.84994 229.952932 147.399069 229.620549 147.066686 
C 229.288166 146.734303 228.837295 146.547546 228.367235 146.547546 
C 227.897175 146.547546 227.446304 146.734303 227.113921 147.066686 
C 226.781538 147.399069 226.594781 147.84994 226.594781 148.32 
C 226.594781 148.79006 226.781538 149.240931 227.113921 149.573314 
C 227.446304 149.905697 227.897175 150.092454 228.367235 150.092454 
z
" style="stroke:#000000;stroke-width:0.886227;"/>
    <path clip-path="url(#p15be734a0a)" d="M 342.29859 39.884454 
C 342.76865 39.884454 343.219522 39.697697 343.551904 39.365314 
C 343.884287 39.032931 344.071044 38.58206 344.071044 38.112 
C 344.071044 37.64194 343.884287 37.191069 343.551904 36.858686 
C 343.219522 36.526303 342.76865 36.339546 342.29859 36.339546 
C 341.82853 36.339546 341.377659 36.526303 341.045276 36.858686 
C 340.712893 37.191069 340.526136 37.64194 340.526136 38.112 
C 340.526136 38.58206 340.712893 39.032931 341.045276 39.365314 
C 341.377659 39.697697 341.82853 39.884454 342.29859 39.884454 
z
" style="stroke:#000000;stroke-width:0.886227;"/>
    <path clip-path="url(#p15be734a0a)" d="M 258.094844 121.420454 
C 258.564905 121.420454 259.015776 121.233697 259.348159 120.901314 
C 259.680541 120.568931 259.867298 120.11806 259.867298 119.648 
C 259.867298 119.17794 259.680541 118.727069 259.348159 118.394686 
C 259.015776 118.062303 258.564905 117.875546 258.094844 117.875546 
C 257.624784 117.875546 257.173913 118.062303 256.84153 118.394686 
C 256.509148 118.727069 256.322391 119.17794 256.322391 119.648 
C 256.322391 120.11806 256.509148 120.568931 256.84153 120.901314 
C 257.173913 121.233697 257.624784 121.420454 258.094844 121.420454 
z
" style="stroke:#000000;stroke-width:0.886227;"/>
    <path clip-path="url(#p15be734a0a)" d="M 300.511406 45.260454 
C 300.981467 45.260454 301.432338 45.073697 301.764721 44.741314 
C 302.097103 44.408931 302.28386 43.95806 302.28386 43.488 
C 302.28386 43.01794 302.097103 42.567069 301.764721 42.234686 
C 301.432338 41.902303 300.981467 41.715546 300.511406 41.715546 
C 300.041346 41.715546 299.590475 41.902303 299.258092 42.234686 
C 298.92571 42.567069 298.738953 43.01794 298.738953 43.488 
C 298.738953 43.95806 298.92571 44.408931 299.258092 44.741314 
C 299.590475 45.073697 300.041346 45.260454 300.511406 45.260454 
z
" style="stroke:#000000;stroke-width:0.886227;"/>
    <path clip-path="url(#p15be734a0a)" d="M 304.906584 49.740454 
C 305.376645 49.740454 305.827516 49.553697 306.159899 49.221314 
C 306.492281 48.888931 306.679038 48.43806 306.679038 47.968 
C 306.679038 47.49794 306.492281 47.047069 306.159899 46.714686 
C 305.827516 46.382303 305.376645 46.195546 304.906584 46.195546 
C 304.436524 46.195546 303.985653 46.382303 303.65327 46.714686 
C 303.320887 47.047069 303.134131 47.49794 303.134131 47.968 
C 303.134131 48.43806 303.320887 48.888931 303.65327 49.221314 
C 303.985653 49.553697 304.436524 49.740454 304.906584 49.740454 
z
" style="stroke:#000000;stroke-width:0.886227;"/>
    <path clip-path="url(#p15be734a0a)" d="M 349.127172 184.140454 
C 349.597232 184.140454 350.048103 183.953697 350.380486 183.621314 
C 350.712869 183.288931 350.899626 182.83806 350.899626 182.368 
C 350.899626 181.89794 350.712869 181.447069 350.380486 181.114686 
C 350.048103 180.782303 349.597232 180.595546 349.127172 180.595546 
C 348.657112 180.595546 348.206241 180.782303 347.873858 181.114686 
C 347.541475 181.447069 347.354718 181.89794 347.354718 182.368 
C 347.354718 182.83806 347.541475 183.288931 347.873858 183.621314 
C 348.206241 183.953697 348.657112 184.140454 349.127172 184.140454 
z
" style="stroke:#000000;stroke-width:0.886227;"/>
    <path clip-path="url(#p15be734a0a)" d="M 289.702712 60.492454 
C 290.172773 60.492454 290.623644 60.305697 290.956026 59.973314 
C 291.288409 59.640931 291.475166 59.19006 291.475166 58.72 
C 291.475166 58.24994 291.288409 57.799069 290.956026 57.466686 
C 290.623644 57.134303 290.172773 56.947546 289.702712 56.947546 
C 289.232652 56.947546 288.781781 57.134303 288.449398 57.466686 
C 288.117015 57.799069 287.930258 58.24994 287.930258 58.72 
C 287.930258 59.19006 288.117015 59.640931 288.449398 59.973314 
C 288.781781 60.305697 289.232652 60.492454 289.702712 60.492454 
z
" style="stroke:#000000;stroke-width:0.886227;"/>
    <path clip-path="url(#p15be734a0a)" d="M 205.898794 262.988454 
C 206.368854 262.988454 206.819725 262.801697 207.152108 262.469314 
C 207.484491 262.136931 207.671248 261.68606 207.671248 261.216 
C 207.671248 260.74594 207.484491 260.295069 207.152108 259.962686 
C 206.819725 259.630303 206.368854 259.443546 205.898794 259.443546 
C 205.428734 259.443546 204.977862 259.630303 204.64548 259.962686 
C 204.313097 260.295069 204.12634 260.74594 204.12634 261.216 
C 204.12634 261.68606 204.313097 262.136931 204.64548 262.469314 
C 204.977862 262.801697 205.428734 262.988454 205.898794 262.988454 
z
" style="stroke:#000000;stroke-width:0.886227;"/>
    <path clip-path="url(#p15be734a0a)" d="M 258.754391 139.613372 
C 259.224451 139.613372 259.675322 139.426615 260.007705 139.094232 
C 260.340088 138.761849 260.526845 138.310978 260.526845 137.840918 
C 260.526845 137.370858 260.340088 136.919987 260.007705 136.587604 
C 259.675322 136.255221 259.224451 136.068464 258.754391 136.068464 
C 258.28433 136.068464 257.833459 136.255221 257.501077 136.587604 
C 257.168694 136.919987 256.981937 137.370858 256.981937 137.840918 
C 256.981937 138.310978 257.168694 138.761849 257.501077 139.094232 
C 257.833459 139.426615 258.28433 139.613372 258.754391 139.613372 
z
" style="stroke:#000000;stroke-width:0.886227;"/>
    <path clip-path="url(#p15be734a0a)" d="M 304.851941 100.812454 
C 305.322001 100.812454 305.772872 100.625697 306.105255 100.293314 
C 306.437638 99.960931 306.624395 99.51006 306.624395 99.04 
C 306.624395 98.56994 306.437638 98.119069 306.105255 97.786686 
C 305.772872 97.454303 305.322001 97.267546 304.851941 97.267546 
C 304.381881 97.267546 303.93101 97.454303 303.598627 97.786686 
C 303.266244 98.119069 303.079487 98.56994 303.079487 99.04 
C 303.079487 99.51006 303.266244 99.960931 303.598627 100.293314 
C 303.93101 100.625697 304.381881 100.812454 304.851941 100.812454 
z
" style="stroke:#000000;stroke-width:0.886227;"/>
    <path clip-path="url(#p15be734a0a)" d="M 72.348559 235.410997 
C 72.818619 235.410997 73.26949 235.22424 73.601873 234.891857 
C 73.934256 234.559474 74.121013 234.108603 74.121013 233.638543 
C 74.121013 233.168483 73.934256 232.717612 73.601873 232.385229 
C 73.26949 232.052846 72.818619 231.866089 72.348559 231.866089 
C 71.878499 231.866089 71.427627 232.052846 71.095245 232.385229 
C 70.762862 232.717612 70.576105 233.168483 70.576105 233.638543 
C 70.576105 234.108603 70.762862 234.559474 71.095245 234.891857 
C 71.427627 235.22424 71.878499 235.410997 72.348559 235.410997 
z
" style="stroke:#000000;stroke-width:0.886227;"/>
    <path clip-path="url(#p15be734a0a)" d="M 181.215483 181.628329 
C 181.685543 181.628329 182.136414 181.441572 182.468797 181.109189 
C 182.80118 180.776806 182.987937 180.325935 182.987937 179.855875 
C 182.987937 179.385815 182.80118 178.934944 182.468797 178.602561 
C 182.136414 178.270178 181.685543 178.083421 181.215483 178.083421 
C 180.745423 178.083421 180.294552 178.270178 179.962169 178.602561 
C 179.629786 178.934944 179.443029 179.385815 179.443029 179.855875 
C 179.443029 180.325935 179.629786 180.776806 179.962169 181.109189 
C 180.294552 181.441572 180.745423 181.628329 181.215483 181.628329 
z
" style="stroke:#000000;stroke-width:0.886227;"/>
    <path clip-path="url(#p15be734a0a)" d="M 324.361193 46.156454 
C 324.831253 46.156454 325.282124 45.969697 325.614507 45.637314 
C 325.94689 45.304931 326.133647 44.85406 326.133647 44.384 
C 326.133647 43.91394 325.94689 43.463069 325.614507 43.130686 
C 325.282124 42.798303 324.831253 42.611546 324.361193 42.611546 
C 323.891132 42.611546 323.440261 42.798303 323.107879 43.130686 
C 322.775496 43.463069 322.588739 43.91394 322.588739 44.384 
C 322.588739 44.85406 322.775496 45.304931 323.107879 45.637314 
C 323.440261 45.969697 323.891132 46.156454 324.361193 46.156454 
z
" style="stroke:#000000;stroke-width:0.886227;"/>
    <path clip-path="url(#p15be734a0a)" d="M 344.810842 80.204454 
C 345.280903 80.204454 345.731774 80.017697 346.064156 79.685314 
C 346.396539 79.352931 346.583296 78.90206 346.583296 78.432 
C 346.583296 77.96194 346.396539 77.511069 346.064156 77.178686 
C 345.731774 76.846303 345.280903 76.659546 344.810842 76.659546 
C 344.340782 76.659546 343.889911 76.846303 343.557528 77.178686 
C 343.225145 77.511069 343.038388 77.96194 343.038388 78.432 
C 343.038388 78.90206 343.225145 79.352931 343.557528 79.685314 
C 343.889911 80.017697 344.340782 80.204454 344.810842 80.204454 
z
" style="stroke:#000000;stroke-width:0.886227;"/>
    <path clip-path="url(#p15be734a0a)" d="M 305.545414 55.116454 
C 306.015474 55.116454 306.466346 54.929697 306.798728 54.597314 
C 307.131111 54.264931 307.317868 53.81406 307.317868 53.344 
C 307.317868 52.87394 307.131111 52.423069 306.798728 52.090686 
C 306.466346 51.758303 306.015474 51.571546 305.545414 51.571546 
C 305.075354 51.571546 304.624483 51.758303 304.2921 52.090686 
C 303.959717 52.423069 303.77296 52.87394 303.77296 53.344 
C 303.77296 53.81406 303.959717 54.264931 304.2921 54.597314 
C 304.624483 54.929697 305.075354 55.116454 305.545414 55.116454 
z
" style="stroke:#000000;stroke-width:0.886227;"/>
    <path clip-path="url(#p15be734a0a)" d="M 314.958805 185.036454 
C 315.428866 185.036454 315.879737 184.849697 316.212119 184.517314 
C 316.544502 184.184931 316.731259 183.73406 316.731259 183.264 
C 316.731259 182.79394 316.544502 182.343069 316.212119 182.010686 
C 315.879737 181.678303 315.428866 181.491546 314.958805 181.491546 
C 314.488745 181.491546 314.037874 181.678303 313.705491 182.010686 
C 313.373108 182.343069 313.186351 182.79394 313.186351 183.264 
C 313.186351 183.73406 313.373108 184.184931 313.705491 184.517314 
C 314.037874 184.849697 314.488745 185.036454 314.958805 185.036454 
z
" style="stroke:#000000;stroke-width:0.886227;"/>
    <path clip-path="url(#p15be734a0a)" d="M 272.518308 165.550641 
C 272.988368 165.550641 273.439239 165.363884 273.771622 165.031502 
C 274.104005 164.699119 274.290762 164.248248 274.290762 163.778187 
C 274.290762 163.308127 274.104005 162.857256 273.771622 162.524873 
C 273.439239 162.192491 272.988368 162.005734 272.518308 162.005734 
C 272.048248 162.005734 271.597376 162.192491 271.264994 162.524873 
C 270.932611 162.857256 270.745854 163.308127 270.745854 163.778187 
C 270.745854 164.248248 270.932611 164.699119 271.264994 165.031502 
C 271.597376 165.363884 272.048248 165.550641 272.518308 165.550641 
z
" style="stroke:#000000;stroke-width:0.886227;"/>
    <path clip-path="url(#p15be734a0a)" d="M 236.468798 134.121954 
C 236.938858 134.121954 237.389729 133.935197 237.722112 133.602814 
C 238.054494 133.270431 238.241251 132.81956 238.241251 132.3495 
C 238.241251 131.87944 238.054494 131.428569 237.722112 131.096186 
C 237.389729 130.763803 236.938858 130.577046 236.468798 130.577046 
C 235.998737 130.577046 235.547866 130.763803 235.215483 131.096186 
C 234.883101 131.428569 234.696344 131.87944 234.696344 132.3495 
C 234.696344 132.81956 234.883101 133.270431 235.215483 133.602814 
C 235.547866 133.935197 235.998737 134.121954 236.468798 134.121954 
z
" style="stroke:#000000;stroke-width:0.886227;"/>
    <path clip-path="url(#p15be734a0a)" d="M 285.434384 61.388454 
C 285.904444 61.388454 286.355315 61.201697 286.687698 60.869314 
C 287.020081 60.536931 287.206838 60.08606 287.206838 59.616 
C 287.206838 59.14594 287.020081 58.695069 286.687698 58.362686 
C 286.355315 58.030303 285.904444 57.843546 285.434384 57.843546 
C 284.964323 57.843546 284.513452 58.030303 284.18107 58.362686 
C 283.848687 58.695069 283.66193 59.14594 283.66193 59.616 
C 283.66193 60.08606 283.848687 60.536931 284.18107 60.869314 
C 284.513452 61.201697 284.964323 61.388454 285.434384 61.388454 
z
" style="stroke:#000000;stroke-width:0.886227;"/>
    <path clip-path="url(#p15be734a0a)" d="M 288.658558 47.948454 
C 289.128618 47.948454 289.579489 47.761697 289.911872 47.429314 
C 290.244255 47.096931 290.431012 46.64606 290.431012 46.176 
C 290.431012 45.70594 290.244255 45.255069 289.911872 44.922686 
C 289.579489 44.590303 289.128618 44.403546 288.658558 44.403546 
C 288.188498 44.403546 287.737627 44.590303 287.405244 44.922686 
C 287.072861 45.255069 286.886104 45.70594 286.886104 46.176 
C 286.886104 46.64606 287.072861 47.096931 287.405244 47.429314 
C 287.737627 47.761697 288.188498 47.948454 288.658558 47.948454 
z
" style="stroke:#000000;stroke-width:0.886227;"/>
    <path clip-path="url(#p15be734a0a)" d="M 216.700937 182.200934 
C 217.170997 182.200934 217.621869 182.014177 217.954251 181.681795 
C 218.286634 181.349412 218.473391 180.898541 218.473391 180.42848 
C 218.473391 179.95842 218.286634 179.507549 217.954251 179.175166 
C 217.621869 178.842784 217.170997 178.656027 216.700937 178.656027 
C 216.230877 178.656027 215.780006 178.842784 215.447623 179.175166 
C 215.11524 179.507549 214.928483 179.95842 214.928483 180.42848 
C 214.928483 180.898541 215.11524 181.349412 215.447623 181.681795 
C 215.780006 182.014177 216.230877 182.200934 216.700937 182.200934 
z
" style="stroke:#000000;stroke-width:0.886227;"/>
    <path clip-path="url(#p15be734a0a)" d="M 384.88021 152.780454 
C 385.35027 152.780454 385.801142 152.593697 386.133524 152.261314 
C 386.465907 151.928931 386.652664 151.47806 386.652664 151.008 
C 386.652664 150.53794 386.465907 150.087069 386.133524 149.754686 
C 385.801142 149.422303 385.35027 149.235546 384.88021 149.235546 
C 384.41015 149.235546 383.959279 149.422303 383.626896 149.754686 
C 383.294513 150.087069 383.107756 150.53794 383.107756 151.008 
C 383.107756 151.47806 383.294513 151.928931 383.626896 152.261314 
C 383.959279 152.593697 384.41015 152.780454 384.88021 152.780454 
z
" style="stroke:#000000;stroke-width:0.886227;"/>
    <path clip-path="url(#p15be734a0a)" d="M 272.117222 78.412454 
C 272.587283 78.412454 273.038154 78.225697 273.370536 77.893314 
C 273.702919 77.560931 273.889676 77.11006 273.889676 76.64 
C 273.889676 76.16994 273.702919 75.719069 273.370536 75.386686 
C 273.038154 75.054303 272.587283 74.867546 272.117222 74.867546 
C 271.647162 74.867546 271.196291 75.054303 270.863908 75.386686 
C 270.531525 75.719069 270.344769 76.16994 270.344769 76.64 
C 270.344769 77.11006 270.531525 77.560931 270.863908 77.893314 
C 271.196291 78.225697 271.647162 78.412454 272.117222 78.412454 
z
" style="stroke:#000000;stroke-width:0.886227;"/>
    <path clip-path="url(#p15be734a0a)" d="M 283.422245 25.548454 
C 283.892305 25.548454 284.343176 25.361697 284.675559 25.029314 
C 285.007942 24.696931 285.194699 24.24606 285.194699 23.776 
C 285.194699 23.30594 285.007942 22.855069 284.675559 22.522686 
C 284.343176 22.190303 283.892305 22.003546 283.422245 22.003546 
C 282.952185 22.003546 282.501314 22.190303 282.168931 22.522686 
C 281.836548 22.855069 281.649791 23.30594 281.649791 23.776 
C 281.649791 24.24606 281.836548 24.696931 282.168931 25.029314 
C 282.501314 25.361697 282.952185 25.548454 283.422245 25.548454 
z
" style="stroke:#000000;stroke-width:0.886227;"/>
    <path clip-path="url(#p15be734a0a)" d="M 329.930473 144.716454 
C 330.400533 144.716454 330.851404 144.529697 331.183787 144.197314 
C 331.51617 143.864931 331.702927 143.41406 331.702927 142.944 
C 331.702927 142.47394 331.51617 142.023069 331.183787 141.690686 
C 330.851404 141.358303 330.400533 141.171546 329.930473 141.171546 
C 329.460413 141.171546 329.009542 141.358303 328.677159 141.690686 
C 328.344776 142.023069 328.158019 142.47394 328.158019 142.944 
C 328.158019 143.41406 328.344776 143.864931 328.677159 144.197314 
C 329.009542 144.529697 329.460413 144.716454 329.930473 144.716454 
z
" style="stroke:#000000;stroke-width:0.886227;"/>
    <path clip-path="url(#p15be734a0a)" d="M 131.872707 172.704395 
C 132.342767 172.704395 132.793638 172.517638 133.126021 172.185256 
C 133.458404 171.852873 133.645161 171.402002 133.645161 170.931941 
C 133.645161 170.461881 133.458404 170.01101 133.126021 169.678627 
C 132.793638 169.346244 132.342767 169.159488 131.872707 169.159488 
C 131.402646 169.159488 130.951775 169.346244 130.619393 169.678627 
C 130.28701 170.01101 130.100253 170.461881 130.100253 170.931941 
C 130.100253 171.402002 130.28701 171.852873 130.619393 172.185256 
C 130.951775 172.517638 131.402646 172.704395 131.872707 172.704395 
z
" style="stroke:#000000;stroke-width:0.886227;"/>
    <path clip-path="url(#p15be734a0a)" d="M 359.786149 23.756454 
C 360.25621 23.756454 360.707081 23.569697 361.039464 23.237314 
C 361.371846 22.904931 361.558603 22.45406 361.558603 21.984 
C 361.558603 21.51394 361.371846 21.063069 361.039464 20.730686 
C 360.707081 20.398303 360.25621 20.211546 359.786149 20.211546 
C 359.316089 20.211546 358.865218 20.398303 358.532835 20.730686 
C 358.200453 21.063069 358.013696 21.51394 358.013696 21.984 
C 358.013696 22.45406 358.200453 22.904931 358.532835 23.237314 
C 358.865218 23.569697 359.316089 23.756454 359.786149 23.756454 
z
" style="stroke:#000000;stroke-width:0.886227;"/>
    <path clip-path="url(#p15be734a0a)" d="M 292.622699 52.428454 
C 293.092759 52.428454 293.54363 52.241697 293.876013 51.909314 
C 294.208396 51.576931 294.395153 51.12606 294.395153 50.656 
C 294.395153 50.18594 294.208396 49.735069 293.876013 49.402686 
C 293.54363 49.070303 293.092759 48.883546 292.622699 48.883546 
C 292.152639 48.883546 291.701768 49.070303 291.369385 49.402686 
C 291.037002 49.735069 290.850245 50.18594 290.850245 50.656 
C 290.850245 51.12606 291.037002 51.576931 291.369385 51.909314 
C 291.701768 52.241697 292.152639 52.428454 292.622699 52.428454 
z
" style="stroke:#000000;stroke-width:0.886227;"/>
    <path clip-path="url(#p15be734a0a)" d="M 294.248844 57.804454 
C 294.718904 57.804454 295.169775 57.617697 295.502158 57.285314 
C 295.834541 56.952931 296.021298 56.50206 296.021298 56.032 
C 296.021298 55.56194 295.834541 55.111069 295.502158 54.778686 
C 295.169775 54.446303 294.718904 54.259546 294.248844 54.259546 
C 293.778783 54.259546 293.327912 54.446303 292.99553 54.778686 
C 292.663147 55.111069 292.47639 55.56194 292.47639 56.032 
C 292.47639 56.50206 292.663147 56.952931 292.99553 57.285314 
C 293.327912 57.617697 293.778783 57.804454 294.248844 57.804454 
z
" style="stroke:#000000;stroke-width:0.886227;"/>
    <path clip-path="url(#p15be734a0a)" d="M 323.229818 48.844454 
C 323.699878 48.844454 324.150749 48.657697 324.483132 48.325314 
C 324.815515 47.992931 325.002272 47.54206 325.002272 47.072 
C 325.002272 46.60194 324.815515 46.151069 324.483132 45.818686 
C 324.150749 45.486303 323.699878 45.299546 323.229818 45.299546 
C 322.759757 45.299546 322.308886 45.486303 321.976504 45.818686 
C 321.644121 46.151069 321.457364 46.60194 321.457364 47.072 
C 321.457364 47.54206 321.644121 47.992931 321.976504 48.325314 
C 322.308886 48.657697 322.759757 48.844454 323.229818 48.844454 
z
" style="stroke:#000000;stroke-width:0.886227;"/>
    <path clip-path="url(#p15be734a0a)" d="M 124.609261 231.886962 
C 125.079321 231.886962 125.530192 231.700205 125.862575 231.367822 
C 126.194958 231.035439 126.381714 230.584568 126.381714 230.114508 
C 126.381714 229.644448 126.194958 229.193576 125.862575 228.861194 
C 125.530192 228.528811 125.079321 228.342054 124.609261 228.342054 
C 124.1392 228.342054 123.688329 228.528811 123.355946 228.861194 
C 123.023564 229.193576 122.836807 229.644448 122.836807 230.114508 
C 122.836807 230.584568 123.023564 231.035439 123.355946 231.367822 
C 123.688329 231.700205 124.1392 231.886962 124.609261 231.886962 
z
" style="stroke:#000000;stroke-width:0.886227;"/>
    <path clip-path="url(#p15be734a0a)" d="M 97.931215 201.62104 
C 98.401275 201.62104 98.852146 201.434283 99.184529 201.1019 
C 99.516912 200.769517 99.703669 200.318646 99.703669 199.848586 
C 99.703669 199.378526 99.516912 198.927655 99.184529 198.595272 
C 98.852146 198.262889 98.401275 198.076132 97.931215 198.076132 
C 97.461155 198.076132 97.010284 198.262889 96.677901 198.595272 
C 96.345518 198.927655 96.158761 199.378526 96.158761 199.848586 
C 96.158761 200.318646 96.345518 200.769517 96.677901 201.1019 
C 97.010284 201.434283 97.461155 201.62104 97.931215 201.62104 
z
" style="stroke:#000000;stroke-width:0.886227;"/>
    <path clip-path="url(#p15be734a0a)" d="M 299.014077 112.460454 
C 299.484137 112.460454 299.935008 112.273697 300.267391 111.941314 
C 300.599774 111.608931 300.78653 111.15806 300.78653 110.688 
C 300.78653 110.21794 300.599774 109.767069 300.267391 109.434686 
C 299.935008 109.102303 299.484137 108.915546 299.014077 108.915546 
C 298.544016 108.915546 298.093145 109.102303 297.760762 109.434686 
C 297.42838 109.767069 297.241623 110.21794 297.241623 110.688 
C 297.241623 111.15806 297.42838 111.608931 297.760762 111.941314 
C 298.093145 112.273697 298.544016 112.460454 299.014077 112.460454 
z
" style="stroke:#000000;stroke-width:0.886227;"/>
    <path clip-path="url(#p15be734a0a)" d="M 269.855764 133.562501 
C 270.325824 133.562501 270.776695 133.375744 271.109078 133.043361 
C 271.441461 132.710978 271.628218 132.260107 271.628218 131.790047 
C 271.628218 131.319987 271.441461 130.869116 271.109078 130.536733 
C 270.776695 130.20435 270.325824 130.017593 269.855764 130.017593 
C 269.385704 130.017593 268.934833 130.20435 268.60245 130.536733 
C 268.270067 130.869116 268.08331 131.319987 268.08331 131.790047 
C 268.08331 132.260107 268.270067 132.710978 268.60245 133.043361 
C 268.934833 133.375744 269.385704 133.562501 269.855764 133.562501 
z
" style="stroke:#000000;stroke-width:0.886227;"/>
    <path clip-path="url(#p15be734a0a)" d="M 332.773949 35.404454 
C 333.244009 35.404454 333.69488 35.217697 334.027263 34.885314 
C 334.359646 34.552931 334.546403 34.10206 334.546403 33.632 
C 334.546403 33.16194 334.359646 32.711069 334.027263 32.378686 
C 333.69488 32.046303 333.244009 31.859546 332.773949 31.859546 
C 332.303889 31.859546 331.853018 32.046303 331.520635 32.378686 
C 331.188252 32.711069 331.001495 33.16194 331.001495 33.632 
C 331.001495 34.10206 331.188252 34.552931 331.520635 34.885314 
C 331.853018 35.217697 332.303889 35.404454 332.773949 35.404454 
z
" style="stroke:#000000;stroke-width:0.886227;"/>
    <path clip-path="url(#p15be734a0a)" d="M 239.624453 247.756454 
C 240.094513 247.756454 240.545384 247.569697 240.877767 247.237314 
C 241.21015 246.904931 241.396907 246.45406 241.396907 245.984 
C 241.396907 245.51394 241.21015 245.063069 240.877767 244.730686 
C 240.545384 244.398303 240.094513 244.211546 239.624453 244.211546 
C 239.154392 244.211546 238.703521 244.398303 238.371139 244.730686 
C 238.038756 245.063069 237.851999 245.51394 237.851999 245.984 
C 237.851999 246.45406 238.038756 246.904931 238.371139 247.237314 
C 238.703521 247.569697 239.154392 247.756454 239.624453 247.756454 
z
" style="stroke:#000000;stroke-width:0.886227;"/>
   </g>
  </g>
 </g>
 <defs>
  <clipPath id="p15be734a0a">
   <rect height="266.112" width="357.12" x="43.992938" y="7.2"/>
  </clipPath>
 </defs>
</svg>
