<?xml version="1.0" encoding="utf-8" standalone="no"?>
<!DOCTYPE svg PUBLIC "-//W3C//DTD SVG 1.1//EN"
  "http://www.w3.org/Graphics/SVG/1.1/DTD/svg11.dtd">
<!-- Created with matplotlib (https://matplotlib.org/) -->
<svg height="309.024687pt" version="1.1" viewBox="0 0 408.312937 309.024687" width="408.312937pt" xmlns="http://www.w3.org/2000/svg" xmlns:xlink="http://www.w3.org/1999/xlink">
 <metadata>
  <rdf:RDF xmlns:cc="http://creativecommons.org/ns#" xmlns:dc="http://purl.org/dc/elements/1.1/" xmlns:rdf="http://www.w3.org/1999/02/22-rdf-syntax-ns#">
   <cc:Work>
    <dc:type rdf:resource="http://purl.org/dc/dcmitype/StillImage"/>
    <dc:date>2020-12-04T11:56:00.692537</dc:date>
    <dc:format>image/svg+xml</dc:format>
    <dc:creator>
     <cc:Agent>
      <dc:title>Matplotlib v3.3.2, https://matplotlib.org/</dc:title>
     </cc:Agent>
    </dc:creator>
   </cc:Work>
  </rdf:RDF>
 </metadata>
 <defs>
  <style type="text/css">*{stroke-linecap:butt;stroke-linejoin:round;}</style>
 </defs>
 <g id="figure_1">
  <g id="patch_1">
   <path d="M 0 309.024687 
L 408.312937 309.024687 
L 408.312937 0 
L 0 0 
z
" style="fill:#ffffff;stroke:#ffffff;stroke-linejoin:miter;"/>
  </g>
  <g id="axes_1">
   <g id="patch_2">
    <path d="M 43.992938 273.312 
L 401.112938 273.312 
L 401.112938 7.2 
L 43.992938 7.2 
z
" style="fill:#ebebeb;"/>
   </g>
   <g id="matplotlib.axis_1">
    <g id="xtick_1">
     <g id="line2d_1">
      <path clip-path="url(#p98c3b79532)" d="M 84.664446 273.312 
L 84.664446 7.2 
" style="fill:none;stroke:#ffffff;"/>
     </g>
     <g id="line2d_2">
      <path d="M 84.664446 273.312 
" style="fill:none;stroke:#333333;stroke-width:1.5;"/>
      <defs>
       <path d="M 0 0 
L 0 2.75 
" id="m3c910736e7" style="stroke:#000000;"/>
      </defs>
      <g>
       <use style="fill:#333333;stroke:#000000;" x="84.664446" xlink:href="#m3c910736e7" y="273.312"/>
      </g>
     </g>
     <g id="text_1">
      <!-- 7 -->
      <g style="fill:#4d4d4d;" transform="translate(81.864946 284.948625)scale(0.088 -0.088)">
       <defs>
        <path d="M 8.203125 72.90625 
L 55.078125 72.90625 
L 55.078125 68.703125 
L 28.609375 0 
L 18.3125 0 
L 43.21875 64.59375 
L 8.203125 64.59375 
z
" id="DejaVuSans-55"/>
       </defs>
       <use xlink:href="#DejaVuSans-55"/>
      </g>
     </g>
    </g>
    <g id="xtick_2">
     <g id="line2d_3">
      <path clip-path="url(#p98c3b79532)" d="M 148.63328 273.312 
L 148.63328 7.2 
" style="fill:none;stroke:#ffffff;"/>
     </g>
     <g id="line2d_4">
      <path d="M 148.63328 273.312 
" style="fill:none;stroke:#333333;stroke-width:1.5;"/>
      <g>
       <use style="fill:#333333;stroke:#000000;" x="148.63328" xlink:href="#m3c910736e7" y="273.312"/>
      </g>
     </g>
     <g id="text_2">
      <!-- 8 -->
      <g style="fill:#4d4d4d;" transform="translate(145.83378 284.948625)scale(0.088 -0.088)">
       <defs>
        <path d="M 31.78125 34.625 
Q 24.75 34.625 20.71875 30.859375 
Q 16.703125 27.09375 16.703125 20.515625 
Q 16.703125 13.921875 20.71875 10.15625 
Q 24.75 6.390625 31.78125 6.390625 
Q 38.8125 6.390625 42.859375 10.171875 
Q 46.921875 13.96875 46.921875 20.515625 
Q 46.921875 27.09375 42.890625 30.859375 
Q 38.875 34.625 31.78125 34.625 
z
M 21.921875 38.8125 
Q 15.578125 40.375 12.03125 44.71875 
Q 8.5 49.078125 8.5 55.328125 
Q 8.5 64.0625 14.71875 69.140625 
Q 20.953125 74.21875 31.78125 74.21875 
Q 42.671875 74.21875 48.875 69.140625 
Q 55.078125 64.0625 55.078125 55.328125 
Q 55.078125 49.078125 51.53125 44.71875 
Q 48 40.375 41.703125 38.8125 
Q 48.828125 37.15625 52.796875 32.3125 
Q 56.78125 27.484375 56.78125 20.515625 
Q 56.78125 9.90625 50.3125 4.234375 
Q 43.84375 -1.421875 31.78125 -1.421875 
Q 19.734375 -1.421875 13.25 4.234375 
Q 6.78125 9.90625 6.78125 20.515625 
Q 6.78125 27.484375 10.78125 32.3125 
Q 14.796875 37.15625 21.921875 38.8125 
z
M 18.3125 54.390625 
Q 18.3125 48.734375 21.84375 45.5625 
Q 25.390625 42.390625 31.78125 42.390625 
Q 38.140625 42.390625 41.71875 45.5625 
Q 45.3125 48.734375 45.3125 54.390625 
Q 45.3125 60.0625 41.71875 63.234375 
Q 38.140625 66.40625 31.78125 66.40625 
Q 25.390625 66.40625 21.84375 63.234375 
Q 18.3125 60.0625 18.3125 54.390625 
z
" id="DejaVuSans-56"/>
       </defs>
       <use xlink:href="#DejaVuSans-56"/>
      </g>
     </g>
    </g>
    <g id="xtick_3">
     <g id="line2d_5">
      <path clip-path="url(#p98c3b79532)" d="M 212.602114 273.312 
L 212.602114 7.2 
" style="fill:none;stroke:#ffffff;"/>
     </g>
     <g id="line2d_6">
      <path d="M 212.602114 273.312 
" style="fill:none;stroke:#333333;stroke-width:1.5;"/>
      <g>
       <use style="fill:#333333;stroke:#000000;" x="212.602114" xlink:href="#m3c910736e7" y="273.312"/>
      </g>
     </g>
     <g id="text_3">
      <!-- 9 -->
      <g style="fill:#4d4d4d;" transform="translate(209.802614 284.948625)scale(0.088 -0.088)">
       <defs>
        <path d="M 10.984375 1.515625 
L 10.984375 10.5 
Q 14.703125 8.734375 18.5 7.8125 
Q 22.3125 6.890625 25.984375 6.890625 
Q 35.75 6.890625 40.890625 13.453125 
Q 46.046875 20.015625 46.78125 33.40625 
Q 43.953125 29.203125 39.59375 26.953125 
Q 35.25 24.703125 29.984375 24.703125 
Q 19.046875 24.703125 12.671875 31.3125 
Q 6.296875 37.9375 6.296875 49.421875 
Q 6.296875 60.640625 12.9375 67.421875 
Q 19.578125 74.21875 30.609375 74.21875 
Q 43.265625 74.21875 49.921875 64.515625 
Q 56.59375 54.828125 56.59375 36.375 
Q 56.59375 19.140625 48.40625 8.859375 
Q 40.234375 -1.421875 26.421875 -1.421875 
Q 22.703125 -1.421875 18.890625 -0.6875 
Q 15.09375 0.046875 10.984375 1.515625 
z
M 30.609375 32.421875 
Q 37.25 32.421875 41.125 36.953125 
Q 45.015625 41.5 45.015625 49.421875 
Q 45.015625 57.28125 41.125 61.84375 
Q 37.25 66.40625 30.609375 66.40625 
Q 23.96875 66.40625 20.09375 61.84375 
Q 16.21875 57.28125 16.21875 49.421875 
Q 16.21875 41.5 20.09375 36.953125 
Q 23.96875 32.421875 30.609375 32.421875 
z
" id="DejaVuSans-57"/>
       </defs>
       <use xlink:href="#DejaVuSans-57"/>
      </g>
     </g>
    </g>
    <g id="xtick_4">
     <g id="line2d_7">
      <path clip-path="url(#p98c3b79532)" d="M 276.570948 273.312 
L 276.570948 7.2 
" style="fill:none;stroke:#ffffff;"/>
     </g>
     <g id="line2d_8">
      <path d="M 276.570948 273.312 
" style="fill:none;stroke:#333333;stroke-width:1.5;"/>
      <g>
       <use style="fill:#333333;stroke:#000000;" x="276.570948" xlink:href="#m3c910736e7" y="273.312"/>
      </g>
     </g>
     <g id="text_4">
      <!-- 10 -->
      <g style="fill:#4d4d4d;" transform="translate(270.971948 284.948625)scale(0.088 -0.088)">
       <defs>
        <path d="M 12.40625 8.296875 
L 28.515625 8.296875 
L 28.515625 63.921875 
L 10.984375 60.40625 
L 10.984375 69.390625 
L 28.421875 72.90625 
L 38.28125 72.90625 
L 38.28125 8.296875 
L 54.390625 8.296875 
L 54.390625 0 
L 12.40625 0 
z
" id="DejaVuSans-49"/>
        <path d="M 31.78125 66.40625 
Q 24.171875 66.40625 20.328125 58.90625 
Q 16.5 51.421875 16.5 36.375 
Q 16.5 21.390625 20.328125 13.890625 
Q 24.171875 6.390625 31.78125 6.390625 
Q 39.453125 6.390625 43.28125 13.890625 
Q 47.125 21.390625 47.125 36.375 
Q 47.125 51.421875 43.28125 58.90625 
Q 39.453125 66.40625 31.78125 66.40625 
z
M 31.78125 74.21875 
Q 44.046875 74.21875 50.515625 64.515625 
Q 56.984375 54.828125 56.984375 36.375 
Q 56.984375 17.96875 50.515625 8.265625 
Q 44.046875 -1.421875 31.78125 -1.421875 
Q 19.53125 -1.421875 13.0625 8.265625 
Q 6.59375 17.96875 6.59375 36.375 
Q 6.59375 54.828125 13.0625 64.515625 
Q 19.53125 74.21875 31.78125 74.21875 
z
" id="DejaVuSans-48"/>
       </defs>
       <use xlink:href="#DejaVuSans-49"/>
       <use x="63.623047" xlink:href="#DejaVuSans-48"/>
      </g>
     </g>
    </g>
    <g id="xtick_5">
     <g id="line2d_9">
      <path clip-path="url(#p98c3b79532)" d="M 340.539782 273.312 
L 340.539782 7.2 
" style="fill:none;stroke:#ffffff;"/>
     </g>
     <g id="line2d_10">
      <path d="M 340.539782 273.312 
" style="fill:none;stroke:#333333;stroke-width:1.5;"/>
      <g>
       <use style="fill:#333333;stroke:#000000;" x="340.539782" xlink:href="#m3c910736e7" y="273.312"/>
      </g>
     </g>
     <g id="text_5">
      <!-- 11 -->
      <g style="fill:#4d4d4d;" transform="translate(334.940782 284.948625)scale(0.088 -0.088)">
       <use xlink:href="#DejaVuSans-49"/>
       <use x="63.623047" xlink:href="#DejaVuSans-49"/>
      </g>
     </g>
    </g>
    <g id="xtick_6">
     <g id="line2d_11">
      <path clip-path="url(#p98c3b79532)" d="M 52.680029 273.312 
L 52.680029 7.2 
" style="fill:none;stroke:#ffffff;stroke-width:0.5;"/>
     </g>
    </g>
    <g id="xtick_7">
     <g id="line2d_12">
      <path clip-path="url(#p98c3b79532)" d="M 116.648863 273.312 
L 116.648863 7.2 
" style="fill:none;stroke:#ffffff;stroke-width:0.5;"/>
     </g>
    </g>
    <g id="xtick_8">
     <g id="line2d_13">
      <path clip-path="url(#p98c3b79532)" d="M 180.617697 273.312 
L 180.617697 7.2 
" style="fill:none;stroke:#ffffff;stroke-width:0.5;"/>
     </g>
    </g>
    <g id="xtick_9">
     <g id="line2d_14">
      <path clip-path="url(#p98c3b79532)" d="M 244.586531 273.312 
L 244.586531 7.2 
" style="fill:none;stroke:#ffffff;stroke-width:0.5;"/>
     </g>
    </g>
    <g id="xtick_10">
     <g id="line2d_15">
      <path clip-path="url(#p98c3b79532)" d="M 308.555365 273.312 
L 308.555365 7.2 
" style="fill:none;stroke:#ffffff;stroke-width:0.5;"/>
     </g>
    </g>
    <g id="xtick_11">
     <g id="line2d_16">
      <path clip-path="url(#p98c3b79532)" d="M 372.524199 273.312 
L 372.524199 7.2 
" style="fill:none;stroke:#ffffff;stroke-width:0.5;"/>
     </g>
    </g>
    <g id="text_6">
     <!-- Log GDP per Capita (PPP) in 2015 -->
     <g transform="translate(124.520984 299.537031)scale(0.11 -0.11)">
      <defs>
       <path d="M 9.8125 72.90625 
L 19.671875 72.90625 
L 19.671875 8.296875 
L 55.171875 8.296875 
L 55.171875 0 
L 9.8125 0 
z
" id="DejaVuSans-76"/>
       <path d="M 30.609375 48.390625 
Q 23.390625 48.390625 19.1875 42.75 
Q 14.984375 37.109375 14.984375 27.296875 
Q 14.984375 17.484375 19.15625 11.84375 
Q 23.34375 6.203125 30.609375 6.203125 
Q 37.796875 6.203125 41.984375 11.859375 
Q 46.1875 17.53125 46.1875 27.296875 
Q 46.1875 37.015625 41.984375 42.703125 
Q 37.796875 48.390625 30.609375 48.390625 
z
M 30.609375 56 
Q 42.328125 56 49.015625 48.375 
Q 55.71875 40.765625 55.71875 27.296875 
Q 55.71875 13.875 49.015625 6.21875 
Q 42.328125 -1.421875 30.609375 -1.421875 
Q 18.84375 -1.421875 12.171875 6.21875 
Q 5.515625 13.875 5.515625 27.296875 
Q 5.515625 40.765625 12.171875 48.375 
Q 18.84375 56 30.609375 56 
z
" id="DejaVuSans-111"/>
       <path d="M 45.40625 27.984375 
Q 45.40625 37.75 41.375 43.109375 
Q 37.359375 48.484375 30.078125 48.484375 
Q 22.859375 48.484375 18.828125 43.109375 
Q 14.796875 37.75 14.796875 27.984375 
Q 14.796875 18.265625 18.828125 12.890625 
Q 22.859375 7.515625 30.078125 7.515625 
Q 37.359375 7.515625 41.375 12.890625 
Q 45.40625 18.265625 45.40625 27.984375 
z
M 54.390625 6.78125 
Q 54.390625 -7.171875 48.1875 -13.984375 
Q 42 -20.796875 29.203125 -20.796875 
Q 24.46875 -20.796875 20.265625 -20.09375 
Q 16.0625 -19.390625 12.109375 -17.921875 
L 12.109375 -9.1875 
Q 16.0625 -11.328125 19.921875 -12.34375 
Q 23.78125 -13.375 27.78125 -13.375 
Q 36.625 -13.375 41.015625 -8.765625 
Q 45.40625 -4.15625 45.40625 5.171875 
L 45.40625 9.625 
Q 42.625 4.78125 38.28125 2.390625 
Q 33.9375 0 27.875 0 
Q 17.828125 0 11.671875 7.65625 
Q 5.515625 15.328125 5.515625 27.984375 
Q 5.515625 40.671875 11.671875 48.328125 
Q 17.828125 56 27.875 56 
Q 33.9375 56 38.28125 53.609375 
Q 42.625 51.21875 45.40625 46.390625 
L 45.40625 54.6875 
L 54.390625 54.6875 
z
" id="DejaVuSans-103"/>
       <path id="DejaVuSans-32"/>
       <path d="M 59.515625 10.40625 
L 59.515625 29.984375 
L 43.40625 29.984375 
L 43.40625 38.09375 
L 69.28125 38.09375 
L 69.28125 6.78125 
Q 63.578125 2.734375 56.6875 0.65625 
Q 49.8125 -1.421875 42 -1.421875 
Q 24.90625 -1.421875 15.25 8.5625 
Q 5.609375 18.5625 5.609375 36.375 
Q 5.609375 54.25 15.25 64.234375 
Q 24.90625 74.21875 42 74.21875 
Q 49.125 74.21875 55.546875 72.453125 
Q 61.96875 70.703125 67.390625 67.28125 
L 67.390625 56.78125 
Q 61.921875 61.421875 55.765625 63.765625 
Q 49.609375 66.109375 42.828125 66.109375 
Q 29.4375 66.109375 22.71875 58.640625 
Q 16.015625 51.171875 16.015625 36.375 
Q 16.015625 21.625 22.71875 14.15625 
Q 29.4375 6.6875 42.828125 6.6875 
Q 48.046875 6.6875 52.140625 7.59375 
Q 56.25 8.5 59.515625 10.40625 
z
" id="DejaVuSans-71"/>
       <path d="M 19.671875 64.796875 
L 19.671875 8.109375 
L 31.59375 8.109375 
Q 46.6875 8.109375 53.6875 14.9375 
Q 60.6875 21.78125 60.6875 36.53125 
Q 60.6875 51.171875 53.6875 57.984375 
Q 46.6875 64.796875 31.59375 64.796875 
z
M 9.8125 72.90625 
L 30.078125 72.90625 
Q 51.265625 72.90625 61.171875 64.09375 
Q 71.09375 55.28125 71.09375 36.53125 
Q 71.09375 17.671875 61.125 8.828125 
Q 51.171875 0 30.078125 0 
L 9.8125 0 
z
" id="DejaVuSans-68"/>
       <path d="M 19.671875 64.796875 
L 19.671875 37.40625 
L 32.078125 37.40625 
Q 38.96875 37.40625 42.71875 40.96875 
Q 46.484375 44.53125 46.484375 51.125 
Q 46.484375 57.671875 42.71875 61.234375 
Q 38.96875 64.796875 32.078125 64.796875 
z
M 9.8125 72.90625 
L 32.078125 72.90625 
Q 44.34375 72.90625 50.609375 67.359375 
Q 56.890625 61.8125 56.890625 51.125 
Q 56.890625 40.328125 50.609375 34.8125 
Q 44.34375 29.296875 32.078125 29.296875 
L 19.671875 29.296875 
L 19.671875 0 
L 9.8125 0 
z
" id="DejaVuSans-80"/>
       <path d="M 18.109375 8.203125 
L 18.109375 -20.796875 
L 9.078125 -20.796875 
L 9.078125 54.6875 
L 18.109375 54.6875 
L 18.109375 46.390625 
Q 20.953125 51.265625 25.265625 53.625 
Q 29.59375 56 35.59375 56 
Q 45.5625 56 51.78125 48.09375 
Q 58.015625 40.1875 58.015625 27.296875 
Q 58.015625 14.40625 51.78125 6.484375 
Q 45.5625 -1.421875 35.59375 -1.421875 
Q 29.59375 -1.421875 25.265625 0.953125 
Q 20.953125 3.328125 18.109375 8.203125 
z
M 48.6875 27.296875 
Q 48.6875 37.203125 44.609375 42.84375 
Q 40.53125 48.484375 33.40625 48.484375 
Q 26.265625 48.484375 22.1875 42.84375 
Q 18.109375 37.203125 18.109375 27.296875 
Q 18.109375 17.390625 22.1875 11.75 
Q 26.265625 6.109375 33.40625 6.109375 
Q 40.53125 6.109375 44.609375 11.75 
Q 48.6875 17.390625 48.6875 27.296875 
z
" id="DejaVuSans-112"/>
       <path d="M 56.203125 29.59375 
L 56.203125 25.203125 
L 14.890625 25.203125 
Q 15.484375 15.921875 20.484375 11.0625 
Q 25.484375 6.203125 34.421875 6.203125 
Q 39.59375 6.203125 44.453125 7.46875 
Q 49.3125 8.734375 54.109375 11.28125 
L 54.109375 2.78125 
Q 49.265625 0.734375 44.1875 -0.34375 
Q 39.109375 -1.421875 33.890625 -1.421875 
Q 20.796875 -1.421875 13.15625 6.1875 
Q 5.515625 13.8125 5.515625 26.8125 
Q 5.515625 40.234375 12.765625 48.109375 
Q 20.015625 56 32.328125 56 
Q 43.359375 56 49.78125 48.890625 
Q 56.203125 41.796875 56.203125 29.59375 
z
M 47.21875 32.234375 
Q 47.125 39.59375 43.09375 43.984375 
Q 39.0625 48.390625 32.421875 48.390625 
Q 24.90625 48.390625 20.390625 44.140625 
Q 15.875 39.890625 15.1875 32.171875 
z
" id="DejaVuSans-101"/>
       <path d="M 41.109375 46.296875 
Q 39.59375 47.171875 37.8125 47.578125 
Q 36.03125 48 33.890625 48 
Q 26.265625 48 22.1875 43.046875 
Q 18.109375 38.09375 18.109375 28.8125 
L 18.109375 0 
L 9.078125 0 
L 9.078125 54.6875 
L 18.109375 54.6875 
L 18.109375 46.1875 
Q 20.953125 51.171875 25.484375 53.578125 
Q 30.03125 56 36.53125 56 
Q 37.453125 56 38.578125 55.875 
Q 39.703125 55.765625 41.0625 55.515625 
z
" id="DejaVuSans-114"/>
       <path d="M 64.40625 67.28125 
L 64.40625 56.890625 
Q 59.421875 61.53125 53.78125 63.8125 
Q 48.140625 66.109375 41.796875 66.109375 
Q 29.296875 66.109375 22.65625 58.46875 
Q 16.015625 50.828125 16.015625 36.375 
Q 16.015625 21.96875 22.65625 14.328125 
Q 29.296875 6.6875 41.796875 6.6875 
Q 48.140625 6.6875 53.78125 8.984375 
Q 59.421875 11.28125 64.40625 15.921875 
L 64.40625 5.609375 
Q 59.234375 2.09375 53.4375 0.328125 
Q 47.65625 -1.421875 41.21875 -1.421875 
Q 24.65625 -1.421875 15.125 8.703125 
Q 5.609375 18.84375 5.609375 36.375 
Q 5.609375 53.953125 15.125 64.078125 
Q 24.65625 74.21875 41.21875 74.21875 
Q 47.75 74.21875 53.53125 72.484375 
Q 59.328125 70.75 64.40625 67.28125 
z
" id="DejaVuSans-67"/>
       <path d="M 34.28125 27.484375 
Q 23.390625 27.484375 19.1875 25 
Q 14.984375 22.515625 14.984375 16.5 
Q 14.984375 11.71875 18.140625 8.90625 
Q 21.296875 6.109375 26.703125 6.109375 
Q 34.1875 6.109375 38.703125 11.40625 
Q 43.21875 16.703125 43.21875 25.484375 
L 43.21875 27.484375 
z
M 52.203125 31.203125 
L 52.203125 0 
L 43.21875 0 
L 43.21875 8.296875 
Q 40.140625 3.328125 35.546875 0.953125 
Q 30.953125 -1.421875 24.3125 -1.421875 
Q 15.921875 -1.421875 10.953125 3.296875 
Q 6 8.015625 6 15.921875 
Q 6 25.140625 12.171875 29.828125 
Q 18.359375 34.515625 30.609375 34.515625 
L 43.21875 34.515625 
L 43.21875 35.40625 
Q 43.21875 41.609375 39.140625 45 
Q 35.0625 48.390625 27.6875 48.390625 
Q 23 48.390625 18.546875 47.265625 
Q 14.109375 46.140625 10.015625 43.890625 
L 10.015625 52.203125 
Q 14.9375 54.109375 19.578125 55.046875 
Q 24.21875 56 28.609375 56 
Q 40.484375 56 46.34375 49.84375 
Q 52.203125 43.703125 52.203125 31.203125 
z
" id="DejaVuSans-97"/>
       <path d="M 9.421875 54.6875 
L 18.40625 54.6875 
L 18.40625 0 
L 9.421875 0 
z
M 9.421875 75.984375 
L 18.40625 75.984375 
L 18.40625 64.59375 
L 9.421875 64.59375 
z
" id="DejaVuSans-105"/>
       <path d="M 18.3125 70.21875 
L 18.3125 54.6875 
L 36.8125 54.6875 
L 36.8125 47.703125 
L 18.3125 47.703125 
L 18.3125 18.015625 
Q 18.3125 11.328125 20.140625 9.421875 
Q 21.96875 7.515625 27.59375 7.515625 
L 36.8125 7.515625 
L 36.8125 0 
L 27.59375 0 
Q 17.1875 0 13.234375 3.875 
Q 9.28125 7.765625 9.28125 18.015625 
L 9.28125 47.703125 
L 2.6875 47.703125 
L 2.6875 54.6875 
L 9.28125 54.6875 
L 9.28125 70.21875 
z
" id="DejaVuSans-116"/>
       <path d="M 31 75.875 
Q 24.46875 64.65625 21.28125 53.65625 
Q 18.109375 42.671875 18.109375 31.390625 
Q 18.109375 20.125 21.3125 9.0625 
Q 24.515625 -2 31 -13.1875 
L 23.1875 -13.1875 
Q 15.875 -1.703125 12.234375 9.375 
Q 8.59375 20.453125 8.59375 31.390625 
Q 8.59375 42.28125 12.203125 53.3125 
Q 15.828125 64.359375 23.1875 75.875 
z
" id="DejaVuSans-40"/>
       <path d="M 8.015625 75.875 
L 15.828125 75.875 
Q 23.140625 64.359375 26.78125 53.3125 
Q 30.421875 42.28125 30.421875 31.390625 
Q 30.421875 20.453125 26.78125 9.375 
Q 23.140625 -1.703125 15.828125 -13.1875 
L 8.015625 -13.1875 
Q 14.5 -2 17.703125 9.0625 
Q 20.90625 20.125 20.90625 31.390625 
Q 20.90625 42.671875 17.703125 53.65625 
Q 14.5 64.65625 8.015625 75.875 
z
" id="DejaVuSans-41"/>
       <path d="M 54.890625 33.015625 
L 54.890625 0 
L 45.90625 0 
L 45.90625 32.71875 
Q 45.90625 40.484375 42.875 44.328125 
Q 39.84375 48.1875 33.796875 48.1875 
Q 26.515625 48.1875 22.3125 43.546875 
Q 18.109375 38.921875 18.109375 30.90625 
L 18.109375 0 
L 9.078125 0 
L 9.078125 54.6875 
L 18.109375 54.6875 
L 18.109375 46.1875 
Q 21.34375 51.125 25.703125 53.5625 
Q 30.078125 56 35.796875 56 
Q 45.21875 56 50.046875 50.171875 
Q 54.890625 44.34375 54.890625 33.015625 
z
" id="DejaVuSans-110"/>
       <path d="M 19.1875 8.296875 
L 53.609375 8.296875 
L 53.609375 0 
L 7.328125 0 
L 7.328125 8.296875 
Q 12.9375 14.109375 22.625 23.890625 
Q 32.328125 33.6875 34.8125 36.53125 
Q 39.546875 41.84375 41.421875 45.53125 
Q 43.3125 49.21875 43.3125 52.78125 
Q 43.3125 58.59375 39.234375 62.25 
Q 35.15625 65.921875 28.609375 65.921875 
Q 23.96875 65.921875 18.8125 64.3125 
Q 13.671875 62.703125 7.8125 59.421875 
L 7.8125 69.390625 
Q 13.765625 71.78125 18.9375 73 
Q 24.125 74.21875 28.421875 74.21875 
Q 39.75 74.21875 46.484375 68.546875 
Q 53.21875 62.890625 53.21875 53.421875 
Q 53.21875 48.921875 51.53125 44.890625 
Q 49.859375 40.875 45.40625 35.40625 
Q 44.1875 33.984375 37.640625 27.21875 
Q 31.109375 20.453125 19.1875 8.296875 
z
" id="DejaVuSans-50"/>
       <path d="M 10.796875 72.90625 
L 49.515625 72.90625 
L 49.515625 64.59375 
L 19.828125 64.59375 
L 19.828125 46.734375 
Q 21.96875 47.46875 24.109375 47.828125 
Q 26.265625 48.1875 28.421875 48.1875 
Q 40.625 48.1875 47.75 41.5 
Q 54.890625 34.8125 54.890625 23.390625 
Q 54.890625 11.625 47.5625 5.09375 
Q 40.234375 -1.421875 26.90625 -1.421875 
Q 22.3125 -1.421875 17.546875 -0.640625 
Q 12.796875 0.140625 7.71875 1.703125 
L 7.71875 11.625 
Q 12.109375 9.234375 16.796875 8.0625 
Q 21.484375 6.890625 26.703125 6.890625 
Q 35.15625 6.890625 40.078125 11.328125 
Q 45.015625 15.765625 45.015625 23.390625 
Q 45.015625 31 40.078125 35.4375 
Q 35.15625 39.890625 26.703125 39.890625 
Q 22.75 39.890625 18.8125 39.015625 
Q 14.890625 38.140625 10.796875 36.28125 
z
" id="DejaVuSans-53"/>
      </defs>
      <use xlink:href="#DejaVuSans-76"/>
      <use x="53.962891" xlink:href="#DejaVuSans-111"/>
      <use x="115.144531" xlink:href="#DejaVuSans-103"/>
      <use x="178.621094" xlink:href="#DejaVuSans-32"/>
      <use x="210.408203" xlink:href="#DejaVuSans-71"/>
      <use x="287.898438" xlink:href="#DejaVuSans-68"/>
      <use x="364.900391" xlink:href="#DejaVuSans-80"/>
      <use x="425.203125" xlink:href="#DejaVuSans-32"/>
      <use x="456.990234" xlink:href="#DejaVuSans-112"/>
      <use x="520.466797" xlink:href="#DejaVuSans-101"/>
      <use x="581.990234" xlink:href="#DejaVuSans-114"/>
      <use x="623.103516" xlink:href="#DejaVuSans-32"/>
      <use x="654.890625" xlink:href="#DejaVuSans-67"/>
      <use x="724.714844" xlink:href="#DejaVuSans-97"/>
      <use x="785.994141" xlink:href="#DejaVuSans-112"/>
      <use x="849.470703" xlink:href="#DejaVuSans-105"/>
      <use x="877.253906" xlink:href="#DejaVuSans-116"/>
      <use x="916.462891" xlink:href="#DejaVuSans-97"/>
      <use x="977.742188" xlink:href="#DejaVuSans-32"/>
      <use x="1009.529297" xlink:href="#DejaVuSans-40"/>
      <use x="1048.542969" xlink:href="#DejaVuSans-80"/>
      <use x="1108.845703" xlink:href="#DejaVuSans-80"/>
      <use x="1169.148438" xlink:href="#DejaVuSans-80"/>
      <use x="1229.451172" xlink:href="#DejaVuSans-41"/>
      <use x="1268.464844" xlink:href="#DejaVuSans-32"/>
      <use x="1300.251953" xlink:href="#DejaVuSans-105"/>
      <use x="1328.035156" xlink:href="#DejaVuSans-110"/>
      <use x="1391.414062" xlink:href="#DejaVuSans-32"/>
      <use x="1423.201172" xlink:href="#DejaVuSans-50"/>
      <use x="1486.824219" xlink:href="#DejaVuSans-48"/>
      <use x="1550.447266" xlink:href="#DejaVuSans-49"/>
      <use x="1614.070312" xlink:href="#DejaVuSans-53"/>
     </g>
    </g>
   </g>
   <g id="matplotlib.axis_2">
    <g id="ytick_1">
     <g id="line2d_17">
      <path clip-path="url(#p98c3b79532)" d="M 43.992938 223.846244 
L 401.112938 223.846244 
" style="fill:none;stroke:#ffffff;"/>
     </g>
     <g id="line2d_18">
      <path d="M 43.992938 223.846244 
" style="fill:none;stroke:#333333;stroke-width:1.5;"/>
      <defs>
       <path d="M 0 0 
L -2.75 0 
" id="m1ea7848ae7" style="stroke:#000000;"/>
      </defs>
      <g>
       <use style="fill:#333333;stroke:#000000;" x="43.992938" xlink:href="#m1ea7848ae7" y="223.846244"/>
      </g>
     </g>
     <g id="text_7">
      <!-- 300 -->
      <g style="fill:#4d4d4d;" transform="translate(22.245938 226.274494)scale(0.088 -0.088)">
       <defs>
        <path d="M 40.578125 39.3125 
Q 47.65625 37.796875 51.625 33 
Q 55.609375 28.21875 55.609375 21.1875 
Q 55.609375 10.40625 48.1875 4.484375 
Q 40.765625 -1.421875 27.09375 -1.421875 
Q 22.515625 -1.421875 17.65625 -0.515625 
Q 12.796875 0.390625 7.625 2.203125 
L 7.625 11.71875 
Q 11.71875 9.328125 16.59375 8.109375 
Q 21.484375 6.890625 26.8125 6.890625 
Q 36.078125 6.890625 40.9375 10.546875 
Q 45.796875 14.203125 45.796875 21.1875 
Q 45.796875 27.640625 41.28125 31.265625 
Q 36.765625 34.90625 28.71875 34.90625 
L 20.21875 34.90625 
L 20.21875 43.015625 
L 29.109375 43.015625 
Q 36.375 43.015625 40.234375 45.921875 
Q 44.09375 48.828125 44.09375 54.296875 
Q 44.09375 59.90625 40.109375 62.90625 
Q 36.140625 65.921875 28.71875 65.921875 
Q 24.65625 65.921875 20.015625 65.03125 
Q 15.375 64.15625 9.8125 62.3125 
L 9.8125 71.09375 
Q 15.4375 72.65625 20.34375 73.4375 
Q 25.25 74.21875 29.59375 74.21875 
Q 40.828125 74.21875 47.359375 69.109375 
Q 53.90625 64.015625 53.90625 55.328125 
Q 53.90625 49.265625 50.4375 45.09375 
Q 46.96875 40.921875 40.578125 39.3125 
z
" id="DejaVuSans-51"/>
       </defs>
       <use xlink:href="#DejaVuSans-51"/>
       <use x="63.623047" xlink:href="#DejaVuSans-48"/>
       <use x="127.246094" xlink:href="#DejaVuSans-48"/>
      </g>
     </g>
    </g>
    <g id="ytick_2">
     <g id="line2d_19">
      <path clip-path="url(#p98c3b79532)" d="M 43.992938 158.285268 
L 401.112938 158.285268 
" style="fill:none;stroke:#ffffff;"/>
     </g>
     <g id="line2d_20">
      <path d="M 43.992938 158.285268 
" style="fill:none;stroke:#333333;stroke-width:1.5;"/>
      <g>
       <use style="fill:#333333;stroke:#000000;" x="43.992938" xlink:href="#m1ea7848ae7" y="158.285268"/>
      </g>
     </g>
     <g id="text_8">
      <!-- 400 -->
      <g style="fill:#4d4d4d;" transform="translate(22.245938 160.713518)scale(0.088 -0.088)">
       <defs>
        <path d="M 37.796875 64.3125 
L 12.890625 25.390625 
L 37.796875 25.390625 
z
M 35.203125 72.90625 
L 47.609375 72.90625 
L 47.609375 25.390625 
L 58.015625 25.390625 
L 58.015625 17.1875 
L 47.609375 17.1875 
L 47.609375 0 
L 37.796875 0 
L 37.796875 17.1875 
L 4.890625 17.1875 
L 4.890625 26.703125 
z
" id="DejaVuSans-52"/>
       </defs>
       <use xlink:href="#DejaVuSans-52"/>
       <use x="63.623047" xlink:href="#DejaVuSans-48"/>
       <use x="127.246094" xlink:href="#DejaVuSans-48"/>
      </g>
     </g>
    </g>
    <g id="ytick_3">
     <g id="line2d_21">
      <path clip-path="url(#p98c3b79532)" d="M 43.992938 92.724293 
L 401.112938 92.724293 
" style="fill:none;stroke:#ffffff;"/>
     </g>
     <g id="line2d_22">
      <path d="M 43.992938 92.724293 
" style="fill:none;stroke:#333333;stroke-width:1.5;"/>
      <g>
       <use style="fill:#333333;stroke:#000000;" x="43.992938" xlink:href="#m1ea7848ae7" y="92.724293"/>
      </g>
     </g>
     <g id="text_9">
      <!-- 500 -->
      <g style="fill:#4d4d4d;" transform="translate(22.245938 95.152543)scale(0.088 -0.088)">
       <use xlink:href="#DejaVuSans-53"/>
       <use x="63.623047" xlink:href="#DejaVuSans-48"/>
       <use x="127.246094" xlink:href="#DejaVuSans-48"/>
      </g>
     </g>
    </g>
    <g id="ytick_4">
     <g id="line2d_23">
      <path clip-path="url(#p98c3b79532)" d="M 43.992938 27.163317 
L 401.112938 27.163317 
" style="fill:none;stroke:#ffffff;"/>
     </g>
     <g id="line2d_24">
      <path d="M 43.992938 27.163317 
" style="fill:none;stroke:#333333;stroke-width:1.5;"/>
      <g>
       <use style="fill:#333333;stroke:#000000;" x="43.992938" xlink:href="#m1ea7848ae7" y="27.163317"/>
      </g>
     </g>
     <g id="text_10">
      <!-- 600 -->
      <g style="fill:#4d4d4d;" transform="translate(22.245938 29.591567)scale(0.088 -0.088)">
       <defs>
        <path d="M 33.015625 40.375 
Q 26.375 40.375 22.484375 35.828125 
Q 18.609375 31.296875 18.609375 23.390625 
Q 18.609375 15.53125 22.484375 10.953125 
Q 26.375 6.390625 33.015625 6.390625 
Q 39.65625 6.390625 43.53125 10.953125 
Q 47.40625 15.53125 47.40625 23.390625 
Q 47.40625 31.296875 43.53125 35.828125 
Q 39.65625 40.375 33.015625 40.375 
z
M 52.59375 71.296875 
L 52.59375 62.3125 
Q 48.875 64.0625 45.09375 64.984375 
Q 41.3125 65.921875 37.59375 65.921875 
Q 27.828125 65.921875 22.671875 59.328125 
Q 17.53125 52.734375 16.796875 39.40625 
Q 19.671875 43.65625 24.015625 45.921875 
Q 28.375 48.1875 33.59375 48.1875 
Q 44.578125 48.1875 50.953125 41.515625 
Q 57.328125 34.859375 57.328125 23.390625 
Q 57.328125 12.15625 50.6875 5.359375 
Q 44.046875 -1.421875 33.015625 -1.421875 
Q 20.359375 -1.421875 13.671875 8.265625 
Q 6.984375 17.96875 6.984375 36.375 
Q 6.984375 53.65625 15.1875 63.9375 
Q 23.390625 74.21875 37.203125 74.21875 
Q 40.921875 74.21875 44.703125 73.484375 
Q 48.484375 72.75 52.59375 71.296875 
z
" id="DejaVuSans-54"/>
       </defs>
       <use xlink:href="#DejaVuSans-54"/>
       <use x="63.623047" xlink:href="#DejaVuSans-48"/>
       <use x="127.246094" xlink:href="#DejaVuSans-48"/>
      </g>
     </g>
    </g>
    <g id="ytick_5">
     <g id="line2d_25">
      <path clip-path="url(#p98c3b79532)" d="M 43.992938 256.626732 
L 401.112938 256.626732 
" style="fill:none;stroke:#ffffff;stroke-width:0.5;"/>
     </g>
    </g>
    <g id="ytick_6">
     <g id="line2d_26">
      <path clip-path="url(#p98c3b79532)" d="M 43.992938 191.065756 
L 401.112938 191.065756 
" style="fill:none;stroke:#ffffff;stroke-width:0.5;"/>
     </g>
    </g>
    <g id="ytick_7">
     <g id="line2d_27">
      <path clip-path="url(#p98c3b79532)" d="M 43.992938 125.50478 
L 401.112938 125.50478 
" style="fill:none;stroke:#ffffff;stroke-width:0.5;"/>
     </g>
    </g>
    <g id="ytick_8">
     <g id="line2d_28">
      <path clip-path="url(#p98c3b79532)" d="M 43.992938 59.943805 
L 401.112938 59.943805 
" style="fill:none;stroke:#ffffff;stroke-width:0.5;"/>
     </g>
    </g>
    <g id="text_11">
     <!-- TIMSS -->
     <g transform="translate(15.558281 155.238547)rotate(-90)scale(0.11 -0.11)">
      <defs>
       <path d="M -0.296875 72.90625 
L 61.375 72.90625 
L 61.375 64.59375 
L 35.5 64.59375 
L 35.5 0 
L 25.59375 0 
L 25.59375 64.59375 
L -0.296875 64.59375 
z
" id="DejaVuSans-84"/>
       <path d="M 9.8125 72.90625 
L 19.671875 72.90625 
L 19.671875 0 
L 9.8125 0 
z
" id="DejaVuSans-73"/>
       <path d="M 9.8125 72.90625 
L 24.515625 72.90625 
L 43.109375 23.296875 
L 61.8125 72.90625 
L 76.515625 72.90625 
L 76.515625 0 
L 66.890625 0 
L 66.890625 64.015625 
L 48.09375 14.015625 
L 38.1875 14.015625 
L 19.390625 64.015625 
L 19.390625 0 
L 9.8125 0 
z
" id="DejaVuSans-77"/>
       <path d="M 53.515625 70.515625 
L 53.515625 60.890625 
Q 47.90625 63.578125 42.921875 64.890625 
Q 37.9375 66.21875 33.296875 66.21875 
Q 25.25 66.21875 20.875 63.09375 
Q 16.5 59.96875 16.5 54.203125 
Q 16.5 49.359375 19.40625 46.890625 
Q 22.3125 44.4375 30.421875 42.921875 
L 36.375 41.703125 
Q 47.40625 39.59375 52.65625 34.296875 
Q 57.90625 29 57.90625 20.125 
Q 57.90625 9.515625 50.796875 4.046875 
Q 43.703125 -1.421875 29.984375 -1.421875 
Q 24.8125 -1.421875 18.96875 -0.25 
Q 13.140625 0.921875 6.890625 3.21875 
L 6.890625 13.375 
Q 12.890625 10.015625 18.65625 8.296875 
Q 24.421875 6.59375 29.984375 6.59375 
Q 38.421875 6.59375 43.015625 9.90625 
Q 47.609375 13.234375 47.609375 19.390625 
Q 47.609375 24.75 44.3125 27.78125 
Q 41.015625 30.8125 33.5 32.328125 
L 27.484375 33.5 
Q 16.453125 35.6875 11.515625 40.375 
Q 6.59375 45.0625 6.59375 53.421875 
Q 6.59375 63.09375 13.40625 68.65625 
Q 20.21875 74.21875 32.171875 74.21875 
Q 37.3125 74.21875 42.625 73.28125 
Q 47.953125 72.359375 53.515625 70.515625 
z
" id="DejaVuSans-83"/>
      </defs>
      <use xlink:href="#DejaVuSans-84"/>
      <use x="61.083984" xlink:href="#DejaVuSans-73"/>
      <use x="90.576172" xlink:href="#DejaVuSans-77"/>
      <use x="176.855469" xlink:href="#DejaVuSans-83"/>
      <use x="240.332031" xlink:href="#DejaVuSans-83"/>
     </g>
    </g>
   </g>
   <g id="PathCollection_1">
    <path clip-path="url(#p98c3b79532)" d="M 346.747116 135.800161 
C 347.217176 135.800161 347.668047 135.613404 348.00043 135.281021 
C 348.332813 134.948639 348.51957 134.497768 348.51957 134.027707 
C 348.51957 133.557647 348.332813 133.106776 348.00043 132.774393 
C 347.668047 132.44201 347.217176 132.255253 346.747116 132.255253 
C 346.277056 132.255253 345.826185 132.44201 345.493802 132.774393 
C 345.161419 133.106776 344.974662 133.557647 344.974662 134.027707 
C 344.974662 134.497768 345.161419 134.948639 345.493802 135.281021 
C 345.826185 135.613404 346.277056 135.800161 346.747116 135.800161 
z
" style="stroke:#000000;stroke-width:0.886227;"/>
    <path clip-path="url(#p98c3b79532)" d="M 267.456127 155.696241 
C 267.926187 155.696241 268.377058 155.509484 268.709441 155.177101 
C 269.041824 154.844718 269.228581 154.393847 269.228581 153.923787 
C 269.228581 153.453727 269.041824 153.002855 268.709441 152.670473 
C 268.377058 152.33809 267.926187 152.151333 267.456127 152.151333 
C 266.986067 152.151333 266.535196 152.33809 266.202813 152.670473 
C 265.87043 153.002855 265.683673 153.453727 265.683673 153.923787 
C 265.683673 154.393847 265.87043 154.844718 266.202813 155.177101 
C 266.535196 155.509484 266.986067 155.696241 267.456127 155.696241 
z
" style="stroke:#000000;stroke-width:0.886227;"/>
    <path clip-path="url(#p98c3b79532)" d="M 213.330937 124.654795 
C 213.800998 124.654795 214.251869 124.468038 214.584251 124.135656 
C 214.916634 123.803273 215.103391 123.352402 215.103391 122.882341 
C 215.103391 122.412281 214.916634 121.96141 214.584251 121.629027 
C 214.251869 121.296645 213.800998 121.109888 213.330937 121.109888 
C 212.860877 121.109888 212.410006 121.296645 212.077623 121.629027 
C 211.74524 121.96141 211.558483 122.412281 211.558483 122.882341 
C 211.558483 123.352402 211.74524 123.803273 212.077623 124.135656 
C 212.410006 124.468038 212.860877 124.654795 213.330937 124.654795 
z
" style="stroke:#000000;stroke-width:0.886227;"/>
    <path clip-path="url(#p98c3b79532)" d="M 320.424753 81.384551 
C 320.894814 81.384551 321.345685 81.197794 321.678068 80.865412 
C 322.01045 80.533029 322.197207 80.082158 322.197207 79.612098 
C 322.197207 79.142037 322.01045 78.691166 321.678068 78.358783 
C 321.345685 78.026401 320.894814 77.839644 320.424753 77.839644 
C 319.954693 77.839644 319.503822 78.026401 319.171439 78.358783 
C 318.839056 78.691166 318.6523 79.142037 318.6523 79.612098 
C 318.6523 80.082158 318.839056 80.533029 319.171439 80.865412 
C 319.503822 81.197794 319.954693 81.384551 320.424753 81.384551 
z
" style="stroke:#000000;stroke-width:0.886227;"/>
    <path clip-path="url(#p98c3b79532)" d="M 321.346276 87.285039 
C 321.816336 87.285039 322.267207 87.098282 322.59959 86.7659 
C 322.931973 86.433517 323.11873 85.982646 323.11873 85.512585 
C 323.11873 85.042525 322.931973 84.591654 322.59959 84.259271 
C 322.267207 83.926888 321.816336 83.740132 321.346276 83.740132 
C 320.876216 83.740132 320.425345 83.926888 320.092962 84.259271 
C 319.760579 84.591654 319.573822 85.042525 319.573822 85.512585 
C 319.573822 85.982646 319.760579 86.433517 320.092962 86.7659 
C 320.425345 87.098282 320.876216 87.285039 321.346276 87.285039 
z
" style="stroke:#000000;stroke-width:0.886227;"/>
    <path clip-path="url(#p98c3b79532)" d="M 258.857719 117.443088 
C 259.327779 117.443088 259.77865 117.256331 260.111033 116.923948 
C 260.443416 116.591565 260.630173 116.140694 260.630173 115.670634 
C 260.630173 115.200574 260.443416 114.749703 260.111033 114.41732 
C 259.77865 114.084937 259.327779 113.89818 258.857719 113.89818 
C 258.387658 113.89818 257.936787 114.084937 257.604405 114.41732 
C 257.272022 114.749703 257.085265 115.200574 257.085265 115.670634 
C 257.085265 116.140694 257.272022 116.591565 257.604405 116.923948 
C 257.936787 117.256331 258.387658 117.443088 258.857719 117.443088 
z
" style="stroke:#000000;stroke-width:0.886227;"/>
    <path clip-path="url(#p98c3b79532)" d="M 60.225665 109.589896 
C 60.695725 109.589896 61.146596 109.403139 61.478979 109.070757 
C 61.811362 108.738374 61.998119 108.287503 61.998119 107.817442 
C 61.998119 107.347382 61.811362 106.896511 61.478979 106.564128 
C 61.146596 106.231746 60.695725 106.044989 60.225665 106.044989 
C 59.755605 106.044989 59.304733 106.231746 58.972351 106.564128 
C 58.639968 106.896511 58.453211 107.347382 58.453211 107.817442 
C 58.453211 108.287503 58.639968 108.738374 58.972351 109.070757 
C 59.304733 109.403139 59.755605 109.589896 60.225665 109.589896 
z
" style="stroke:#000000;stroke-width:0.886227;"/>
    <path clip-path="url(#p98c3b79532)" d="M 122.691702 165.991523 
C 123.161762 165.991523 123.612633 165.804766 123.945016 165.472383 
C 124.277399 165.14 124.464156 164.689129 124.464156 164.219069 
C 124.464156 163.749009 124.277399 163.298137 123.945016 162.965755 
C 123.612633 162.633372 123.161762 162.446615 122.691702 162.446615 
C 122.221642 162.446615 121.770771 162.633372 121.438388 162.965755 
C 121.106005 163.298137 120.919248 163.749009 120.919248 164.219069 
C 120.919248 164.689129 121.106005 165.14 121.438388 165.472383 
C 121.770771 165.804766 122.221642 165.991523 122.691702 165.991523 
z
" style="stroke:#000000;stroke-width:0.886227;"/>
    <path clip-path="url(#p98c3b79532)" d="M 108.682528 145.288516 
C 109.152588 145.288516 109.603459 145.101759 109.935842 144.769376 
C 110.268225 144.436993 110.454982 143.986122 110.454982 143.516062 
C 110.454982 143.046002 110.268225 142.595131 109.935842 142.262748 
C 109.603459 141.930365 109.152588 141.743608 108.682528 141.743608 
C 108.212467 141.743608 107.761596 141.930365 107.429214 142.262748 
C 107.096831 142.595131 106.910074 143.046002 106.910074 143.516062 
C 106.910074 143.986122 107.096831 144.436993 107.429214 144.769376 
C 107.761596 145.101759 108.212467 145.288516 108.682528 145.288516 
z
" style="stroke:#000000;stroke-width:0.886227;"/>
    <path clip-path="url(#p98c3b79532)" d="M 320.726873 134.488942 
C 321.196933 134.488942 321.647804 134.302185 321.980187 133.969802 
C 322.31257 133.637419 322.499327 133.186548 322.499327 132.716488 
C 322.499327 132.246428 322.31257 131.795556 321.980187 131.463174 
C 321.647804 131.130791 321.196933 130.944034 320.726873 130.944034 
C 320.256813 130.944034 319.805941 131.130791 319.473559 131.463174 
C 319.141176 131.795556 318.954419 132.246428 318.954419 132.716488 
C 318.954419 133.186548 319.141176 133.637419 319.473559 133.969802 
C 319.805941 134.302185 320.256813 134.488942 320.726873 134.488942 
z
" style="stroke:#000000;stroke-width:0.886227;"/>
    <path clip-path="url(#p98c3b79532)" d="M 250.554081 153.089648 
C 251.024142 153.089648 251.475013 152.902891 251.807396 152.570508 
C 252.139778 152.238125 252.326535 151.787254 252.326535 151.317194 
C 252.326535 150.847134 252.139778 150.396262 251.807396 150.06388 
C 251.475013 149.731497 251.024142 149.54474 250.554081 149.54474 
C 250.084021 149.54474 249.63315 149.731497 249.300767 150.06388 
C 248.968385 150.396262 248.781628 150.847134 248.781628 151.317194 
C 248.781628 151.787254 248.968385 152.238125 249.300767 152.570508 
C 249.63315 152.902891 250.084021 153.089648 250.554081 153.089648 
z
" style="stroke:#000000;stroke-width:0.886227;"/>
    <path clip-path="url(#p98c3b79532)" d="M 253.496836 153.501625 
C 253.966897 153.501625 254.417768 153.314868 254.750151 152.982485 
C 255.082533 152.650102 255.26929 152.199231 255.26929 151.729171 
C 255.26929 151.25911 255.082533 150.808239 254.750151 150.475857 
C 254.417768 150.143474 253.966897 149.956717 253.496836 149.956717 
C 253.026776 149.956717 252.575905 150.143474 252.243522 150.475857 
C 251.91114 150.808239 251.724383 151.25911 251.724383 151.729171 
C 251.724383 152.199231 251.91114 152.650102 252.243522 152.982485 
C 252.575905 153.314868 253.026776 153.501625 253.496836 153.501625 
z
" style="stroke:#000000;stroke-width:0.886227;"/>
    <path clip-path="url(#p98c3b79532)" d="M 278.035624 118.754308 
C 278.505684 118.754308 278.956555 118.567551 279.288938 118.235168 
C 279.621321 117.902785 279.808078 117.451914 279.808078 116.981854 
C 279.808078 116.511793 279.621321 116.060922 279.288938 115.72854 
C 278.956555 115.396157 278.505684 115.2094 278.035624 115.2094 
C 277.565564 115.2094 277.114693 115.396157 276.78231 115.72854 
C 276.449927 116.060922 276.26317 116.511793 276.26317 116.981854 
C 276.26317 117.451914 276.449927 117.902785 276.78231 118.235168 
C 277.114693 118.567551 277.565564 118.754308 278.035624 118.754308 
z
" style="stroke:#000000;stroke-width:0.886227;"/>
    <path clip-path="url(#p98c3b79532)" d="M 153.995534 186.183235 
C 154.465594 186.183235 154.916465 185.996478 155.248848 185.664095 
C 155.58123 185.331712 155.767987 184.880841 155.767987 184.410781 
C 155.767987 183.940721 155.58123 183.48985 155.248848 183.157467 
C 154.916465 182.825084 154.465594 182.638327 153.995534 182.638327 
C 153.525473 182.638327 153.074602 182.825084 152.742219 183.157467 
C 152.409837 183.48985 152.22308 183.940721 152.22308 184.410781 
C 152.22308 184.880841 152.409837 185.331712 152.742219 185.664095 
C 153.074602 185.996478 153.525473 186.183235 153.995534 186.183235 
z
" style="stroke:#000000;stroke-width:0.886227;"/>
    <path clip-path="url(#p98c3b79532)" d="M 154.925157 176.290306 
C 155.395217 176.290306 155.846088 176.103549 156.178471 175.771166 
C 156.510854 175.438783 156.69761 174.987912 156.69761 174.517852 
C 156.69761 174.047792 156.510854 173.596921 156.178471 173.264538 
C 155.846088 172.932155 155.395217 172.745398 154.925157 172.745398 
C 154.455096 172.745398 154.004225 172.932155 153.671842 173.264538 
C 153.33946 173.596921 153.152703 174.047792 153.152703 174.517852 
C 153.152703 174.987912 153.33946 175.438783 153.671842 175.771166 
C 154.004225 176.103549 154.455096 176.290306 154.925157 176.290306 
z
" style="stroke:#000000;stroke-width:0.886227;"/>
    <path clip-path="url(#p98c3b79532)" d="M 188.311346 185.650252 
C 188.781407 185.650252 189.232278 185.463495 189.564661 185.131112 
C 189.897043 184.798729 190.0838 184.347858 190.0838 183.877798 
C 190.0838 183.407738 189.897043 182.956866 189.564661 182.624484 
C 189.232278 182.292101 188.781407 182.105344 188.311346 182.105344 
C 187.841286 182.105344 187.390415 182.292101 187.058032 182.624484 
C 186.725649 182.956866 186.538893 183.407738 186.538893 183.877798 
C 186.538893 184.347858 186.725649 184.798729 187.058032 185.131112 
C 187.390415 185.463495 187.841286 185.650252 188.311346 185.650252 
z
" style="stroke:#000000;stroke-width:0.886227;"/>
    <path clip-path="url(#p98c3b79532)" d="M 242.768513 166.654995 
C 243.238573 166.654995 243.689444 166.468238 244.021827 166.135856 
C 244.35421 165.803473 244.540967 165.352602 244.540967 164.882542 
C 244.540967 164.412481 244.35421 163.96161 244.021827 163.629227 
C 243.689444 163.296845 243.238573 163.110088 242.768513 163.110088 
C 242.298453 163.110088 241.847582 163.296845 241.515199 163.629227 
C 241.182816 163.96161 240.996059 164.412481 240.996059 164.882542 
C 240.996059 165.352602 241.182816 165.803473 241.515199 166.135856 
C 241.847582 166.468238 242.298453 166.654995 242.768513 166.654995 
z
" style="stroke:#000000;stroke-width:0.886227;"/>
    <path clip-path="url(#p98c3b79532)" d="M 251.627549 141.658253 
C 252.097609 141.658253 252.54848 141.471496 252.880863 141.139113 
C 253.213246 140.80673 253.400003 140.355859 253.400003 139.885799 
C 253.400003 139.415739 253.213246 138.964868 252.880863 138.632485 
C 252.54848 138.300102 252.097609 138.113345 251.627549 138.113345 
C 251.157489 138.113345 250.706618 138.300102 250.374235 138.632485 
C 250.041852 138.964868 249.855095 139.415739 249.855095 139.885799 
C 249.855095 140.355859 250.041852 140.80673 250.374235 141.139113 
C 250.706618 141.471496 251.157489 141.658253 251.627549 141.658253 
z
" style="stroke:#000000;stroke-width:0.886227;"/>
    <path clip-path="url(#p98c3b79532)" d="M 297.612371 85.31821 
C 298.082431 85.31821 298.533302 85.131453 298.865685 84.79907 
C 299.198068 84.466687 299.384825 84.015816 299.384825 83.545756 
C 299.384825 83.075696 299.198068 82.624825 298.865685 82.292442 
C 298.533302 81.960059 298.082431 81.773302 297.612371 81.773302 
C 297.14231 81.773302 296.691439 81.960059 296.359057 82.292442 
C 296.026674 82.624825 295.839917 83.075696 295.839917 83.545756 
C 295.839917 84.015816 296.026674 84.466687 296.359057 84.79907 
C 296.691439 85.131453 297.14231 85.31821 297.612371 85.31821 
z
" style="stroke:#000000;stroke-width:0.886227;"/>
    <path clip-path="url(#p98c3b79532)" d="M 320.743579 74.828454 
C 321.213639 74.828454 321.66451 74.641697 321.996893 74.309314 
C 322.329275 73.976931 322.516032 73.52606 322.516032 73.056 
C 322.516032 72.58594 322.329275 72.135069 321.996893 71.802686 
C 321.66451 71.470303 321.213639 71.283546 320.743579 71.283546 
C 320.273518 71.283546 319.822647 71.470303 319.490264 71.802686 
C 319.157882 72.135069 318.971125 72.58594 318.971125 73.056 
C 318.971125 73.52606 319.157882 73.976931 319.490264 74.309314 
C 319.822647 74.641697 320.273518 74.828454 320.743579 74.828454 
z
" style="stroke:#000000;stroke-width:0.886227;"/>
    <path clip-path="url(#p98c3b79532)" d="M 322.92017 67.616747 
C 323.39023 67.616747 323.841101 67.42999 324.173484 67.097607 
C 324.505867 66.765224 324.692624 66.314353 324.692624 65.844293 
C 324.692624 65.374232 324.505867 64.923361 324.173484 64.590979 
C 323.841101 64.258596 323.39023 64.071839 322.92017 64.071839 
C 322.45011 64.071839 321.999239 64.258596 321.666856 64.590979 
C 321.334473 64.923361 321.147716 65.374232 321.147716 65.844293 
C 321.147716 66.314353 321.334473 66.765224 321.666856 67.097607 
C 321.999239 67.42999 322.45011 67.616747 322.92017 67.616747 
z
" style="stroke:#000000;stroke-width:0.886227;"/>
    <path clip-path="url(#p98c3b79532)" d="M 244.642998 223.2624 
C 245.113058 223.2624 245.563929 223.075643 245.896312 222.74326 
C 246.228695 222.410878 246.415451 221.960007 246.415451 221.489946 
C 246.415451 221.019886 246.228695 220.569015 245.896312 220.236632 
C 245.563929 219.904249 245.113058 219.717492 244.642998 219.717492 
C 244.172937 219.717492 243.722066 219.904249 243.389683 220.236632 
C 243.057301 220.569015 242.870544 221.019886 242.870544 221.489946 
C 242.870544 221.960007 243.057301 222.410878 243.389683 222.74326 
C 243.722066 223.075643 244.172937 223.2624 244.642998 223.2624 
z
" style="stroke:#000000;stroke-width:0.886227;"/>
    <path clip-path="url(#p98c3b79532)" d="M 230.678427 166.654995 
C 231.148487 166.654995 231.599358 166.468238 231.931741 166.135856 
C 232.264124 165.803473 232.45088 165.352602 232.45088 164.882542 
C 232.45088 164.412481 232.264124 163.96161 231.931741 163.629227 
C 231.599358 163.296845 231.148487 163.110088 230.678427 163.110088 
C 230.208366 163.110088 229.757495 163.296845 229.425112 163.629227 
C 229.09273 163.96161 228.905973 164.412481 228.905973 164.882542 
C 228.905973 165.352602 229.09273 165.803473 229.425112 166.135856 
C 229.757495 166.468238 230.208366 166.654995 230.678427 166.654995 
z
" style="stroke:#000000;stroke-width:0.886227;"/>
    <path clip-path="url(#p98c3b79532)" d="M 301.042138 103.675283 
C 301.512198 103.675283 301.963069 103.488526 302.295452 103.156143 
C 302.627835 102.823761 302.814592 102.37289 302.814592 101.902829 
C 302.814592 101.432769 302.627835 100.981898 302.295452 100.649515 
C 301.963069 100.317132 301.512198 100.130375 301.042138 100.130375 
C 300.572078 100.130375 300.121207 100.317132 299.788824 100.649515 
C 299.456441 100.981898 299.269684 101.432769 299.269684 101.902829 
C 299.269684 102.37289 299.456441 102.823761 299.788824 103.156143 
C 300.121207 103.488526 300.572078 103.675283 301.042138 103.675283 
z
" style="stroke:#000000;stroke-width:0.886227;"/>
    <path clip-path="url(#p98c3b79532)" d="M 313.021833 62.371868 
C 313.491893 62.371868 313.942764 62.185112 314.275147 61.852729 
C 314.60753 61.520346 314.794287 61.069475 314.794287 60.599415 
C 314.794287 60.129354 314.60753 59.678483 314.275147 59.3461 
C 313.942764 59.013718 313.491893 58.826961 313.021833 58.826961 
C 312.551773 58.826961 312.100902 59.013718 311.768519 59.3461 
C 311.436136 59.678483 311.249379 60.129354 311.249379 60.599415 
C 311.249379 61.069475 311.436136 61.520346 311.768519 61.852729 
C 312.100902 62.185112 312.551773 62.371868 313.021833 62.371868 
z
" style="stroke:#000000;stroke-width:0.886227;"/>
    <path clip-path="url(#p98c3b79532)" d="M 219.495941 123.343576 
C 219.966002 123.343576 220.416873 123.156819 220.749256 122.824436 
C 221.081638 122.492053 221.268395 122.041182 221.268395 121.571122 
C 221.268395 121.101062 221.081638 120.650191 220.749256 120.317808 
C 220.416873 119.985425 219.966002 119.798668 219.495941 119.798668 
C 219.025881 119.798668 218.57501 119.985425 218.242627 120.317808 
C 217.910244 120.650191 217.723488 121.101062 217.723488 121.571122 
C 217.723488 122.041182 217.910244 122.492053 218.242627 122.824436 
C 218.57501 123.156819 219.025881 123.343576 219.495941 123.343576 
z
" style="stroke:#000000;stroke-width:0.886227;"/>
    <path clip-path="url(#p98c3b79532)" d="M 205.86183 193.507605 
C 206.33189 193.507605 206.782761 193.320848 207.115144 192.988465 
C 207.447526 192.656082 207.634283 192.205211 207.634283 191.735151 
C 207.634283 191.265091 207.447526 190.81422 207.115144 190.481837 
C 206.782761 190.149454 206.33189 189.962697 205.86183 189.962697 
C 205.391769 189.962697 204.940898 190.149454 204.608515 190.481837 
C 204.276133 190.81422 204.089376 191.265091 204.089376 191.735151 
C 204.089376 192.205211 204.276133 192.656082 204.608515 192.988465 
C 204.940898 193.320848 205.391769 193.507605 205.86183 193.507605 
z
" style="stroke:#000000;stroke-width:0.886227;"/>
    <path clip-path="url(#p98c3b79532)" d="M 333.453035 25.002112 
C 333.923095 25.002112 334.373966 24.815355 334.706349 24.482973 
C 335.038731 24.15059 335.225488 23.699719 335.225488 23.229659 
C 335.225488 22.759598 335.038731 22.308727 334.706349 21.976344 
C 334.373966 21.643962 333.923095 21.457205 333.453035 21.457205 
C 332.982974 21.457205 332.532103 21.643962 332.19972 21.976344 
C 331.867338 22.308727 331.680581 22.759598 331.680581 23.229659 
C 331.680581 23.699719 331.867338 24.15059 332.19972 24.482973 
C 332.532103 24.815355 332.982974 25.002112 333.453035 25.002112 
z
" style="stroke:#000000;stroke-width:0.886227;"/>
    <path clip-path="url(#p98c3b79532)" d="M 172.235611 175.792356 
C 172.705671 175.792356 173.156542 175.605599 173.488925 175.273217 
C 173.821308 174.940834 174.008064 174.489963 174.008064 174.019902 
C 174.008064 173.549842 173.821308 173.098971 173.488925 172.766588 
C 173.156542 172.434206 172.705671 172.247449 172.235611 172.247449 
C 171.76555 172.247449 171.314679 172.434206 170.982296 172.766588 
C 170.649914 173.098971 170.463157 173.549842 170.463157 174.019902 
C 170.463157 174.489963 170.649914 174.940834 170.982296 175.273217 
C 171.314679 175.605599 171.76555 175.792356 172.235611 175.792356 
z
" style="stroke:#000000;stroke-width:0.886227;"/>
    <path clip-path="url(#p98c3b79532)" d="M 272.779994 99.086015 
C 273.250054 99.086015 273.700925 98.899258 274.033308 98.566875 
C 274.365691 98.234492 274.552448 97.783621 274.552448 97.313561 
C 274.552448 96.843501 274.365691 96.39263 274.033308 96.060247 
C 273.700925 95.727864 273.250054 95.541107 272.779994 95.541107 
C 272.309934 95.541107 271.859062 95.727864 271.52668 96.060247 
C 271.194297 96.39263 271.00754 96.843501 271.00754 97.313561 
C 271.00754 97.783621 271.194297 98.234492 271.52668 98.566875 
C 271.859062 98.899258 272.309934 99.086015 272.779994 99.086015 
z
" style="stroke:#000000;stroke-width:0.886227;"/>
    <path clip-path="url(#p98c3b79532)" d="M 284.759482 79.417722 
C 285.229542 79.417722 285.680413 79.230965 286.012796 78.898582 
C 286.345179 78.5662 286.531936 78.115329 286.531936 77.645268 
C 286.531936 77.175208 286.345179 76.724337 286.012796 76.391954 
C 285.680413 76.059571 285.229542 75.872814 284.759482 75.872814 
C 284.289422 75.872814 283.838551 76.059571 283.506168 76.391954 
C 283.173785 76.724337 282.987028 77.175208 282.987028 77.645268 
C 282.987028 78.115329 283.173785 78.5662 283.506168 78.898582 
C 283.838551 79.230965 284.289422 79.417722 284.759482 79.417722 
z
" style="stroke:#000000;stroke-width:0.886227;"/>
    <path clip-path="url(#p98c3b79532)" d="M 342.29859 72.861625 
C 342.76865 72.861625 343.219522 72.674868 343.551904 72.342485 
C 343.884287 72.010102 344.071044 71.559231 344.071044 71.089171 
C 344.071044 70.61911 343.884287 70.168239 343.551904 69.835857 
C 343.219522 69.503474 342.76865 69.316717 342.29859 69.316717 
C 341.82853 69.316717 341.377659 69.503474 341.045276 69.835857 
C 340.712893 70.168239 340.526136 70.61911 340.526136 71.089171 
C 340.526136 71.559231 340.712893 72.010102 341.045276 72.342485 
C 341.377659 72.674868 341.82853 72.861625 342.29859 72.861625 
z
" style="stroke:#000000;stroke-width:0.886227;"/>
    <path clip-path="url(#p98c3b79532)" d="M 258.094844 137.111381 
C 258.564905 137.111381 259.015776 136.924624 259.348159 136.592241 
C 259.680541 136.259858 259.867298 135.808987 259.867298 135.338927 
C 259.867298 134.868867 259.680541 134.417995 259.348159 134.085613 
C 259.015776 133.75323 258.564905 133.566473 258.094844 133.566473 
C 257.624784 133.566473 257.173913 133.75323 256.84153 134.085613 
C 256.509148 134.417995 256.322391 134.868867 256.322391 135.338927 
C 256.322391 135.808987 256.509148 136.259858 256.84153 136.592241 
C 257.173913 136.924624 257.624784 137.111381 258.094844 137.111381 
z
" style="stroke:#000000;stroke-width:0.886227;"/>
    <path clip-path="url(#p98c3b79532)" d="M 304.906584 87.940649 
C 305.376645 87.940649 305.827516 87.753892 306.159899 87.421509 
C 306.492281 87.089126 306.679038 86.638255 306.679038 86.168195 
C 306.679038 85.698135 306.492281 85.247264 306.159899 84.914881 
C 305.827516 84.582498 305.376645 84.395741 304.906584 84.395741 
C 304.436524 84.395741 303.985653 84.582498 303.65327 84.914881 
C 303.320887 85.247264 303.134131 85.698135 303.134131 86.168195 
C 303.134131 86.638255 303.320887 87.089126 303.65327 87.421509 
C 303.985653 87.753892 304.436524 87.940649 304.906584 87.940649 
z
" style="stroke:#000000;stroke-width:0.886227;"/>
    <path clip-path="url(#p98c3b79532)" d="M 311.25851 36.803088 
C 311.728571 36.803088 312.179442 36.616331 312.511825 36.283948 
C 312.844207 35.951565 313.030964 35.500694 313.030964 35.030634 
C 313.030964 34.560574 312.844207 34.109703 312.511825 33.77732 
C 312.179442 33.444937 311.728571 33.25818 311.25851 33.25818 
C 310.78845 33.25818 310.337579 33.444937 310.005196 33.77732 
C 309.672814 34.109703 309.486057 34.560574 309.486057 35.030634 
C 309.486057 35.500694 309.672814 35.951565 310.005196 36.283948 
C 310.337579 36.616331 310.78845 36.803088 311.25851 36.803088 
z
" style="stroke:#000000;stroke-width:0.886227;"/>
    <path clip-path="url(#p98c3b79532)" d="M 280.773942 93.185527 
C 281.244002 93.185527 281.694874 92.99877 282.027256 92.666387 
C 282.359639 92.334005 282.546396 91.883133 282.546396 91.413073 
C 282.546396 90.943013 282.359639 90.492142 282.027256 90.159759 
C 281.694874 89.827376 281.244002 89.640619 280.773942 89.640619 
C 280.303882 89.640619 279.853011 89.827376 279.520628 90.159759 
C 279.188245 90.492142 279.001488 90.943013 279.001488 91.413073 
C 279.001488 91.883133 279.188245 92.334005 279.520628 92.666387 
C 279.853011 92.99877 280.303882 93.185527 280.773942 93.185527 
z
" style="stroke:#000000;stroke-width:0.886227;"/>
    <path clip-path="url(#p98c3b79532)" d="M 304.674205 24.346503 
C 305.144265 24.346503 305.595136 24.159746 305.927519 23.827363 
C 306.259902 23.49498 306.446659 23.044109 306.446659 22.574049 
C 306.446659 22.103989 306.259902 21.653117 305.927519 21.320735 
C 305.595136 20.988352 305.144265 20.801595 304.674205 20.801595 
C 304.204145 20.801595 303.753274 20.988352 303.420891 21.320735 
C 303.088508 21.653117 302.901751 22.103989 302.901751 22.574049 
C 302.901751 23.044109 303.088508 23.49498 303.420891 23.827363 
C 303.753274 24.159746 304.204145 24.346503 304.674205 24.346503 
z
" style="stroke:#000000;stroke-width:0.886227;"/>
    <path clip-path="url(#p98c3b79532)" d="M 349.127172 195.460649 
C 349.597232 195.460649 350.048103 195.273892 350.380486 194.941509 
C 350.712869 194.609126 350.899626 194.158255 350.899626 193.688195 
C 350.899626 193.218135 350.712869 192.767264 350.380486 192.434881 
C 350.048103 192.102498 349.597232 191.915741 349.127172 191.915741 
C 348.657112 191.915741 348.206241 192.102498 347.873858 192.434881 
C 347.541475 192.767264 347.354718 193.218135 347.354718 193.688195 
C 347.354718 194.158255 347.541475 194.609126 347.873858 194.941509 
C 348.206241 195.273892 348.657112 195.460649 349.127172 195.460649 
z
" style="stroke:#000000;stroke-width:0.886227;"/>
    <path clip-path="url(#p98c3b79532)" d="M 289.702712 70.239186 
C 290.172773 70.239186 290.623644 70.052429 290.956026 69.720046 
C 291.288409 69.387663 291.475166 68.936792 291.475166 68.466732 
C 291.475166 67.996671 291.288409 67.5458 290.956026 67.213418 
C 290.623644 66.881035 290.172773 66.694278 289.702712 66.694278 
C 289.232652 66.694278 288.781781 66.881035 288.449398 67.213418 
C 288.117015 67.5458 287.930258 67.996671 287.930258 68.466732 
C 287.930258 68.936792 288.117015 69.387663 288.449398 69.720046 
C 288.781781 70.052429 289.232652 70.239186 289.702712 70.239186 
z
" style="stroke:#000000;stroke-width:0.886227;"/>
    <path clip-path="url(#p98c3b79532)" d="M 205.898794 206.606015 
C 206.368854 206.606015 206.819725 206.419258 207.152108 206.086875 
C 207.484491 205.754492 207.671248 205.303621 207.671248 204.833561 
C 207.671248 204.363501 207.484491 203.91263 207.152108 203.580247 
C 206.819725 203.247864 206.368854 203.061107 205.898794 203.061107 
C 205.428734 203.061107 204.977862 203.247864 204.64548 203.580247 
C 204.313097 203.91263 204.12634 204.363501 204.12634 204.833561 
C 204.12634 205.303621 204.313097 205.754492 204.64548 206.086875 
C 204.977862 206.419258 205.428734 206.606015 205.898794 206.606015 
z
" style="stroke:#000000;stroke-width:0.886227;"/>
    <path clip-path="url(#p98c3b79532)" d="M 258.754391 143.72456 
C 259.224451 143.72456 259.675322 143.537803 260.007705 143.20542 
C 260.340088 142.873037 260.526845 142.422166 260.526845 141.952106 
C 260.526845 141.482046 260.340088 141.031175 260.007705 140.698792 
C 259.675322 140.366409 259.224451 140.179652 258.754391 140.179652 
C 258.28433 140.179652 257.833459 140.366409 257.501077 140.698792 
C 257.168694 141.031175 256.981937 141.482046 256.981937 141.952106 
C 256.981937 142.422166 257.168694 142.873037 257.501077 143.20542 
C 257.833459 143.537803 258.28433 143.72456 258.754391 143.72456 
z
" style="stroke:#000000;stroke-width:0.886227;"/>
    <path clip-path="url(#p98c3b79532)" d="M 304.851941 93.185527 
C 305.322001 93.185527 305.772872 92.99877 306.105255 92.666387 
C 306.437638 92.334005 306.624395 91.883133 306.624395 91.413073 
C 306.624395 90.943013 306.437638 90.492142 306.105255 90.159759 
C 305.772872 89.827376 305.322001 89.640619 304.851941 89.640619 
C 304.381881 89.640619 303.93101 89.827376 303.598627 90.159759 
C 303.266244 90.492142 303.079487 90.943013 303.079487 91.413073 
C 303.079487 91.883133 303.266244 92.334005 303.598627 92.666387 
C 303.93101 92.99877 304.381881 93.185527 304.851941 93.185527 
z
" style="stroke:#000000;stroke-width:0.886227;"/>
    <path clip-path="url(#p98c3b79532)" d="M 72.348559 217.700761 
C 72.818619 217.700761 73.26949 217.514004 73.601873 217.181622 
C 73.934256 216.849239 74.121013 216.398368 74.121013 215.928308 
C 74.121013 215.458247 73.934256 215.007376 73.601873 214.674993 
C 73.26949 214.342611 72.818619 214.155854 72.348559 214.155854 
C 71.878499 214.155854 71.427627 214.342611 71.095245 214.674993 
C 70.762862 215.007376 70.576105 215.458247 70.576105 215.928308 
C 70.576105 216.398368 70.762862 216.849239 71.095245 217.181622 
C 71.427627 217.514004 71.878499 217.700761 72.348559 217.700761 
z
" style="stroke:#000000;stroke-width:0.886227;"/>
    <path clip-path="url(#p98c3b79532)" d="M 181.215483 198.962963 
C 181.685543 198.962963 182.136414 198.776206 182.468797 198.443823 
C 182.80118 198.111441 182.987937 197.66057 182.987937 197.190509 
C 182.987937 196.720449 182.80118 196.269578 182.468797 195.937195 
C 182.136414 195.604812 181.685543 195.418055 181.215483 195.418055 
C 180.745423 195.418055 180.294552 195.604812 179.962169 195.937195 
C 179.629786 196.269578 179.443029 196.720449 179.443029 197.190509 
C 179.443029 197.66057 179.629786 198.111441 179.962169 198.443823 
C 180.294552 198.776206 180.745423 198.962963 181.215483 198.962963 
z
" style="stroke:#000000;stroke-width:0.886227;"/>
    <path clip-path="url(#p98c3b79532)" d="M 324.361193 66.305527 
C 324.831253 66.305527 325.282124 66.11877 325.614507 65.786387 
C 325.94689 65.454005 326.133647 65.003133 326.133647 64.533073 
C 326.133647 64.063013 325.94689 63.612142 325.614507 63.279759 
C 325.282124 62.947376 324.831253 62.760619 324.361193 62.760619 
C 323.891132 62.760619 323.440261 62.947376 323.107879 63.279759 
C 322.775496 63.612142 322.588739 64.063013 322.588739 64.533073 
C 322.588739 65.003133 322.775496 65.454005 323.107879 65.786387 
C 323.440261 66.11877 323.891132 66.305527 324.361193 66.305527 
z
" style="stroke:#000000;stroke-width:0.886227;"/>
    <path clip-path="url(#p98c3b79532)" d="M 344.810842 96.463576 
C 345.280903 96.463576 345.731774 96.276819 346.064156 95.944436 
C 346.396539 95.612053 346.583296 95.161182 346.583296 94.691122 
C 346.583296 94.221062 346.396539 93.770191 346.064156 93.437808 
C 345.731774 93.105425 345.280903 92.918668 344.810842 92.918668 
C 344.340782 92.918668 343.889911 93.105425 343.557528 93.437808 
C 343.225145 93.770191 343.038388 94.221062 343.038388 94.691122 
C 343.038388 95.161182 343.225145 95.612053 343.557528 95.944436 
C 343.889911 96.276819 344.340782 96.463576 344.810842 96.463576 
z
" style="stroke:#000000;stroke-width:0.886227;"/>
    <path clip-path="url(#p98c3b79532)" d="M 305.545414 99.741625 
C 306.015474 99.741625 306.466346 99.554868 306.798728 99.222485 
C 307.131111 98.890102 307.317868 98.439231 307.317868 97.969171 
C 307.317868 97.49911 307.131111 97.048239 306.798728 96.715857 
C 306.466346 96.383474 306.015474 96.196717 305.545414 96.196717 
C 305.075354 96.196717 304.624483 96.383474 304.2921 96.715857 
C 303.959717 97.048239 303.77296 97.49911 303.77296 97.969171 
C 303.77296 98.439231 303.959717 98.890102 304.2921 99.222485 
C 304.624483 99.554868 305.075354 99.741625 305.545414 99.741625 
z
" style="stroke:#000000;stroke-width:0.886227;"/>
    <path clip-path="url(#p98c3b79532)" d="M 314.958805 166.61382 
C 315.428866 166.61382 315.879737 166.427063 316.212119 166.09468 
C 316.544502 165.762297 316.731259 165.311426 316.731259 164.841366 
C 316.731259 164.371306 316.544502 163.920435 316.212119 163.588052 
C 315.879737 163.255669 315.428866 163.068912 314.958805 163.068912 
C 314.488745 163.068912 314.037874 163.255669 313.705491 163.588052 
C 313.373108 163.920435 313.186351 164.371306 313.186351 164.841366 
C 313.186351 165.311426 313.373108 165.762297 313.705491 166.09468 
C 314.037874 166.427063 314.488745 166.61382 314.958805 166.61382 
z
" style="stroke:#000000;stroke-width:0.886227;"/>
    <path clip-path="url(#p98c3b79532)" d="M 272.518308 193.507605 
C 272.988368 193.507605 273.439239 193.320848 273.771622 192.988465 
C 274.104005 192.656082 274.290762 192.205211 274.290762 191.735151 
C 274.290762 191.265091 274.104005 190.81422 273.771622 190.481837 
C 273.439239 190.149454 272.988368 189.962697 272.518308 189.962697 
C 272.048248 189.962697 271.597376 190.149454 271.264994 190.481837 
C 270.932611 190.81422 270.745854 191.265091 270.745854 191.735151 
C 270.745854 192.205211 270.932611 192.656082 271.264994 192.988465 
C 271.597376 193.320848 272.048248 193.507605 272.518308 193.507605 
z
" style="stroke:#000000;stroke-width:0.886227;"/>
    <path clip-path="url(#p98c3b79532)" d="M 236.468798 155.696241 
C 236.938858 155.696241 237.389729 155.509484 237.722112 155.177101 
C 238.054494 154.844718 238.241251 154.393847 238.241251 153.923787 
C 238.241251 153.453727 238.054494 153.002855 237.722112 152.670473 
C 237.389729 152.33809 236.938858 152.151333 236.468798 152.151333 
C 235.998737 152.151333 235.547866 152.33809 235.215483 152.670473 
C 234.883101 153.002855 234.696344 153.453727 234.696344 153.923787 
C 234.696344 154.393847 234.883101 154.844718 235.215483 155.177101 
C 235.547866 155.509484 235.998737 155.696241 236.468798 155.696241 
z
" style="stroke:#000000;stroke-width:0.886227;"/>
    <path clip-path="url(#p98c3b79532)" d="M 285.434384 104.330893 
C 285.904444 104.330893 286.355315 104.144136 286.687698 103.811753 
C 287.020081 103.47937 287.206838 103.028499 287.206838 102.558439 
C 287.206838 102.088379 287.020081 101.637508 286.687698 101.305125 
C 286.355315 100.972742 285.904444 100.785985 285.434384 100.785985 
C 284.964323 100.785985 284.513452 100.972742 284.18107 101.305125 
C 283.848687 101.637508 283.66193 102.088379 283.66193 102.558439 
C 283.66193 103.028499 283.848687 103.47937 284.18107 103.811753 
C 284.513452 104.144136 284.964323 104.330893 285.434384 104.330893 
z
" style="stroke:#000000;stroke-width:0.886227;"/>
    <path clip-path="url(#p98c3b79532)" d="M 288.658558 72.206015 
C 289.128618 72.206015 289.579489 72.019258 289.911872 71.686875 
C 290.244255 71.354492 290.431012 70.903621 290.431012 70.433561 
C 290.431012 69.963501 290.244255 69.51263 289.911872 69.180247 
C 289.579489 68.847864 289.128618 68.661107 288.658558 68.661107 
C 288.188498 68.661107 287.737627 68.847864 287.405244 69.180247 
C 287.072861 69.51263 286.886104 69.963501 286.886104 70.433561 
C 286.886104 70.903621 287.072861 71.354492 287.405244 71.686875 
C 287.737627 72.019258 288.188498 72.206015 288.658558 72.206015 
z
" style="stroke:#000000;stroke-width:0.886227;"/>
    <path clip-path="url(#p98c3b79532)" d="M 216.700937 201.800964 
C 217.170997 201.800964 217.621869 201.614207 217.954251 201.281825 
C 218.286634 200.949442 218.473391 200.498571 218.473391 200.02851 
C 218.473391 199.55845 218.286634 199.107579 217.954251 198.775196 
C 217.621869 198.442814 217.170997 198.256057 216.700937 198.256057 
C 216.230877 198.256057 215.780006 198.442814 215.447623 198.775196 
C 215.11524 199.107579 214.928483 199.55845 214.928483 200.02851 
C 214.928483 200.498571 215.11524 200.949442 215.447623 201.281825 
C 215.780006 201.614207 216.230877 201.800964 216.700937 201.800964 
z
" style="stroke:#000000;stroke-width:0.886227;"/>
    <path clip-path="url(#p98c3b79532)" d="M 384.88021 149.567966 
C 385.35027 149.567966 385.801142 149.381209 386.133524 149.048826 
C 386.465907 148.716444 386.652664 148.265572 386.652664 147.795512 
C 386.652664 147.325452 386.465907 146.874581 386.133524 146.542198 
C 385.801142 146.209815 385.35027 146.023058 384.88021 146.023058 
C 384.41015 146.023058 383.959279 146.209815 383.626896 146.542198 
C 383.294513 146.874581 383.107756 147.325452 383.107756 147.795512 
C 383.107756 148.265572 383.294513 148.716444 383.626896 149.048826 
C 383.959279 149.381209 384.41015 149.567966 384.88021 149.567966 
z
" style="stroke:#000000;stroke-width:0.886227;"/>
    <path clip-path="url(#p98c3b79532)" d="M 272.117222 98.430405 
C 272.587283 98.430405 273.038154 98.243648 273.370536 97.911265 
C 273.702919 97.578883 273.889676 97.128011 273.889676 96.657951 
C 273.889676 96.187891 273.702919 95.73702 273.370536 95.404637 
C 273.038154 95.072254 272.587283 94.885497 272.117222 94.885497 
C 271.647162 94.885497 271.196291 95.072254 270.863908 95.404637 
C 270.531525 95.73702 270.344769 96.187891 270.344769 96.657951 
C 270.344769 97.128011 270.531525 97.578883 270.863908 97.911265 
C 271.196291 98.243648 271.647162 98.430405 272.117222 98.430405 
z
" style="stroke:#000000;stroke-width:0.886227;"/>
    <path clip-path="url(#p98c3b79532)" d="M 283.422245 65.649917 
C 283.892305 65.649917 284.343176 65.46316 284.675559 65.130778 
C 285.007942 64.798395 285.194699 64.347524 285.194699 63.877463 
C 285.194699 63.407403 285.007942 62.956532 284.675559 62.624149 
C 284.343176 62.291766 283.892305 62.10501 283.422245 62.10501 
C 282.952185 62.10501 282.501314 62.291766 282.168931 62.624149 
C 281.836548 62.956532 281.649791 63.407403 281.649791 63.877463 
C 281.649791 64.347524 281.836548 64.798395 282.168931 65.130778 
C 282.501314 65.46316 282.952185 65.649917 283.422245 65.649917 
z
" style="stroke:#000000;stroke-width:0.886227;"/>
    <path clip-path="url(#p98c3b79532)" d="M 329.930473 152.190405 
C 330.400533 152.190405 330.851404 152.003648 331.183787 151.671265 
C 331.51617 151.338883 331.702927 150.888011 331.702927 150.417951 
C 331.702927 149.947891 331.51617 149.49702 331.183787 149.164637 
C 330.851404 148.832254 330.400533 148.645497 329.930473 148.645497 
C 329.460413 148.645497 329.009542 148.832254 328.677159 149.164637 
C 328.344776 149.49702 328.158019 149.947891 328.158019 150.417951 
C 328.158019 150.888011 328.344776 151.338883 328.677159 151.671265 
C 329.009542 152.003648 329.460413 152.190405 329.930473 152.190405 
z
" style="stroke:#000000;stroke-width:0.886227;"/>
    <path clip-path="url(#p98c3b79532)" d="M 131.872707 142.912331 
C 132.342767 142.912331 132.793638 142.725574 133.126021 142.393191 
C 133.458404 142.060808 133.645161 141.609937 133.645161 141.139877 
C 133.645161 140.669816 133.458404 140.218945 133.126021 139.886563 
C 132.793638 139.55418 132.342767 139.367423 131.872707 139.367423 
C 131.402646 139.367423 130.951775 139.55418 130.619393 139.886563 
C 130.28701 140.218945 130.100253 140.669816 130.100253 141.139877 
C 130.100253 141.609937 130.28701 142.060808 130.619393 142.393191 
C 130.951775 142.725574 131.402646 142.912331 131.872707 142.912331 
z
" style="stroke:#000000;stroke-width:0.886227;"/>
    <path clip-path="url(#p98c3b79532)" d="M 359.786149 21.068454 
C 360.25621 21.068454 360.707081 20.881697 361.039464 20.549314 
C 361.371846 20.216931 361.558603 19.76606 361.558603 19.296 
C 361.558603 18.82594 361.371846 18.375069 361.039464 18.042686 
C 360.707081 17.710303 360.25621 17.523546 359.786149 17.523546 
C 359.316089 17.523546 358.865218 17.710303 358.532835 18.042686 
C 358.200453 18.375069 358.013696 18.82594 358.013696 19.296 
C 358.013696 19.76606 358.200453 20.216931 358.532835 20.549314 
C 358.865218 20.881697 359.316089 21.068454 359.786149 21.068454 
z
" style="stroke:#000000;stroke-width:0.886227;"/>
    <path clip-path="url(#p98c3b79532)" d="M 244.193043 81.384551 
C 244.663103 81.384551 245.113974 81.197794 245.446357 80.865412 
C 245.77874 80.533029 245.965497 80.082158 245.965497 79.612098 
C 245.965497 79.142037 245.77874 78.691166 245.446357 78.358783 
C 245.113974 78.026401 244.663103 77.839644 244.193043 77.839644 
C 243.722983 77.839644 243.272112 78.026401 242.939729 78.358783 
C 242.607346 78.691166 242.420589 79.142037 242.420589 79.612098 
C 242.420589 80.082158 242.607346 80.533029 242.939729 80.865412 
C 243.272112 81.197794 243.722983 81.384551 244.193043 81.384551 
z
" style="stroke:#000000;stroke-width:0.886227;"/>
    <path clip-path="url(#p98c3b79532)" d="M 292.622699 85.97382 
C 293.092759 85.97382 293.54363 85.787063 293.876013 85.45468 
C 294.208396 85.122297 294.395153 84.671426 294.395153 84.201366 
C 294.395153 83.731306 294.208396 83.280435 293.876013 82.948052 
C 293.54363 82.615669 293.092759 82.428912 292.622699 82.428912 
C 292.152639 82.428912 291.701768 82.615669 291.369385 82.948052 
C 291.037002 83.280435 290.850245 83.731306 290.850245 84.201366 
C 290.850245 84.671426 291.037002 85.122297 291.369385 85.45468 
C 291.701768 85.787063 292.152639 85.97382 292.622699 85.97382 
z
" style="stroke:#000000;stroke-width:0.886227;"/>
    <path clip-path="url(#p98c3b79532)" d="M 294.248844 83.351381 
C 294.718904 83.351381 295.169775 83.164624 295.502158 82.832241 
C 295.834541 82.499858 296.021298 82.048987 296.021298 81.578927 
C 296.021298 81.108867 295.834541 80.657995 295.502158 80.325613 
C 295.169775 79.99323 294.718904 79.806473 294.248844 79.806473 
C 293.778783 79.806473 293.327912 79.99323 292.99553 80.325613 
C 292.663147 80.657995 292.47639 81.108867 292.47639 81.578927 
C 292.47639 82.048987 292.663147 82.499858 292.99553 82.832241 
C 293.327912 83.164624 293.778783 83.351381 294.248844 83.351381 
z
" style="stroke:#000000;stroke-width:0.886227;"/>
    <path clip-path="url(#p98c3b79532)" d="M 323.229818 89.907478 
C 323.699878 89.907478 324.150749 89.720721 324.483132 89.388339 
C 324.815515 89.055956 325.002272 88.605085 325.002272 88.135024 
C 325.002272 87.664964 324.815515 87.214093 324.483132 86.88171 
C 324.150749 86.549327 323.699878 86.362571 323.229818 86.362571 
C 322.759757 86.362571 322.308886 86.549327 321.976504 86.88171 
C 321.644121 87.214093 321.457364 87.664964 321.457364 88.135024 
C 321.457364 88.605085 321.644121 89.055956 321.976504 89.388339 
C 322.308886 89.720721 322.759757 89.907478 323.229818 89.907478 
z
" style="stroke:#000000;stroke-width:0.886227;"/>
    <path clip-path="url(#p98c3b79532)" d="M 124.609261 195.552024 
C 125.079321 195.552024 125.530192 195.365267 125.862575 195.032884 
C 126.194958 194.700501 126.381714 194.24963 126.381714 193.77957 
C 126.381714 193.30951 126.194958 192.858639 125.862575 192.526256 
C 125.530192 192.193873 125.079321 192.007116 124.609261 192.007116 
C 124.1392 192.007116 123.688329 192.193873 123.355946 192.526256 
C 123.023564 192.858639 122.836807 193.30951 122.836807 193.77957 
C 122.836807 194.24963 123.023564 194.700501 123.355946 195.032884 
C 123.688329 195.365267 124.1392 195.552024 124.609261 195.552024 
z
" style="stroke:#000000;stroke-width:0.886227;"/>
    <path clip-path="url(#p98c3b79532)" d="M 97.931215 155.926989 
C 98.401275 155.926989 98.852146 155.740232 99.184529 155.407849 
C 99.516912 155.075466 99.703669 154.624595 99.703669 154.154535 
C 99.703669 153.684474 99.516912 153.233603 99.184529 152.901221 
C 98.852146 152.568838 98.401275 152.382081 97.931215 152.382081 
C 97.461155 152.382081 97.010284 152.568838 96.677901 152.901221 
C 96.345518 153.233603 96.158761 153.684474 96.158761 154.154535 
C 96.158761 154.624595 96.345518 155.075466 96.677901 155.407849 
C 97.010284 155.740232 97.461155 155.926989 97.931215 155.926989 
z
" style="stroke:#000000;stroke-width:0.886227;"/>
    <path clip-path="url(#p98c3b79532)" d="M 252.996046 119.409917 
C 253.466106 119.409917 253.916977 119.22316 254.24936 118.890778 
C 254.581743 118.558395 254.7685 118.107524 254.7685 117.637463 
C 254.7685 117.167403 254.581743 116.716532 254.24936 116.384149 
C 253.916977 116.051766 253.466106 115.86501 252.996046 115.86501 
C 252.525986 115.86501 252.075115 116.051766 251.742732 116.384149 
C 251.410349 116.716532 251.223592 117.167403 251.223592 117.637463 
C 251.223592 118.107524 251.410349 118.558395 251.742732 118.890778 
C 252.075115 119.22316 252.525986 119.409917 252.996046 119.409917 
z
" style="stroke:#000000;stroke-width:0.886227;"/>
    <path clip-path="url(#p98c3b79532)" d="M 230.682773 184.970893 
C 231.152833 184.970893 231.603704 184.784136 231.936087 184.451753 
C 232.268469 184.11937 232.455226 183.668499 232.455226 183.198439 
C 232.455226 182.728379 232.268469 182.277508 231.936087 181.945125 
C 231.603704 181.612742 231.152833 181.425985 230.682773 181.425985 
C 230.212712 181.425985 229.761841 181.612742 229.429458 181.945125 
C 229.097076 182.277508 228.910319 182.728379 228.910319 183.198439 
C 228.910319 183.668499 229.097076 184.11937 229.429458 184.451753 
C 229.761841 184.784136 230.212712 184.970893 230.682773 184.970893 
z
" style="stroke:#000000;stroke-width:0.886227;"/>
    <path clip-path="url(#p98c3b79532)" d="M 280.409009 109.575771 
C 280.879069 109.575771 281.329941 109.389014 281.662323 109.056631 
C 281.994706 108.724248 282.181463 108.273377 282.181463 107.803317 
C 282.181463 107.333257 281.994706 106.882386 281.662323 106.550003 
C 281.329941 106.21762 280.879069 106.030863 280.409009 106.030863 
C 279.938949 106.030863 279.488078 106.21762 279.155695 106.550003 
C 278.823312 106.882386 278.636555 107.333257 278.636555 107.803317 
C 278.636555 108.273377 278.823312 108.724248 279.155695 109.056631 
C 279.488078 109.389014 279.938949 109.575771 280.409009 109.575771 
z
" style="stroke:#000000;stroke-width:0.886227;"/>
    <path clip-path="url(#p98c3b79532)" d="M 269.855764 143.72456 
C 270.325824 143.72456 270.776695 143.537803 271.109078 143.20542 
C 271.441461 142.873037 271.628218 142.422166 271.628218 141.952106 
C 271.628218 141.482046 271.441461 141.031175 271.109078 140.698792 
C 270.776695 140.366409 270.325824 140.179652 269.855764 140.179652 
C 269.385704 140.179652 268.934833 140.366409 268.60245 140.698792 
C 268.270067 141.031175 268.08331 141.482046 268.08331 141.952106 
C 268.08331 142.422166 268.270067 142.873037 268.60245 143.20542 
C 268.934833 143.537803 269.385704 143.72456 269.855764 143.72456 
z
" style="stroke:#000000;stroke-width:0.886227;"/>
    <path clip-path="url(#p98c3b79532)" d="M 332.773949 65.649917 
C 333.244009 65.649917 333.69488 65.46316 334.027263 65.130778 
C 334.359646 64.798395 334.546403 64.347524 334.546403 63.877463 
C 334.546403 63.407403 334.359646 62.956532 334.027263 62.624149 
C 333.69488 62.291766 333.244009 62.10501 332.773949 62.10501 
C 332.303889 62.10501 331.853018 62.291766 331.520635 62.624149 
C 331.188252 62.956532 331.001495 63.407403 331.001495 63.877463 
C 331.001495 64.347524 331.188252 64.798395 331.520635 65.130778 
C 331.853018 65.46316 332.303889 65.649917 332.773949 65.649917 
z
" style="stroke:#000000;stroke-width:0.886227;"/>
    <path clip-path="url(#p98c3b79532)" d="M 140.88859 262.988454 
C 141.35865 262.988454 141.809522 262.801697 142.141904 262.469314 
C 142.474287 262.136931 142.661044 261.68606 142.661044 261.216 
C 142.661044 260.74594 142.474287 260.295069 142.141904 259.962686 
C 141.809522 259.630303 141.35865 259.443546 140.88859 259.443546 
C 140.41853 259.443546 139.967659 259.630303 139.635276 259.962686 
C 139.302893 260.295069 139.116136 260.74594 139.116136 261.216 
C 139.116136 261.68606 139.302893 262.136931 139.635276 262.469314 
C 139.967659 262.801697 140.41853 262.988454 140.88859 262.988454 
z
" style="stroke:#000000;stroke-width:0.886227;"/>
   </g>
  </g>
 </g>
 <defs>
  <clipPath id="p98c3b79532">
   <rect height="266.112" width="357.12" x="43.992938" y="7.2"/>
  </clipPath>
 </defs>
</svg>
