<?xml version="1.0" encoding="utf-8" standalone="no"?>
<!DOCTYPE svg PUBLIC "-//W3C//DTD SVG 1.1//EN"
  "http://www.w3.org/Graphics/SVG/1.1/DTD/svg11.dtd">
<!-- Created with matplotlib (https://matplotlib.org/) -->
<svg height="309.024687pt" version="1.1" viewBox="0 0 415.687063 309.024687" width="415.687063pt" xmlns="http://www.w3.org/2000/svg" xmlns:xlink="http://www.w3.org/1999/xlink">
 <metadata>
  <rdf:RDF xmlns:cc="http://creativecommons.org/ns#" xmlns:dc="http://purl.org/dc/elements/1.1/" xmlns:rdf="http://www.w3.org/1999/02/22-rdf-syntax-ns#">
   <cc:Work>
    <dc:type rdf:resource="http://purl.org/dc/dcmitype/StillImage"/>
    <dc:date>2020-12-04T12:08:08.921857</dc:date>
    <dc:format>image/svg+xml</dc:format>
    <dc:creator>
     <cc:Agent>
      <dc:title>Matplotlib v3.3.2, https://matplotlib.org/</dc:title>
     </cc:Agent>
    </dc:creator>
   </cc:Work>
  </rdf:RDF>
 </metadata>
 <defs>
  <style type="text/css">*{stroke-linecap:butt;stroke-linejoin:round;}</style>
 </defs>
 <g id="figure_1">
  <g id="patch_1">
   <path d="M 0 309.024687 
L 415.687062 309.024687 
L 415.687062 0 
L 0 0 
z
" style="fill:#ffffff;stroke:#ffffff;stroke-linejoin:miter;"/>
  </g>
  <g id="axes_1">
   <g id="patch_2">
    <path d="M 51.367063 273.312 
L 408.487063 273.312 
L 408.487063 7.2 
L 51.367063 7.2 
z
" style="fill:#ebebeb;"/>
   </g>
   <g id="matplotlib.axis_1">
    <g id="xtick_1">
     <g id="line2d_1">
      <path clip-path="url(#peb6da416c8)" d="M 118.827866 273.312 
L 118.827866 7.2 
" style="fill:none;stroke:#ffffff;"/>
     </g>
     <g id="line2d_2">
      <path d="M 118.827866 273.312 
" style="fill:none;stroke:#333333;stroke-width:1.5;"/>
      <defs>
       <path d="M 0 0 
L 0 2.75 
" id="m293e68f760" style="stroke:#000000;"/>
      </defs>
      <g>
       <use style="fill:#333333;stroke:#000000;" x="118.827866" xlink:href="#m293e68f760" y="273.312"/>
      </g>
     </g>
     <g id="text_1">
      <!-- −4 -->
      <g style="fill:#4d4d4d;" transform="translate(112.341304 284.948625)scale(0.088 -0.088)">
       <defs>
        <path d="M 10.59375 35.5 
L 73.1875 35.5 
L 73.1875 27.203125 
L 10.59375 27.203125 
z
" id="DejaVuSans-8722"/>
        <path d="M 37.796875 64.3125 
L 12.890625 25.390625 
L 37.796875 25.390625 
z
M 35.203125 72.90625 
L 47.609375 72.90625 
L 47.609375 25.390625 
L 58.015625 25.390625 
L 58.015625 17.1875 
L 47.609375 17.1875 
L 47.609375 0 
L 37.796875 0 
L 37.796875 17.1875 
L 4.890625 17.1875 
L 4.890625 26.703125 
z
" id="DejaVuSans-52"/>
       </defs>
       <use xlink:href="#DejaVuSans-8722"/>
       <use x="83.789062" xlink:href="#DejaVuSans-52"/>
      </g>
     </g>
    </g>
    <g id="xtick_2">
     <g id="line2d_3">
      <path clip-path="url(#peb6da416c8)" d="M 194.772428 273.312 
L 194.772428 7.2 
" style="fill:none;stroke:#ffffff;"/>
     </g>
     <g id="line2d_4">
      <path d="M 194.772428 273.312 
" style="fill:none;stroke:#333333;stroke-width:1.5;"/>
      <g>
       <use style="fill:#333333;stroke:#000000;" x="194.772428" xlink:href="#m293e68f760" y="273.312"/>
      </g>
     </g>
     <g id="text_2">
      <!-- −2 -->
      <g style="fill:#4d4d4d;" transform="translate(188.285866 284.948625)scale(0.088 -0.088)">
       <defs>
        <path d="M 19.1875 8.296875 
L 53.609375 8.296875 
L 53.609375 0 
L 7.328125 0 
L 7.328125 8.296875 
Q 12.9375 14.109375 22.625 23.890625 
Q 32.328125 33.6875 34.8125 36.53125 
Q 39.546875 41.84375 41.421875 45.53125 
Q 43.3125 49.21875 43.3125 52.78125 
Q 43.3125 58.59375 39.234375 62.25 
Q 35.15625 65.921875 28.609375 65.921875 
Q 23.96875 65.921875 18.8125 64.3125 
Q 13.671875 62.703125 7.8125 59.421875 
L 7.8125 69.390625 
Q 13.765625 71.78125 18.9375 73 
Q 24.125 74.21875 28.421875 74.21875 
Q 39.75 74.21875 46.484375 68.546875 
Q 53.21875 62.890625 53.21875 53.421875 
Q 53.21875 48.921875 51.53125 44.890625 
Q 49.859375 40.875 45.40625 35.40625 
Q 44.1875 33.984375 37.640625 27.21875 
Q 31.109375 20.453125 19.1875 8.296875 
z
" id="DejaVuSans-50"/>
       </defs>
       <use xlink:href="#DejaVuSans-8722"/>
       <use x="83.789062" xlink:href="#DejaVuSans-50"/>
      </g>
     </g>
    </g>
    <g id="xtick_3">
     <g id="line2d_5">
      <path clip-path="url(#peb6da416c8)" d="M 270.716991 273.312 
L 270.716991 7.2 
" style="fill:none;stroke:#ffffff;"/>
     </g>
     <g id="line2d_6">
      <path d="M 270.716991 273.312 
" style="fill:none;stroke:#333333;stroke-width:1.5;"/>
      <g>
       <use style="fill:#333333;stroke:#000000;" x="270.716991" xlink:href="#m293e68f760" y="273.312"/>
      </g>
     </g>
     <g id="text_3">
      <!-- 0 -->
      <g style="fill:#4d4d4d;" transform="translate(267.917491 284.948625)scale(0.088 -0.088)">
       <defs>
        <path d="M 31.78125 66.40625 
Q 24.171875 66.40625 20.328125 58.90625 
Q 16.5 51.421875 16.5 36.375 
Q 16.5 21.390625 20.328125 13.890625 
Q 24.171875 6.390625 31.78125 6.390625 
Q 39.453125 6.390625 43.28125 13.890625 
Q 47.125 21.390625 47.125 36.375 
Q 47.125 51.421875 43.28125 58.90625 
Q 39.453125 66.40625 31.78125 66.40625 
z
M 31.78125 74.21875 
Q 44.046875 74.21875 50.515625 64.515625 
Q 56.984375 54.828125 56.984375 36.375 
Q 56.984375 17.96875 50.515625 8.265625 
Q 44.046875 -1.421875 31.78125 -1.421875 
Q 19.53125 -1.421875 13.0625 8.265625 
Q 6.59375 17.96875 6.59375 36.375 
Q 6.59375 54.828125 13.0625 64.515625 
Q 19.53125 74.21875 31.78125 74.21875 
z
" id="DejaVuSans-48"/>
       </defs>
       <use xlink:href="#DejaVuSans-48"/>
      </g>
     </g>
    </g>
    <g id="xtick_4">
     <g id="line2d_7">
      <path clip-path="url(#peb6da416c8)" d="M 346.661553 273.312 
L 346.661553 7.2 
" style="fill:none;stroke:#ffffff;"/>
     </g>
     <g id="line2d_8">
      <path d="M 346.661553 273.312 
" style="fill:none;stroke:#333333;stroke-width:1.5;"/>
      <g>
       <use style="fill:#333333;stroke:#000000;" x="346.661553" xlink:href="#m293e68f760" y="273.312"/>
      </g>
     </g>
     <g id="text_4">
      <!-- 2 -->
      <g style="fill:#4d4d4d;" transform="translate(343.862053 284.948625)scale(0.088 -0.088)">
       <use xlink:href="#DejaVuSans-50"/>
      </g>
     </g>
    </g>
    <g id="xtick_5">
     <g id="line2d_9">
      <path clip-path="url(#peb6da416c8)" d="M 80.855585 273.312 
L 80.855585 7.2 
" style="fill:none;stroke:#ffffff;stroke-width:0.5;"/>
     </g>
    </g>
    <g id="xtick_6">
     <g id="line2d_10">
      <path clip-path="url(#peb6da416c8)" d="M 156.800147 273.312 
L 156.800147 7.2 
" style="fill:none;stroke:#ffffff;stroke-width:0.5;"/>
     </g>
    </g>
    <g id="xtick_7">
     <g id="line2d_11">
      <path clip-path="url(#peb6da416c8)" d="M 232.744709 273.312 
L 232.744709 7.2 
" style="fill:none;stroke:#ffffff;stroke-width:0.5;"/>
     </g>
    </g>
    <g id="xtick_8">
     <g id="line2d_12">
      <path clip-path="url(#peb6da416c8)" d="M 308.689272 273.312 
L 308.689272 7.2 
" style="fill:none;stroke:#ffffff;stroke-width:0.5;"/>
     </g>
    </g>
    <g id="xtick_9">
     <g id="line2d_13">
      <path clip-path="url(#peb6da416c8)" d="M 384.633834 273.312 
L 384.633834 7.2 
" style="fill:none;stroke:#ffffff;stroke-width:0.5;"/>
     </g>
    </g>
    <g id="text_5">
     <!-- Years of Schooling (Residualized) -->
     <g transform="translate(133.535656 299.537031)scale(0.11 -0.11)">
      <defs>
       <path d="M -0.203125 72.90625 
L 10.40625 72.90625 
L 30.609375 42.921875 
L 50.6875 72.90625 
L 61.28125 72.90625 
L 35.5 34.71875 
L 35.5 0 
L 25.59375 0 
L 25.59375 34.71875 
z
" id="DejaVuSans-89"/>
       <path d="M 56.203125 29.59375 
L 56.203125 25.203125 
L 14.890625 25.203125 
Q 15.484375 15.921875 20.484375 11.0625 
Q 25.484375 6.203125 34.421875 6.203125 
Q 39.59375 6.203125 44.453125 7.46875 
Q 49.3125 8.734375 54.109375 11.28125 
L 54.109375 2.78125 
Q 49.265625 0.734375 44.1875 -0.34375 
Q 39.109375 -1.421875 33.890625 -1.421875 
Q 20.796875 -1.421875 13.15625 6.1875 
Q 5.515625 13.8125 5.515625 26.8125 
Q 5.515625 40.234375 12.765625 48.109375 
Q 20.015625 56 32.328125 56 
Q 43.359375 56 49.78125 48.890625 
Q 56.203125 41.796875 56.203125 29.59375 
z
M 47.21875 32.234375 
Q 47.125 39.59375 43.09375 43.984375 
Q 39.0625 48.390625 32.421875 48.390625 
Q 24.90625 48.390625 20.390625 44.140625 
Q 15.875 39.890625 15.1875 32.171875 
z
" id="DejaVuSans-101"/>
       <path d="M 34.28125 27.484375 
Q 23.390625 27.484375 19.1875 25 
Q 14.984375 22.515625 14.984375 16.5 
Q 14.984375 11.71875 18.140625 8.90625 
Q 21.296875 6.109375 26.703125 6.109375 
Q 34.1875 6.109375 38.703125 11.40625 
Q 43.21875 16.703125 43.21875 25.484375 
L 43.21875 27.484375 
z
M 52.203125 31.203125 
L 52.203125 0 
L 43.21875 0 
L 43.21875 8.296875 
Q 40.140625 3.328125 35.546875 0.953125 
Q 30.953125 -1.421875 24.3125 -1.421875 
Q 15.921875 -1.421875 10.953125 3.296875 
Q 6 8.015625 6 15.921875 
Q 6 25.140625 12.171875 29.828125 
Q 18.359375 34.515625 30.609375 34.515625 
L 43.21875 34.515625 
L 43.21875 35.40625 
Q 43.21875 41.609375 39.140625 45 
Q 35.0625 48.390625 27.6875 48.390625 
Q 23 48.390625 18.546875 47.265625 
Q 14.109375 46.140625 10.015625 43.890625 
L 10.015625 52.203125 
Q 14.9375 54.109375 19.578125 55.046875 
Q 24.21875 56 28.609375 56 
Q 40.484375 56 46.34375 49.84375 
Q 52.203125 43.703125 52.203125 31.203125 
z
" id="DejaVuSans-97"/>
       <path d="M 41.109375 46.296875 
Q 39.59375 47.171875 37.8125 47.578125 
Q 36.03125 48 33.890625 48 
Q 26.265625 48 22.1875 43.046875 
Q 18.109375 38.09375 18.109375 28.8125 
L 18.109375 0 
L 9.078125 0 
L 9.078125 54.6875 
L 18.109375 54.6875 
L 18.109375 46.1875 
Q 20.953125 51.171875 25.484375 53.578125 
Q 30.03125 56 36.53125 56 
Q 37.453125 56 38.578125 55.875 
Q 39.703125 55.765625 41.0625 55.515625 
z
" id="DejaVuSans-114"/>
       <path d="M 44.28125 53.078125 
L 44.28125 44.578125 
Q 40.484375 46.53125 36.375 47.5 
Q 32.28125 48.484375 27.875 48.484375 
Q 21.1875 48.484375 17.84375 46.4375 
Q 14.5 44.390625 14.5 40.28125 
Q 14.5 37.15625 16.890625 35.375 
Q 19.28125 33.59375 26.515625 31.984375 
L 29.59375 31.296875 
Q 39.15625 29.25 43.1875 25.515625 
Q 47.21875 21.78125 47.21875 15.09375 
Q 47.21875 7.46875 41.1875 3.015625 
Q 35.15625 -1.421875 24.609375 -1.421875 
Q 20.21875 -1.421875 15.453125 -0.5625 
Q 10.6875 0.296875 5.421875 2 
L 5.421875 11.28125 
Q 10.40625 8.6875 15.234375 7.390625 
Q 20.0625 6.109375 24.8125 6.109375 
Q 31.15625 6.109375 34.5625 8.28125 
Q 37.984375 10.453125 37.984375 14.40625 
Q 37.984375 18.0625 35.515625 20.015625 
Q 33.0625 21.96875 24.703125 23.78125 
L 21.578125 24.515625 
Q 13.234375 26.265625 9.515625 29.90625 
Q 5.8125 33.546875 5.8125 39.890625 
Q 5.8125 47.609375 11.28125 51.796875 
Q 16.75 56 26.8125 56 
Q 31.78125 56 36.171875 55.265625 
Q 40.578125 54.546875 44.28125 53.078125 
z
" id="DejaVuSans-115"/>
       <path id="DejaVuSans-32"/>
       <path d="M 30.609375 48.390625 
Q 23.390625 48.390625 19.1875 42.75 
Q 14.984375 37.109375 14.984375 27.296875 
Q 14.984375 17.484375 19.15625 11.84375 
Q 23.34375 6.203125 30.609375 6.203125 
Q 37.796875 6.203125 41.984375 11.859375 
Q 46.1875 17.53125 46.1875 27.296875 
Q 46.1875 37.015625 41.984375 42.703125 
Q 37.796875 48.390625 30.609375 48.390625 
z
M 30.609375 56 
Q 42.328125 56 49.015625 48.375 
Q 55.71875 40.765625 55.71875 27.296875 
Q 55.71875 13.875 49.015625 6.21875 
Q 42.328125 -1.421875 30.609375 -1.421875 
Q 18.84375 -1.421875 12.171875 6.21875 
Q 5.515625 13.875 5.515625 27.296875 
Q 5.515625 40.765625 12.171875 48.375 
Q 18.84375 56 30.609375 56 
z
" id="DejaVuSans-111"/>
       <path d="M 37.109375 75.984375 
L 37.109375 68.5 
L 28.515625 68.5 
Q 23.6875 68.5 21.796875 66.546875 
Q 19.921875 64.59375 19.921875 59.515625 
L 19.921875 54.6875 
L 34.71875 54.6875 
L 34.71875 47.703125 
L 19.921875 47.703125 
L 19.921875 0 
L 10.890625 0 
L 10.890625 47.703125 
L 2.296875 47.703125 
L 2.296875 54.6875 
L 10.890625 54.6875 
L 10.890625 58.5 
Q 10.890625 67.625 15.140625 71.796875 
Q 19.390625 75.984375 28.609375 75.984375 
z
" id="DejaVuSans-102"/>
       <path d="M 53.515625 70.515625 
L 53.515625 60.890625 
Q 47.90625 63.578125 42.921875 64.890625 
Q 37.9375 66.21875 33.296875 66.21875 
Q 25.25 66.21875 20.875 63.09375 
Q 16.5 59.96875 16.5 54.203125 
Q 16.5 49.359375 19.40625 46.890625 
Q 22.3125 44.4375 30.421875 42.921875 
L 36.375 41.703125 
Q 47.40625 39.59375 52.65625 34.296875 
Q 57.90625 29 57.90625 20.125 
Q 57.90625 9.515625 50.796875 4.046875 
Q 43.703125 -1.421875 29.984375 -1.421875 
Q 24.8125 -1.421875 18.96875 -0.25 
Q 13.140625 0.921875 6.890625 3.21875 
L 6.890625 13.375 
Q 12.890625 10.015625 18.65625 8.296875 
Q 24.421875 6.59375 29.984375 6.59375 
Q 38.421875 6.59375 43.015625 9.90625 
Q 47.609375 13.234375 47.609375 19.390625 
Q 47.609375 24.75 44.3125 27.78125 
Q 41.015625 30.8125 33.5 32.328125 
L 27.484375 33.5 
Q 16.453125 35.6875 11.515625 40.375 
Q 6.59375 45.0625 6.59375 53.421875 
Q 6.59375 63.09375 13.40625 68.65625 
Q 20.21875 74.21875 32.171875 74.21875 
Q 37.3125 74.21875 42.625 73.28125 
Q 47.953125 72.359375 53.515625 70.515625 
z
" id="DejaVuSans-83"/>
       <path d="M 48.78125 52.59375 
L 48.78125 44.1875 
Q 44.96875 46.296875 41.140625 47.34375 
Q 37.3125 48.390625 33.40625 48.390625 
Q 24.65625 48.390625 19.8125 42.84375 
Q 14.984375 37.3125 14.984375 27.296875 
Q 14.984375 17.28125 19.8125 11.734375 
Q 24.65625 6.203125 33.40625 6.203125 
Q 37.3125 6.203125 41.140625 7.25 
Q 44.96875 8.296875 48.78125 10.40625 
L 48.78125 2.09375 
Q 45.015625 0.34375 40.984375 -0.53125 
Q 36.96875 -1.421875 32.421875 -1.421875 
Q 20.0625 -1.421875 12.78125 6.34375 
Q 5.515625 14.109375 5.515625 27.296875 
Q 5.515625 40.671875 12.859375 48.328125 
Q 20.21875 56 33.015625 56 
Q 37.15625 56 41.109375 55.140625 
Q 45.0625 54.296875 48.78125 52.59375 
z
" id="DejaVuSans-99"/>
       <path d="M 54.890625 33.015625 
L 54.890625 0 
L 45.90625 0 
L 45.90625 32.71875 
Q 45.90625 40.484375 42.875 44.328125 
Q 39.84375 48.1875 33.796875 48.1875 
Q 26.515625 48.1875 22.3125 43.546875 
Q 18.109375 38.921875 18.109375 30.90625 
L 18.109375 0 
L 9.078125 0 
L 9.078125 75.984375 
L 18.109375 75.984375 
L 18.109375 46.1875 
Q 21.34375 51.125 25.703125 53.5625 
Q 30.078125 56 35.796875 56 
Q 45.21875 56 50.046875 50.171875 
Q 54.890625 44.34375 54.890625 33.015625 
z
" id="DejaVuSans-104"/>
       <path d="M 9.421875 75.984375 
L 18.40625 75.984375 
L 18.40625 0 
L 9.421875 0 
z
" id="DejaVuSans-108"/>
       <path d="M 9.421875 54.6875 
L 18.40625 54.6875 
L 18.40625 0 
L 9.421875 0 
z
M 9.421875 75.984375 
L 18.40625 75.984375 
L 18.40625 64.59375 
L 9.421875 64.59375 
z
" id="DejaVuSans-105"/>
       <path d="M 54.890625 33.015625 
L 54.890625 0 
L 45.90625 0 
L 45.90625 32.71875 
Q 45.90625 40.484375 42.875 44.328125 
Q 39.84375 48.1875 33.796875 48.1875 
Q 26.515625 48.1875 22.3125 43.546875 
Q 18.109375 38.921875 18.109375 30.90625 
L 18.109375 0 
L 9.078125 0 
L 9.078125 54.6875 
L 18.109375 54.6875 
L 18.109375 46.1875 
Q 21.34375 51.125 25.703125 53.5625 
Q 30.078125 56 35.796875 56 
Q 45.21875 56 50.046875 50.171875 
Q 54.890625 44.34375 54.890625 33.015625 
z
" id="DejaVuSans-110"/>
       <path d="M 45.40625 27.984375 
Q 45.40625 37.75 41.375 43.109375 
Q 37.359375 48.484375 30.078125 48.484375 
Q 22.859375 48.484375 18.828125 43.109375 
Q 14.796875 37.75 14.796875 27.984375 
Q 14.796875 18.265625 18.828125 12.890625 
Q 22.859375 7.515625 30.078125 7.515625 
Q 37.359375 7.515625 41.375 12.890625 
Q 45.40625 18.265625 45.40625 27.984375 
z
M 54.390625 6.78125 
Q 54.390625 -7.171875 48.1875 -13.984375 
Q 42 -20.796875 29.203125 -20.796875 
Q 24.46875 -20.796875 20.265625 -20.09375 
Q 16.0625 -19.390625 12.109375 -17.921875 
L 12.109375 -9.1875 
Q 16.0625 -11.328125 19.921875 -12.34375 
Q 23.78125 -13.375 27.78125 -13.375 
Q 36.625 -13.375 41.015625 -8.765625 
Q 45.40625 -4.15625 45.40625 5.171875 
L 45.40625 9.625 
Q 42.625 4.78125 38.28125 2.390625 
Q 33.9375 0 27.875 0 
Q 17.828125 0 11.671875 7.65625 
Q 5.515625 15.328125 5.515625 27.984375 
Q 5.515625 40.671875 11.671875 48.328125 
Q 17.828125 56 27.875 56 
Q 33.9375 56 38.28125 53.609375 
Q 42.625 51.21875 45.40625 46.390625 
L 45.40625 54.6875 
L 54.390625 54.6875 
z
" id="DejaVuSans-103"/>
       <path d="M 31 75.875 
Q 24.46875 64.65625 21.28125 53.65625 
Q 18.109375 42.671875 18.109375 31.390625 
Q 18.109375 20.125 21.3125 9.0625 
Q 24.515625 -2 31 -13.1875 
L 23.1875 -13.1875 
Q 15.875 -1.703125 12.234375 9.375 
Q 8.59375 20.453125 8.59375 31.390625 
Q 8.59375 42.28125 12.203125 53.3125 
Q 15.828125 64.359375 23.1875 75.875 
z
" id="DejaVuSans-40"/>
       <path d="M 44.390625 34.1875 
Q 47.5625 33.109375 50.5625 29.59375 
Q 53.5625 26.078125 56.59375 19.921875 
L 66.609375 0 
L 56 0 
L 46.6875 18.703125 
Q 43.0625 26.03125 39.671875 28.421875 
Q 36.28125 30.8125 30.421875 30.8125 
L 19.671875 30.8125 
L 19.671875 0 
L 9.8125 0 
L 9.8125 72.90625 
L 32.078125 72.90625 
Q 44.578125 72.90625 50.734375 67.671875 
Q 56.890625 62.453125 56.890625 51.90625 
Q 56.890625 45.015625 53.6875 40.46875 
Q 50.484375 35.9375 44.390625 34.1875 
z
M 19.671875 64.796875 
L 19.671875 38.921875 
L 32.078125 38.921875 
Q 39.203125 38.921875 42.84375 42.21875 
Q 46.484375 45.515625 46.484375 51.90625 
Q 46.484375 58.296875 42.84375 61.546875 
Q 39.203125 64.796875 32.078125 64.796875 
z
" id="DejaVuSans-82"/>
       <path d="M 45.40625 46.390625 
L 45.40625 75.984375 
L 54.390625 75.984375 
L 54.390625 0 
L 45.40625 0 
L 45.40625 8.203125 
Q 42.578125 3.328125 38.25 0.953125 
Q 33.9375 -1.421875 27.875 -1.421875 
Q 17.96875 -1.421875 11.734375 6.484375 
Q 5.515625 14.40625 5.515625 27.296875 
Q 5.515625 40.1875 11.734375 48.09375 
Q 17.96875 56 27.875 56 
Q 33.9375 56 38.25 53.625 
Q 42.578125 51.265625 45.40625 46.390625 
z
M 14.796875 27.296875 
Q 14.796875 17.390625 18.875 11.75 
Q 22.953125 6.109375 30.078125 6.109375 
Q 37.203125 6.109375 41.296875 11.75 
Q 45.40625 17.390625 45.40625 27.296875 
Q 45.40625 37.203125 41.296875 42.84375 
Q 37.203125 48.484375 30.078125 48.484375 
Q 22.953125 48.484375 18.875 42.84375 
Q 14.796875 37.203125 14.796875 27.296875 
z
" id="DejaVuSans-100"/>
       <path d="M 8.5 21.578125 
L 8.5 54.6875 
L 17.484375 54.6875 
L 17.484375 21.921875 
Q 17.484375 14.15625 20.5 10.265625 
Q 23.53125 6.390625 29.59375 6.390625 
Q 36.859375 6.390625 41.078125 11.03125 
Q 45.3125 15.671875 45.3125 23.6875 
L 45.3125 54.6875 
L 54.296875 54.6875 
L 54.296875 0 
L 45.3125 0 
L 45.3125 8.40625 
Q 42.046875 3.421875 37.71875 1 
Q 33.40625 -1.421875 27.6875 -1.421875 
Q 18.265625 -1.421875 13.375 4.4375 
Q 8.5 10.296875 8.5 21.578125 
z
M 31.109375 56 
z
" id="DejaVuSans-117"/>
       <path d="M 5.515625 54.6875 
L 48.1875 54.6875 
L 48.1875 46.484375 
L 14.40625 7.171875 
L 48.1875 7.171875 
L 48.1875 0 
L 4.296875 0 
L 4.296875 8.203125 
L 38.09375 47.515625 
L 5.515625 47.515625 
z
" id="DejaVuSans-122"/>
       <path d="M 8.015625 75.875 
L 15.828125 75.875 
Q 23.140625 64.359375 26.78125 53.3125 
Q 30.421875 42.28125 30.421875 31.390625 
Q 30.421875 20.453125 26.78125 9.375 
Q 23.140625 -1.703125 15.828125 -13.1875 
L 8.015625 -13.1875 
Q 14.5 -2 17.703125 9.0625 
Q 20.90625 20.125 20.90625 31.390625 
Q 20.90625 42.671875 17.703125 53.65625 
Q 14.5 64.65625 8.015625 75.875 
z
" id="DejaVuSans-41"/>
      </defs>
      <use xlink:href="#DejaVuSans-89"/>
      <use x="47.833984" xlink:href="#DejaVuSans-101"/>
      <use x="109.357422" xlink:href="#DejaVuSans-97"/>
      <use x="170.636719" xlink:href="#DejaVuSans-114"/>
      <use x="211.75" xlink:href="#DejaVuSans-115"/>
      <use x="263.849609" xlink:href="#DejaVuSans-32"/>
      <use x="295.636719" xlink:href="#DejaVuSans-111"/>
      <use x="356.818359" xlink:href="#DejaVuSans-102"/>
      <use x="392.023438" xlink:href="#DejaVuSans-32"/>
      <use x="423.810547" xlink:href="#DejaVuSans-83"/>
      <use x="487.287109" xlink:href="#DejaVuSans-99"/>
      <use x="542.267578" xlink:href="#DejaVuSans-104"/>
      <use x="605.646484" xlink:href="#DejaVuSans-111"/>
      <use x="666.828125" xlink:href="#DejaVuSans-111"/>
      <use x="728.009766" xlink:href="#DejaVuSans-108"/>
      <use x="755.792969" xlink:href="#DejaVuSans-105"/>
      <use x="783.576172" xlink:href="#DejaVuSans-110"/>
      <use x="846.955078" xlink:href="#DejaVuSans-103"/>
      <use x="910.431641" xlink:href="#DejaVuSans-32"/>
      <use x="942.21875" xlink:href="#DejaVuSans-40"/>
      <use x="981.232422" xlink:href="#DejaVuSans-82"/>
      <use x="1046.214844" xlink:href="#DejaVuSans-101"/>
      <use x="1107.738281" xlink:href="#DejaVuSans-115"/>
      <use x="1159.837891" xlink:href="#DejaVuSans-105"/>
      <use x="1187.621094" xlink:href="#DejaVuSans-100"/>
      <use x="1251.097656" xlink:href="#DejaVuSans-117"/>
      <use x="1314.476562" xlink:href="#DejaVuSans-97"/>
      <use x="1375.755859" xlink:href="#DejaVuSans-108"/>
      <use x="1403.539062" xlink:href="#DejaVuSans-105"/>
      <use x="1431.322266" xlink:href="#DejaVuSans-122"/>
      <use x="1483.8125" xlink:href="#DejaVuSans-101"/>
      <use x="1545.335938" xlink:href="#DejaVuSans-100"/>
      <use x="1608.8125" xlink:href="#DejaVuSans-41"/>
     </g>
    </g>
   </g>
   <g id="matplotlib.axis_2">
    <g id="ytick_1">
     <g id="line2d_14">
      <path clip-path="url(#peb6da416c8)" d="M 51.367063 212.056801 
L 408.487063 212.056801 
" style="fill:none;stroke:#ffffff;"/>
     </g>
     <g id="line2d_15">
      <path d="M 51.367063 212.056801 
" style="fill:none;stroke:#333333;stroke-width:1.5;"/>
      <defs>
       <path d="M 0 0 
L -2.75 0 
" id="m6bd1bd3ea3" style="stroke:#000000;"/>
      </defs>
      <g>
       <use style="fill:#333333;stroke:#000000;" x="51.367063" xlink:href="#m6bd1bd3ea3" y="212.056801"/>
      </g>
     </g>
     <g id="text_6">
      <!-- −100 -->
      <g style="fill:#4d4d4d;" transform="translate(22.245938 214.485051)scale(0.088 -0.088)">
       <defs>
        <path d="M 12.40625 8.296875 
L 28.515625 8.296875 
L 28.515625 63.921875 
L 10.984375 60.40625 
L 10.984375 69.390625 
L 28.421875 72.90625 
L 38.28125 72.90625 
L 38.28125 8.296875 
L 54.390625 8.296875 
L 54.390625 0 
L 12.40625 0 
z
" id="DejaVuSans-49"/>
       </defs>
       <use xlink:href="#DejaVuSans-8722"/>
       <use x="83.789062" xlink:href="#DejaVuSans-49"/>
       <use x="147.412109" xlink:href="#DejaVuSans-48"/>
       <use x="211.035156" xlink:href="#DejaVuSans-48"/>
      </g>
     </g>
    </g>
    <g id="ytick_2">
     <g id="line2d_16">
      <path clip-path="url(#peb6da416c8)" d="M 51.367063 136.34209 
L 408.487063 136.34209 
" style="fill:none;stroke:#ffffff;"/>
     </g>
     <g id="line2d_17">
      <path d="M 51.367063 136.34209 
" style="fill:none;stroke:#333333;stroke-width:1.5;"/>
      <g>
       <use style="fill:#333333;stroke:#000000;" x="51.367063" xlink:href="#m6bd1bd3ea3" y="136.34209"/>
      </g>
     </g>
     <g id="text_7">
      <!-- 0 -->
      <g style="fill:#4d4d4d;" transform="translate(40.818063 138.77034)scale(0.088 -0.088)">
       <use xlink:href="#DejaVuSans-48"/>
      </g>
     </g>
    </g>
    <g id="ytick_3">
     <g id="line2d_18">
      <path clip-path="url(#peb6da416c8)" d="M 51.367063 60.627379 
L 408.487063 60.627379 
" style="fill:none;stroke:#ffffff;"/>
     </g>
     <g id="line2d_19">
      <path d="M 51.367063 60.627379 
" style="fill:none;stroke:#333333;stroke-width:1.5;"/>
      <g>
       <use style="fill:#333333;stroke:#000000;" x="51.367063" xlink:href="#m6bd1bd3ea3" y="60.627379"/>
      </g>
     </g>
     <g id="text_8">
      <!-- 100 -->
      <g style="fill:#4d4d4d;" transform="translate(29.620063 63.055629)scale(0.088 -0.088)">
       <use xlink:href="#DejaVuSans-49"/>
       <use x="63.623047" xlink:href="#DejaVuSans-48"/>
       <use x="127.246094" xlink:href="#DejaVuSans-48"/>
      </g>
     </g>
    </g>
    <g id="ytick_4">
     <g id="line2d_20">
      <path clip-path="url(#peb6da416c8)" d="M 51.367063 249.914156 
L 408.487063 249.914156 
" style="fill:none;stroke:#ffffff;stroke-width:0.5;"/>
     </g>
    </g>
    <g id="ytick_5">
     <g id="line2d_21">
      <path clip-path="url(#peb6da416c8)" d="M 51.367063 174.199445 
L 408.487063 174.199445 
" style="fill:none;stroke:#ffffff;stroke-width:0.5;"/>
     </g>
    </g>
    <g id="ytick_6">
     <g id="line2d_22">
      <path clip-path="url(#peb6da416c8)" d="M 51.367063 98.484735 
L 408.487063 98.484735 
" style="fill:none;stroke:#ffffff;stroke-width:0.5;"/>
     </g>
    </g>
    <g id="ytick_7">
     <g id="line2d_23">
      <path clip-path="url(#peb6da416c8)" d="M 51.367063 22.770024 
L 408.487063 22.770024 
" style="fill:none;stroke:#ffffff;stroke-width:0.5;"/>
     </g>
    </g>
    <g id="text_9">
     <!-- TIMMS score (residualized) -->
     <g transform="translate(15.558281 212.136906)rotate(-90)scale(0.11 -0.11)">
      <defs>
       <path d="M -0.296875 72.90625 
L 61.375 72.90625 
L 61.375 64.59375 
L 35.5 64.59375 
L 35.5 0 
L 25.59375 0 
L 25.59375 64.59375 
L -0.296875 64.59375 
z
" id="DejaVuSans-84"/>
       <path d="M 9.8125 72.90625 
L 19.671875 72.90625 
L 19.671875 0 
L 9.8125 0 
z
" id="DejaVuSans-73"/>
       <path d="M 9.8125 72.90625 
L 24.515625 72.90625 
L 43.109375 23.296875 
L 61.8125 72.90625 
L 76.515625 72.90625 
L 76.515625 0 
L 66.890625 0 
L 66.890625 64.015625 
L 48.09375 14.015625 
L 38.1875 14.015625 
L 19.390625 64.015625 
L 19.390625 0 
L 9.8125 0 
z
" id="DejaVuSans-77"/>
      </defs>
      <use xlink:href="#DejaVuSans-84"/>
      <use x="61.083984" xlink:href="#DejaVuSans-73"/>
      <use x="90.576172" xlink:href="#DejaVuSans-77"/>
      <use x="176.855469" xlink:href="#DejaVuSans-77"/>
      <use x="263.134766" xlink:href="#DejaVuSans-83"/>
      <use x="326.611328" xlink:href="#DejaVuSans-32"/>
      <use x="358.398438" xlink:href="#DejaVuSans-115"/>
      <use x="410.498047" xlink:href="#DejaVuSans-99"/>
      <use x="465.478516" xlink:href="#DejaVuSans-111"/>
      <use x="526.660156" xlink:href="#DejaVuSans-114"/>
      <use x="565.523438" xlink:href="#DejaVuSans-101"/>
      <use x="627.046875" xlink:href="#DejaVuSans-32"/>
      <use x="658.833984" xlink:href="#DejaVuSans-40"/>
      <use x="697.847656" xlink:href="#DejaVuSans-114"/>
      <use x="736.710938" xlink:href="#DejaVuSans-101"/>
      <use x="798.234375" xlink:href="#DejaVuSans-115"/>
      <use x="850.333984" xlink:href="#DejaVuSans-105"/>
      <use x="878.117188" xlink:href="#DejaVuSans-100"/>
      <use x="941.59375" xlink:href="#DejaVuSans-117"/>
      <use x="1004.972656" xlink:href="#DejaVuSans-97"/>
      <use x="1066.251953" xlink:href="#DejaVuSans-108"/>
      <use x="1094.035156" xlink:href="#DejaVuSans-105"/>
      <use x="1121.818359" xlink:href="#DejaVuSans-122"/>
      <use x="1174.308594" xlink:href="#DejaVuSans-101"/>
      <use x="1235.832031" xlink:href="#DejaVuSans-100"/>
      <use x="1299.308594" xlink:href="#DejaVuSans-41"/>
     </g>
    </g>
   </g>
   <g id="PathCollection_1">
    <path clip-path="url(#peb6da416c8)" d="M 174.052506 192.91205 
C 174.522567 192.91205 174.973438 192.725293 175.305821 192.39291 
C 175.638203 192.060528 175.82496 191.609656 175.82496 191.139596 
C 175.82496 190.669536 175.638203 190.218665 175.305821 189.886282 
C 174.973438 189.553899 174.522567 189.367142 174.052506 189.367142 
C 173.582446 189.367142 173.131575 189.553899 172.799192 189.886282 
C 172.46681 190.218665 172.280053 190.669536 172.280053 191.139596 
C 172.280053 191.609656 172.46681 192.060528 172.799192 192.39291 
C 173.131575 192.725293 173.582446 192.91205 174.052506 192.91205 
z
" style="stroke:#000000;stroke-width:0.886227;"/>
    <path clip-path="url(#peb6da416c8)" d="M 283.121004 176.710806 
C 283.591064 176.710806 284.041936 176.524049 284.374318 176.191666 
C 284.706701 175.859283 284.893458 175.408412 284.893458 174.938352 
C 284.893458 174.468292 284.706701 174.017421 284.374318 173.685038 
C 284.041936 173.352655 283.591064 173.165898 283.121004 173.165898 
C 282.650944 173.165898 282.200073 173.352655 281.86769 173.685038 
C 281.535307 174.017421 281.34855 174.468292 281.34855 174.938352 
C 281.34855 175.408412 281.535307 175.859283 281.86769 176.191666 
C 282.200073 176.524049 282.650944 176.710806 283.121004 176.710806 
z
" style="stroke:#000000;stroke-width:0.886227;"/>
    <path clip-path="url(#peb6da416c8)" d="M 392.254335 114.117857 
C 392.724395 114.117857 393.175267 113.9311 393.507649 113.598717 
C 393.840032 113.266335 394.026789 112.815463 394.026789 112.345403 
C 394.026789 111.875343 393.840032 111.424472 393.507649 111.092089 
C 393.175267 110.759706 392.724395 110.572949 392.254335 110.572949 
C 391.784275 110.572949 391.333404 110.759706 391.001021 111.092089 
C 390.668638 111.424472 390.481881 111.875343 390.481881 112.345403 
C 390.481881 112.815463 390.668638 113.266335 391.001021 113.598717 
C 391.333404 113.9311 391.784275 114.117857 392.254335 114.117857 
z
" style="stroke:#000000;stroke-width:0.886227;"/>
    <path clip-path="url(#peb6da416c8)" d="M 298.62814 117.062614 
C 299.0982 117.062614 299.549071 116.875857 299.881454 116.543474 
C 300.213837 116.211091 300.400594 115.76022 300.400594 115.29016 
C 300.400594 114.8201 300.213837 114.369229 299.881454 114.036846 
C 299.549071 113.704463 299.0982 113.517706 298.62814 113.517706 
C 298.15808 113.517706 297.707209 113.704463 297.374826 114.036846 
C 297.042443 114.369229 296.855686 114.8201 296.855686 115.29016 
C 296.855686 115.76022 297.042443 116.211091 297.374826 116.543474 
C 297.707209 116.875857 298.15808 117.062614 298.62814 117.062614 
z
" style="stroke:#000000;stroke-width:0.886227;"/>
    <path clip-path="url(#peb6da416c8)" d="M 223.973502 124.332274 
C 224.443563 124.332274 224.894434 124.145517 225.226816 123.813135 
C 225.559199 123.480752 225.745956 123.029881 225.745956 122.55982 
C 225.745956 122.08976 225.559199 121.638889 225.226816 121.306506 
C 224.894434 120.974124 224.443563 120.787367 223.973502 120.787367 
C 223.503442 120.787367 223.052571 120.974124 222.720188 121.306506 
C 222.387805 121.638889 222.201048 122.08976 222.201048 122.55982 
C 222.201048 123.029881 222.387805 123.480752 222.720188 123.813135 
C 223.052571 124.145517 223.503442 124.332274 223.973502 124.332274 
z
" style="stroke:#000000;stroke-width:0.886227;"/>
    <path clip-path="url(#peb6da416c8)" d="M 290.094453 21.068454 
C 290.564514 21.068454 291.015385 20.881697 291.347768 20.549314 
C 291.68015 20.216931 291.866907 19.76606 291.866907 19.296 
C 291.866907 18.82594 291.68015 18.375069 291.347768 18.042686 
C 291.015385 17.710303 290.564514 17.523546 290.094453 17.523546 
C 289.624393 17.523546 289.173522 17.710303 288.841139 18.042686 
C 288.508757 18.375069 288.322 18.82594 288.322 19.296 
C 288.322 19.76606 288.508757 20.216931 288.841139 20.549314 
C 289.173522 20.881697 289.624393 21.068454 290.094453 21.068454 
z
" style="stroke:#000000;stroke-width:0.886227;"/>
    <path clip-path="url(#peb6da416c8)" d="M 258.589842 117.070556 
C 259.059903 117.070556 259.510774 116.883799 259.843157 116.551416 
C 260.175539 116.219034 260.362296 115.768163 260.362296 115.298102 
C 260.362296 114.828042 260.175539 114.377171 259.843157 114.044788 
C 259.510774 113.712405 259.059903 113.525648 258.589842 113.525648 
C 258.119782 113.525648 257.668911 113.712405 257.336528 114.044788 
C 257.004145 114.377171 256.817389 114.828042 256.817389 115.298102 
C 256.817389 115.768163 257.004145 116.219034 257.336528 116.551416 
C 257.668911 116.883799 258.119782 117.070556 258.589842 117.070556 
z
" style="stroke:#000000;stroke-width:0.886227;"/>
    <path clip-path="url(#peb6da416c8)" d="M 128.146782 178.540811 
C 128.616842 178.540811 129.067714 178.354054 129.400096 178.021671 
C 129.732479 177.689288 129.919236 177.238417 129.919236 176.768357 
C 129.919236 176.298297 129.732479 175.847426 129.400096 175.515043 
C 129.067714 175.18266 128.616842 174.995903 128.146782 174.995903 
C 127.676722 174.995903 127.225851 175.18266 126.893468 175.515043 
C 126.561085 175.847426 126.374328 176.298297 126.374328 176.768357 
C 126.374328 177.238417 126.561085 177.689288 126.893468 178.021671 
C 127.225851 178.354054 127.676722 178.540811 128.146782 178.540811 
z
" style="stroke:#000000;stroke-width:0.886227;"/>
    <path clip-path="url(#peb6da416c8)" d="M 241.110565 165.348994 
C 241.580625 165.348994 242.031496 165.162237 242.363879 164.829854 
C 242.696262 164.497472 242.883018 164.046601 242.883018 163.57654 
C 242.883018 163.10648 242.696262 162.655609 242.363879 162.323226 
C 242.031496 161.990843 241.580625 161.804086 241.110565 161.804086 
C 240.640504 161.804086 240.189633 161.990843 239.85725 162.323226 
C 239.524868 162.655609 239.338111 163.10648 239.338111 163.57654 
C 239.338111 164.046601 239.524868 164.497472 239.85725 164.829854 
C 240.189633 165.162237 240.640504 165.348994 241.110565 165.348994 
z
" style="stroke:#000000;stroke-width:0.886227;"/>
    <path clip-path="url(#peb6da416c8)" d="M 301.048275 167.27883 
C 301.518336 167.27883 301.969207 167.092073 302.30159 166.75969 
C 302.633972 166.427307 302.820729 165.976436 302.820729 165.506376 
C 302.820729 165.036316 302.633972 164.585445 302.30159 164.253062 
C 301.969207 163.920679 301.518336 163.733922 301.048275 163.733922 
C 300.578215 163.733922 300.127344 163.920679 299.794961 164.253062 
C 299.462579 164.585445 299.275822 165.036316 299.275822 165.506376 
C 299.275822 165.976436 299.462579 166.427307 299.794961 166.75969 
C 300.127344 167.092073 300.578215 167.27883 301.048275 167.27883 
z
" style="stroke:#000000;stroke-width:0.886227;"/>
    <path clip-path="url(#peb6da416c8)" d="M 280.871584 139.274972 
C 281.341645 139.274972 281.792516 139.088215 282.124899 138.755832 
C 282.457281 138.423449 282.644038 137.972578 282.644038 137.502518 
C 282.644038 137.032457 282.457281 136.581586 282.124899 136.249204 
C 281.792516 135.916821 281.341645 135.730064 280.871584 135.730064 
C 280.401524 135.730064 279.950653 135.916821 279.61827 136.249204 
C 279.285887 136.581586 279.099131 137.032457 279.099131 137.502518 
C 279.099131 137.972578 279.285887 138.423449 279.61827 138.755832 
C 279.950653 139.088215 280.401524 139.274972 280.871584 139.274972 
z
" style="stroke:#000000;stroke-width:0.886227;"/>
    <path clip-path="url(#peb6da416c8)" d="M 230.384418 155.857089 
C 230.854478 155.857089 231.305349 155.670332 231.637732 155.337949 
C 231.970115 155.005567 232.156872 154.554695 232.156872 154.084635 
C 232.156872 153.614575 231.970115 153.163704 231.637732 152.831321 
C 231.305349 152.498938 230.854478 152.312181 230.384418 152.312181 
C 229.914358 152.312181 229.463487 152.498938 229.131104 152.831321 
C 228.798721 153.163704 228.611964 153.614575 228.611964 154.084635 
C 228.611964 154.554695 228.798721 155.005567 229.131104 155.337949 
C 229.463487 155.670332 229.914358 155.857089 230.384418 155.857089 
z
" style="stroke:#000000;stroke-width:0.886227;"/>
    <path clip-path="url(#peb6da416c8)" d="M 286.590225 144.891335 
C 287.060286 144.891335 287.511157 144.704578 287.843539 144.372195 
C 288.175922 144.039813 288.362679 143.588942 288.362679 143.118881 
C 288.362679 142.648821 288.175922 142.19795 287.843539 141.865567 
C 287.511157 141.533184 287.060286 141.346427 286.590225 141.346427 
C 286.120165 141.346427 285.669294 141.533184 285.336911 141.865567 
C 285.004528 142.19795 284.817772 142.648821 284.817772 143.118881 
C 284.817772 143.588942 285.004528 144.039813 285.336911 144.372195 
C 285.669294 144.704578 286.120165 144.891335 286.590225 144.891335 
z
" style="stroke:#000000;stroke-width:0.886227;"/>
    <path clip-path="url(#peb6da416c8)" d="M 239.654263 172.197456 
C 240.124323 172.197456 240.575195 172.010699 240.907577 171.678316 
C 241.23996 171.345933 241.426717 170.895062 241.426717 170.425002 
C 241.426717 169.954942 241.23996 169.504071 240.907577 169.171688 
C 240.575195 168.839305 240.124323 168.652548 239.654263 168.652548 
C 239.184203 168.652548 238.733332 168.839305 238.400949 169.171688 
C 238.068566 169.504071 237.881809 169.954942 237.881809 170.425002 
C 237.881809 170.895062 238.068566 171.345933 238.400949 171.678316 
C 238.733332 172.010699 239.184203 172.197456 239.654263 172.197456 
z
" style="stroke:#000000;stroke-width:0.886227;"/>
    <path clip-path="url(#peb6da416c8)" d="M 290.439914 177.168319 
C 290.909975 177.168319 291.360846 176.981562 291.693229 176.649179 
C 292.025611 176.316796 292.212368 175.865925 292.212368 175.395865 
C 292.212368 174.925805 292.025611 174.474934 291.693229 174.142551 
C 291.360846 173.810168 290.909975 173.623411 290.439914 173.623411 
C 289.969854 173.623411 289.518983 173.810168 289.1866 174.142551 
C 288.854217 174.474934 288.667461 174.925805 288.667461 175.395865 
C 288.667461 175.865925 288.854217 176.316796 289.1866 176.649179 
C 289.518983 176.981562 289.969854 177.168319 290.439914 177.168319 
z
" style="stroke:#000000;stroke-width:0.886227;"/>
    <path clip-path="url(#peb6da416c8)" d="M 242.955757 152.67758 
C 243.425817 152.67758 243.876688 152.490823 244.209071 152.158441 
C 244.541453 151.826058 244.72821 151.375187 244.72821 150.905126 
C 244.72821 150.435066 244.541453 149.984195 244.209071 149.651812 
C 243.876688 149.319429 243.425817 149.132673 242.955757 149.132673 
C 242.485696 149.132673 242.034825 149.319429 241.702442 149.651812 
C 241.37006 149.984195 241.183303 150.435066 241.183303 150.905126 
C 241.183303 151.375187 241.37006 151.826058 241.702442 152.158441 
C 242.034825 152.490823 242.485696 152.67758 242.955757 152.67758 
z
" style="stroke:#000000;stroke-width:0.886227;"/>
    <path clip-path="url(#peb6da416c8)" d="M 373.018216 110.333598 
C 373.488276 110.333598 373.939147 110.146841 374.27153 109.814458 
C 374.603913 109.482075 374.79067 109.031204 374.79067 108.561144 
C 374.79067 108.091083 374.603913 107.640212 374.27153 107.30783 
C 373.939147 106.975447 373.488276 106.78869 373.018216 106.78869 
C 372.548156 106.78869 372.097285 106.975447 371.764902 107.30783 
C 371.432519 107.640212 371.245762 108.091083 371.245762 108.561144 
C 371.245762 109.031204 371.432519 109.482075 371.764902 109.814458 
C 372.097285 110.146841 372.548156 110.333598 373.018216 110.333598 
z
" style="stroke:#000000;stroke-width:0.886227;"/>
    <path clip-path="url(#peb6da416c8)" d="M 329.547718 109.648678 
C 330.017778 109.648678 330.468649 109.461922 330.801032 109.129539 
C 331.133415 108.797156 331.320171 108.346285 331.320171 107.876225 
C 331.320171 107.406164 331.133415 106.955293 330.801032 106.62291 
C 330.468649 106.290528 330.017778 106.103771 329.547718 106.103771 
C 329.077657 106.103771 328.626786 106.290528 328.294403 106.62291 
C 327.962021 106.955293 327.775264 107.406164 327.775264 107.876225 
C 327.775264 108.346285 327.962021 108.797156 328.294403 109.129539 
C 328.626786 109.461922 329.077657 109.648678 329.547718 109.648678 
z
" style="stroke:#000000;stroke-width:0.886227;"/>
    <path clip-path="url(#peb6da416c8)" d="M 286.52115 102.395543 
C 286.99121 102.395543 287.442081 102.208786 287.774464 101.876403 
C 288.106846 101.54402 288.293603 101.093149 288.293603 100.623089 
C 288.293603 100.153029 288.106846 99.702158 287.774464 99.369775 
C 287.442081 99.037392 286.99121 98.850635 286.52115 98.850635 
C 286.051089 98.850635 285.600218 99.037392 285.267835 99.369775 
C 284.935453 99.702158 284.748696 100.153029 284.748696 100.623089 
C 284.748696 101.093149 284.935453 101.54402 285.267835 101.876403 
C 285.600218 102.208786 286.051089 102.395543 286.52115 102.395543 
z
" style="stroke:#000000;stroke-width:0.886227;"/>
    <path clip-path="url(#peb6da416c8)" d="M 243.88023 243.468985 
C 244.35029 243.468985 244.801161 243.282228 245.133544 242.949845 
C 245.465927 242.617462 245.652684 242.166591 245.652684 241.696531 
C 245.652684 241.226471 245.465927 240.7756 245.133544 240.443217 
C 244.801161 240.110834 244.35029 239.924077 243.88023 239.924077 
C 243.41017 239.924077 242.959299 240.110834 242.626916 240.443217 
C 242.294533 240.7756 242.107776 241.226471 242.107776 241.696531 
C 242.107776 242.166591 242.294533 242.617462 242.626916 242.949845 
C 242.959299 243.282228 243.41017 243.468985 243.88023 243.468985 
z
" style="stroke:#000000;stroke-width:0.886227;"/>
    <path clip-path="url(#peb6da416c8)" d="M 253.389532 171.194448 
C 253.859592 171.194448 254.310463 171.007691 254.642846 170.675308 
C 254.975229 170.342925 255.161985 169.892054 255.161985 169.421994 
C 255.161985 168.951934 254.975229 168.501063 254.642846 168.16868 
C 254.310463 167.836297 253.859592 167.64954 253.389532 167.64954 
C 252.919471 167.64954 252.4686 167.836297 252.136217 168.16868 
C 251.803835 168.501063 251.617078 168.951934 251.617078 169.421994 
C 251.617078 169.892054 251.803835 170.342925 252.136217 170.675308 
C 252.4686 171.007691 252.919471 171.194448 253.389532 171.194448 
z
" style="stroke:#000000;stroke-width:0.886227;"/>
    <path clip-path="url(#peb6da416c8)" d="M 273.009368 133.22841 
C 273.479428 133.22841 273.9303 133.041653 274.262682 132.70927 
C 274.595065 132.376887 274.781822 131.926016 274.781822 131.455956 
C 274.781822 130.985896 274.595065 130.535025 274.262682 130.202642 
C 273.9303 129.870259 273.479428 129.683502 273.009368 129.683502 
C 272.539308 129.683502 272.088437 129.870259 271.756054 130.202642 
C 271.423671 130.535025 271.236914 130.985896 271.236914 131.455956 
C 271.236914 131.926016 271.423671 132.376887 271.756054 132.70927 
C 272.088437 133.041653 272.539308 133.22841 273.009368 133.22841 
z
" style="stroke:#000000;stroke-width:0.886227;"/>
    <path clip-path="url(#peb6da416c8)" d="M 242.521305 91.447467 
C 242.991365 91.447467 243.442236 91.26071 243.774619 90.928327 
C 244.107002 90.595945 244.293759 90.145074 244.293759 89.675013 
C 244.293759 89.204953 244.107002 88.754082 243.774619 88.421699 
C 243.442236 88.089316 242.991365 87.902559 242.521305 87.902559 
C 242.051245 87.902559 241.600374 88.089316 241.267991 88.421699 
C 240.935608 88.754082 240.748851 89.204953 240.748851 89.675013 
C 240.748851 90.145074 240.935608 90.595945 241.267991 90.928327 
C 241.600374 91.26071 242.051245 91.447467 242.521305 91.447467 
z
" style="stroke:#000000;stroke-width:0.886227;"/>
    <path clip-path="url(#peb6da416c8)" d="M 167.118884 189.943639 
C 167.588944 189.943639 168.039815 189.756882 168.372198 189.424499 
C 168.704581 189.092117 168.891338 188.641246 168.891338 188.171185 
C 168.891338 187.701125 168.704581 187.250254 168.372198 186.917871 
C 168.039815 186.585488 167.588944 186.398731 167.118884 186.398731 
C 166.648824 186.398731 166.197953 186.585488 165.86557 186.917871 
C 165.533187 187.250254 165.34643 187.701125 165.34643 188.171185 
C 165.34643 188.641246 165.533187 189.092117 165.86557 189.424499 
C 166.197953 189.756882 166.648824 189.943639 167.118884 189.943639 
z
" style="stroke:#000000;stroke-width:0.886227;"/>
    <path clip-path="url(#peb6da416c8)" d="M 277.276275 58.385408 
C 277.746335 58.385408 278.197206 58.198651 278.529589 57.866268 
C 278.861971 57.533885 279.048728 57.083014 279.048728 56.612954 
C 279.048728 56.142894 278.861971 55.692023 278.529589 55.35964 
C 278.197206 55.027257 277.746335 54.8405 277.276275 54.8405 
C 276.806214 54.8405 276.355343 55.027257 276.02296 55.35964 
C 275.690578 55.692023 275.503821 56.142894 275.503821 56.612954 
C 275.503821 57.083014 275.690578 57.533885 276.02296 57.866268 
C 276.355343 58.198651 276.806214 58.385408 277.276275 58.385408 
z
" style="stroke:#000000;stroke-width:0.886227;"/>
    <path clip-path="url(#peb6da416c8)" d="M 267.789038 152.869589 
C 268.259098 152.869589 268.709969 152.682832 269.042352 152.350449 
C 269.374735 152.018067 269.561492 151.567195 269.561492 151.097135 
C 269.561492 150.627075 269.374735 150.176204 269.042352 149.843821 
C 268.709969 149.511438 268.259098 149.324681 267.789038 149.324681 
C 267.318978 149.324681 266.868107 149.511438 266.535724 149.843821 
C 266.203341 150.176204 266.016584 150.627075 266.016584 151.097135 
C 266.016584 151.567195 266.203341 152.018067 266.535724 152.350449 
C 266.868107 152.682832 267.318978 152.869589 267.789038 152.869589 
z
" style="stroke:#000000;stroke-width:0.886227;"/>
    <path clip-path="url(#peb6da416c8)" d="M 344.760693 113.963682 
C 345.230753 113.963682 345.681624 113.776925 346.014007 113.444542 
C 346.34639 113.11216 346.533146 112.661289 346.533146 112.191228 
C 346.533146 111.721168 346.34639 111.270297 346.014007 110.937914 
C 345.681624 110.605531 345.230753 110.418774 344.760693 110.418774 
C 344.290632 110.418774 343.839761 110.605531 343.507378 110.937914 
C 343.174996 111.270297 342.988239 111.721168 342.988239 112.191228 
C 342.988239 112.661289 343.174996 113.11216 343.507378 113.444542 
C 343.839761 113.776925 344.290632 113.963682 344.760693 113.963682 
z
" style="stroke:#000000;stroke-width:0.886227;"/>
    <path clip-path="url(#peb6da416c8)" d="M 351.78365 97.168492 
C 352.25371 97.168492 352.704581 96.981735 353.036964 96.649352 
C 353.369347 96.316969 353.556104 95.866098 353.556104 95.396038 
C 353.556104 94.925978 353.369347 94.475107 353.036964 94.142724 
C 352.704581 93.810341 352.25371 93.623584 351.78365 93.623584 
C 351.31359 93.623584 350.862719 93.810341 350.530336 94.142724 
C 350.197953 94.475107 350.011196 94.925978 350.011196 95.396038 
C 350.011196 95.866098 350.197953 96.316969 350.530336 96.649352 
C 350.862719 96.981735 351.31359 97.168492 351.78365 97.168492 
z
" style="stroke:#000000;stroke-width:0.886227;"/>
    <path clip-path="url(#peb6da416c8)" d="M 291.653713 118.027852 
C 292.123773 118.027852 292.574644 117.841096 292.907027 117.508713 
C 293.23941 117.17633 293.426166 116.725459 293.426166 116.255399 
C 293.426166 115.785338 293.23941 115.334467 292.907027 115.002084 
C 292.574644 114.669702 292.123773 114.482945 291.653713 114.482945 
C 291.183652 114.482945 290.732781 114.669702 290.400398 115.002084 
C 290.068016 115.334467 289.881259 115.785338 289.881259 116.255399 
C 289.881259 116.725459 290.068016 117.17633 290.400398 117.508713 
C 290.732781 117.841096 291.183652 118.027852 291.653713 118.027852 
z
" style="stroke:#000000;stroke-width:0.886227;"/>
    <path clip-path="url(#peb6da416c8)" d="M 270.122754 150.622089 
C 270.592815 150.622089 271.043686 150.435332 271.376069 150.102949 
C 271.708451 149.770566 271.895208 149.319695 271.895208 148.849635 
C 271.895208 148.379575 271.708451 147.928703 271.376069 147.596321 
C 271.043686 147.263938 270.592815 147.077181 270.122754 147.077181 
C 269.652694 147.077181 269.201823 147.263938 268.86944 147.596321 
C 268.537057 147.928703 268.350301 148.379575 268.350301 148.849635 
C 268.350301 149.319695 268.537057 149.770566 268.86944 150.102949 
C 269.201823 150.435332 269.652694 150.622089 270.122754 150.622089 
z
" style="stroke:#000000;stroke-width:0.886227;"/>
    <path clip-path="url(#peb6da416c8)" d="M 243.945304 116.966353 
C 244.415364 116.966353 244.866235 116.779596 245.198618 116.447213 
C 245.531001 116.114831 245.717758 115.66396 245.717758 115.193899 
C 245.717758 114.723839 245.531001 114.272968 245.198618 113.940585 
C 244.866235 113.608202 244.415364 113.421445 243.945304 113.421445 
C 243.475244 113.421445 243.024372 113.608202 242.69199 113.940585 
C 242.359607 114.272968 242.17285 114.723839 242.17285 115.193899 
C 242.17285 115.66396 242.359607 116.114831 242.69199 116.447213 
C 243.024372 116.779596 243.475244 116.966353 243.945304 116.966353 
z
" style="stroke:#000000;stroke-width:0.886227;"/>
    <path clip-path="url(#peb6da416c8)" d="M 311.40085 61.047449 
C 311.87091 61.047449 312.321781 60.860692 312.654164 60.528309 
C 312.986546 60.195927 313.173303 59.745055 313.173303 59.274995 
C 313.173303 58.804935 312.986546 58.354064 312.654164 58.021681 
C 312.321781 57.689298 311.87091 57.502541 311.40085 57.502541 
C 310.930789 57.502541 310.479918 57.689298 310.147535 58.021681 
C 309.815153 58.354064 309.628396 58.804935 309.628396 59.274995 
C 309.628396 59.745055 309.815153 60.195927 310.147535 60.528309 
C 310.479918 60.860692 310.930789 61.047449 311.40085 61.047449 
z
" style="stroke:#000000;stroke-width:0.886227;"/>
    <path clip-path="url(#peb6da416c8)" d="M 336.593869 111.099273 
C 337.063929 111.099273 337.5148 110.912517 337.847183 110.580134 
C 338.179565 110.247751 338.366322 109.79688 338.366322 109.32682 
C 338.366322 108.856759 338.179565 108.405888 337.847183 108.073505 
C 337.5148 107.741123 337.063929 107.554366 336.593869 107.554366 
C 336.123808 107.554366 335.672937 107.741123 335.340554 108.073505 
C 335.008172 108.405888 334.821415 108.856759 334.821415 109.32682 
C 334.821415 109.79688 335.008172 110.247751 335.340554 110.580134 
C 335.672937 110.912517 336.123808 111.099273 336.593869 111.099273 
z
" style="stroke:#000000;stroke-width:0.886227;"/>
    <path clip-path="url(#peb6da416c8)" d="M 336.330387 43.408262 
C 336.800447 43.408262 337.251318 43.221505 337.583701 42.889122 
C 337.916084 42.556739 338.102841 42.105868 338.102841 41.635808 
C 338.102841 41.165748 337.916084 40.714877 337.583701 40.382494 
C 337.251318 40.050111 336.800447 39.863354 336.330387 39.863354 
C 335.860327 39.863354 335.409456 40.050111 335.077073 40.382494 
C 334.74469 40.714877 334.557933 41.165748 334.557933 41.635808 
C 334.557933 42.105868 334.74469 42.556739 335.077073 42.889122 
C 335.409456 43.221505 335.860327 43.408262 336.330387 43.408262 
z
" style="stroke:#000000;stroke-width:0.886227;"/>
    <path clip-path="url(#peb6da416c8)" d="M 67.59979 262.988454 
C 68.06985 262.988454 68.520721 262.801697 68.853104 262.469314 
C 69.185487 262.136931 69.372244 261.68606 69.372244 261.216 
C 69.372244 260.74594 69.185487 260.295069 68.853104 259.962686 
C 68.520721 259.630303 68.06985 259.443546 67.59979 259.443546 
C 67.12973 259.443546 66.678858 259.630303 66.346476 259.962686 
C 66.014093 260.295069 65.827336 260.74594 65.827336 261.216 
C 65.827336 261.68606 66.014093 262.136931 66.346476 262.469314 
C 66.678858 262.801697 67.12973 262.988454 67.59979 262.988454 
z
" style="stroke:#000000;stroke-width:0.886227;"/>
    <path clip-path="url(#peb6da416c8)" d="M 309.816512 89.010948 
C 310.286573 89.010948 310.737444 88.824191 311.069827 88.491808 
C 311.402209 88.159425 311.588966 87.708554 311.588966 87.238494 
C 311.588966 86.768434 311.402209 86.317562 311.069827 85.98518 
C 310.737444 85.652797 310.286573 85.46604 309.816512 85.46604 
C 309.346452 85.46604 308.895581 85.652797 308.563198 85.98518 
C 308.230816 86.317562 308.044059 86.768434 308.044059 87.238494 
C 308.044059 87.708554 308.230816 88.159425 308.563198 88.491808 
C 308.895581 88.824191 309.346452 89.010948 309.816512 89.010948 
z
" style="stroke:#000000;stroke-width:0.886227;"/>
    <path clip-path="url(#peb6da416c8)" d="M 181.940011 205.088926 
C 182.410071 205.088926 182.860942 204.902169 183.193325 204.569786 
C 183.525707 204.237403 183.712464 203.786532 183.712464 203.316472 
C 183.712464 202.846411 183.525707 202.39554 183.193325 202.063158 
C 182.860942 201.730775 182.410071 201.544018 181.940011 201.544018 
C 181.46995 201.544018 181.019079 201.730775 180.686696 202.063158 
C 180.354314 202.39554 180.167557 202.846411 180.167557 203.316472 
C 180.167557 203.786532 180.354314 204.237403 180.686696 204.569786 
C 181.019079 204.902169 181.46995 205.088926 181.940011 205.088926 
z
" style="stroke:#000000;stroke-width:0.886227;"/>
    <path clip-path="url(#peb6da416c8)" d="M 265.802142 158.585372 
C 266.272202 158.585372 266.723073 158.398616 267.055456 158.066233 
C 267.387839 157.73385 267.574595 157.282979 267.574595 156.812919 
C 267.574595 156.342858 267.387839 155.891987 267.055456 155.559604 
C 266.723073 155.227222 266.272202 155.040465 265.802142 155.040465 
C 265.332081 155.040465 264.88121 155.227222 264.548827 155.559604 
C 264.216445 155.891987 264.029688 156.342858 264.029688 156.812919 
C 264.029688 157.282979 264.216445 157.73385 264.548827 158.066233 
C 264.88121 158.398616 265.332081 158.585372 265.802142 158.585372 
z
" style="stroke:#000000;stroke-width:0.886227;"/>
    <path clip-path="url(#peb6da416c8)" d="M 277.900784 122.99653 
C 278.370844 122.99653 278.821715 122.809773 279.154098 122.47739 
C 279.486481 122.145007 279.673238 121.694136 279.673238 121.224076 
C 279.673238 120.754016 279.486481 120.303145 279.154098 119.970762 
C 278.821715 119.638379 278.370844 119.451622 277.900784 119.451622 
C 277.430723 119.451622 276.979852 119.638379 276.64747 119.970762 
C 276.315087 120.303145 276.12833 120.754016 276.12833 121.224076 
C 276.12833 121.694136 276.315087 122.145007 276.64747 122.47739 
C 276.979852 122.809773 277.430723 122.99653 277.900784 122.99653 
z
" style="stroke:#000000;stroke-width:0.886227;"/>
    <path clip-path="url(#peb6da416c8)" d="M 220.18567 151.913036 
C 220.65573 151.913036 221.106601 151.726279 221.438984 151.393897 
C 221.771367 151.061514 221.958124 150.610643 221.958124 150.140583 
C 221.958124 149.670522 221.771367 149.219651 221.438984 148.887268 
C 221.106601 148.554886 220.65573 148.368129 220.18567 148.368129 
C 219.71561 148.368129 219.264739 148.554886 218.932356 148.887268 
C 218.599973 149.219651 218.413216 149.670522 218.413216 150.140583 
C 218.413216 150.610643 218.599973 151.061514 218.932356 151.393897 
C 219.264739 151.726279 219.71561 151.913036 220.18567 151.913036 
z
" style="stroke:#000000;stroke-width:0.886227;"/>
    <path clip-path="url(#peb6da416c8)" d="M 273.137043 184.06581 
C 273.607103 184.06581 274.057974 183.879053 274.390357 183.54667 
C 274.72274 183.214287 274.909497 182.763416 274.909497 182.293356 
C 274.909497 181.823295 274.72274 181.372424 274.390357 181.040042 
C 274.057974 180.707659 273.607103 180.520902 273.137043 180.520902 
C 272.666982 180.520902 272.216111 180.707659 271.883729 181.040042 
C 271.551346 181.372424 271.364589 181.823295 271.364589 182.293356 
C 271.364589 182.763416 271.551346 183.214287 271.883729 183.54667 
C 272.216111 183.879053 272.666982 184.06581 273.137043 184.06581 
z
" style="stroke:#000000;stroke-width:0.886227;"/>
    <path clip-path="url(#peb6da416c8)" d="M 288.335932 101.593277 
C 288.805993 101.593277 289.256864 101.40652 289.589246 101.074137 
C 289.921629 100.741754 290.108386 100.290883 290.108386 99.820823 
C 290.108386 99.350763 289.921629 98.899892 289.589246 98.567509 
C 289.256864 98.235126 288.805993 98.048369 288.335932 98.048369 
C 287.865872 98.048369 287.415001 98.235126 287.082618 98.567509 
C 286.750235 98.899892 286.563478 99.350763 286.563478 99.820823 
C 286.563478 100.290883 286.750235 100.741754 287.082618 101.074137 
C 287.415001 101.40652 287.865872 101.593277 288.335932 101.593277 
z
" style="stroke:#000000;stroke-width:0.886227;"/>
    <path clip-path="url(#peb6da416c8)" d="M 272.119733 146.526485 
C 272.589793 146.526485 273.040664 146.339728 273.373047 146.007345 
C 273.70543 145.674963 273.892187 145.224092 273.892187 144.754031 
C 273.892187 144.283971 273.70543 143.8331 273.373047 143.500717 
C 273.040664 143.168334 272.589793 142.981577 272.119733 142.981577 
C 271.649673 142.981577 271.198802 143.168334 270.866419 143.500717 
C 270.534036 143.8331 270.347279 144.283971 270.347279 144.754031 
C 270.347279 145.224092 270.534036 145.674963 270.866419 146.007345 
C 271.198802 146.339728 271.649673 146.526485 272.119733 146.526485 
z
" style="stroke:#000000;stroke-width:0.886227;"/>
    <path clip-path="url(#peb6da416c8)" d="M 294.768809 130.910655 
C 295.238869 130.910655 295.689741 130.723898 296.022123 130.391516 
C 296.354506 130.059133 296.541263 129.608262 296.541263 129.138201 
C 296.541263 128.668141 296.354506 128.21727 296.022123 127.884887 
C 295.689741 127.552504 295.238869 127.365748 294.768809 127.365748 
C 294.298749 127.365748 293.847878 127.552504 293.515495 127.884887 
C 293.183112 128.21727 292.996355 128.668141 292.996355 129.138201 
C 292.996355 129.608262 293.183112 130.059133 293.515495 130.391516 
C 293.847878 130.723898 294.298749 130.910655 294.768809 130.910655 
z
" style="stroke:#000000;stroke-width:0.886227;"/>
    <path clip-path="url(#peb6da416c8)" d="M 268.224621 222.879483 
C 268.694681 222.879483 269.145552 222.692727 269.477935 222.360344 
C 269.810318 222.027961 269.997074 221.57709 269.997074 221.10703 
C 269.997074 220.636969 269.810318 220.186098 269.477935 219.853715 
C 269.145552 219.521333 268.694681 219.334576 268.224621 219.334576 
C 267.75456 219.334576 267.303689 219.521333 266.971306 219.853715 
C 266.638924 220.186098 266.452167 220.636969 266.452167 221.10703 
C 266.452167 221.57709 266.638924 222.027961 266.971306 222.360344 
C 267.303689 222.692727 267.75456 222.879483 268.224621 222.879483 
z
" style="stroke:#000000;stroke-width:0.886227;"/>
    <path clip-path="url(#peb6da416c8)" d="M 295.362695 161.399558 
C 295.832755 161.399558 296.283627 161.212801 296.616009 160.880418 
C 296.948392 160.548036 297.135149 160.097164 297.135149 159.627104 
C 297.135149 159.157044 296.948392 158.706173 296.616009 158.37379 
C 296.283627 158.041407 295.832755 157.85465 295.362695 157.85465 
C 294.892635 157.85465 294.441764 158.041407 294.109381 158.37379 
C 293.776998 158.706173 293.590241 159.157044 293.590241 159.627104 
C 293.590241 160.097164 293.776998 160.548036 294.109381 160.880418 
C 294.441764 161.212801 294.892635 161.399558 295.362695 161.399558 
z
" style="stroke:#000000;stroke-width:0.886227;"/>
    <path clip-path="url(#peb6da416c8)" d="M 330.74083 126.27356 
C 331.21089 126.27356 331.661761 126.086803 331.994144 125.75442 
C 332.326526 125.422037 332.513283 124.971166 332.513283 124.501106 
C 332.513283 124.031046 332.326526 123.580175 331.994144 123.247792 
C 331.661761 122.915409 331.21089 122.728652 330.74083 122.728652 
C 330.270769 122.728652 329.819898 122.915409 329.487515 123.247792 
C 329.155133 123.580175 328.968376 124.031046 328.968376 124.501106 
C 328.968376 124.971166 329.155133 125.422037 329.487515 125.75442 
C 329.819898 126.086803 330.270769 126.27356 330.74083 126.27356 
z
" style="stroke:#000000;stroke-width:0.886227;"/>
    <path clip-path="url(#peb6da416c8)" d="M 182.961762 90.766459 
C 183.431822 90.766459 183.882693 90.579702 184.215076 90.247319 
C 184.547459 89.914936 184.734216 89.464065 184.734216 88.994005 
C 184.734216 88.523944 184.547459 88.073073 184.215076 87.740691 
C 183.882693 87.408308 183.431822 87.221551 182.961762 87.221551 
C 182.491702 87.221551 182.040831 87.408308 181.708448 87.740691 
C 181.376065 88.073073 181.189308 88.523944 181.189308 88.994005 
C 181.189308 89.464065 181.376065 89.914936 181.708448 90.247319 
C 182.040831 90.579702 182.491702 90.766459 182.961762 90.766459 
z
" style="stroke:#000000;stroke-width:0.886227;"/>
    <path clip-path="url(#peb6da416c8)" d="M 268.327387 204.877176 
C 268.797447 204.877176 269.248318 204.690419 269.580701 204.358036 
C 269.913083 204.025653 270.09984 203.574782 270.09984 203.104722 
C 270.09984 202.634662 269.913083 202.183791 269.580701 201.851408 
C 269.248318 201.519025 268.797447 201.332268 268.327387 201.332268 
C 267.857326 201.332268 267.406455 201.519025 267.074072 201.851408 
C 266.74169 202.183791 266.554933 202.634662 266.554933 203.104722 
C 266.554933 203.574782 266.74169 204.025653 267.074072 204.358036 
C 267.406455 204.690419 267.857326 204.877176 268.327387 204.877176 
z
" style="stroke:#000000;stroke-width:0.886227;"/>
    <path clip-path="url(#peb6da416c8)" d="M 105.626649 227.654204 
C 106.096709 227.654204 106.54758 227.467447 106.879963 227.135064 
C 107.212346 226.802681 107.399103 226.35181 107.399103 225.88175 
C 107.399103 225.41169 107.212346 224.960819 106.879963 224.628436 
C 106.54758 224.296053 106.096709 224.109296 105.626649 224.109296 
C 105.156589 224.109296 104.705717 224.296053 104.373335 224.628436 
C 104.040952 224.960819 103.854195 225.41169 103.854195 225.88175 
C 103.854195 226.35181 104.040952 226.802681 104.373335 227.135064 
C 104.705717 227.467447 105.156589 227.654204 105.626649 227.654204 
z
" style="stroke:#000000;stroke-width:0.886227;"/>
    <path clip-path="url(#peb6da416c8)" d="M 321.67533 112.879051 
C 322.14539 112.879051 322.596261 112.692294 322.928644 112.359911 
C 323.261027 112.027528 323.447784 111.576657 323.447784 111.106597 
C 323.447784 110.636537 323.261027 110.185666 322.928644 109.853283 
C 322.596261 109.5209 322.14539 109.334143 321.67533 109.334143 
C 321.20527 109.334143 320.754399 109.5209 320.422016 109.853283 
C 320.089633 110.185666 319.902876 110.636537 319.902876 111.106597 
C 319.902876 111.576657 320.089633 112.027528 320.422016 112.359911 
C 320.754399 112.692294 321.20527 112.879051 321.67533 112.879051 
z
" style="stroke:#000000;stroke-width:0.886227;"/>
    <path clip-path="url(#peb6da416c8)" d="M 341.072793 80.607656 
C 341.542853 80.607656 341.993724 80.420899 342.326107 80.088517 
C 342.658489 79.756134 342.845246 79.305263 342.845246 78.835202 
C 342.845246 78.365142 342.658489 77.914271 342.326107 77.581888 
C 341.993724 77.249505 341.542853 77.062749 341.072793 77.062749 
C 340.602732 77.062749 340.151861 77.249505 339.819478 77.581888 
C 339.487096 77.914271 339.300339 78.365142 339.300339 78.835202 
C 339.300339 79.305263 339.487096 79.756134 339.819478 80.088517 
C 340.151861 80.420899 340.602732 80.607656 341.072793 80.607656 
z
" style="stroke:#000000;stroke-width:0.886227;"/>
    <path clip-path="url(#peb6da416c8)" d="M 173.061797 203.531403 
C 173.531858 203.531403 173.982729 203.344646 174.315112 203.012263 
C 174.647494 202.67988 174.834251 202.229009 174.834251 201.758949 
C 174.834251 201.288889 174.647494 200.838018 174.315112 200.505635 
C 173.982729 200.173252 173.531858 199.986495 173.061797 199.986495 
C 172.591737 199.986495 172.140866 200.173252 171.808483 200.505635 
C 171.4761 200.838018 171.289344 201.288889 171.289344 201.758949 
C 171.289344 202.229009 171.4761 202.67988 171.808483 203.012263 
C 172.140866 203.344646 172.591737 203.531403 173.061797 203.531403 
z
" style="stroke:#000000;stroke-width:0.886227;"/>
    <path clip-path="url(#peb6da416c8)" d="M 183.549301 94.953437 
C 184.019361 94.953437 184.470232 94.76668 184.802615 94.434297 
C 185.134998 94.101915 185.321755 93.651043 185.321755 93.180983 
C 185.321755 92.710923 185.134998 92.260052 184.802615 91.927669 
C 184.470232 91.595286 184.019361 91.408529 183.549301 91.408529 
C 183.079241 91.408529 182.62837 91.595286 182.295987 91.927669 
C 181.963604 92.260052 181.776847 92.710923 181.776847 93.180983 
C 181.776847 93.651043 181.963604 94.101915 182.295987 94.434297 
C 182.62837 94.76668 183.079241 94.953437 183.549301 94.953437 
z
" style="stroke:#000000;stroke-width:0.886227;"/>
    <path clip-path="url(#peb6da416c8)" d="M 225.006236 66.854064 
C 225.476296 66.854064 225.927167 66.667307 226.25955 66.334925 
C 226.591933 66.002542 226.77869 65.551671 226.77869 65.081611 
C 226.77869 64.61155 226.591933 64.160679 226.25955 63.828296 
C 225.927167 63.495914 225.476296 63.309157 225.006236 63.309157 
C 224.536176 63.309157 224.085305 63.495914 223.752922 63.828296 
C 223.420539 64.160679 223.233782 64.61155 223.233782 65.081611 
C 223.233782 65.551671 223.420539 66.002542 223.752922 66.334925 
C 224.085305 66.667307 224.536176 66.854064 225.006236 66.854064 
z
" style="stroke:#000000;stroke-width:0.886227;"/>
    <path clip-path="url(#peb6da416c8)" d="M 379.577387 108.625282 
C 380.047447 108.625282 380.498318 108.438525 380.830701 108.106142 
C 381.163084 107.77376 381.349841 107.322888 381.349841 106.852828 
C 381.349841 106.382768 381.163084 105.931897 380.830701 105.599514 
C 380.498318 105.267131 380.047447 105.080374 379.577387 105.080374 
C 379.107327 105.080374 378.656456 105.267131 378.324073 105.599514 
C 377.99169 105.931897 377.804933 106.382768 377.804933 106.852828 
C 377.804933 107.322888 377.99169 107.77376 378.324073 108.106142 
C 378.656456 108.438525 379.107327 108.625282 379.577387 108.625282 
z
" style="stroke:#000000;stroke-width:0.886227;"/>
    <path clip-path="url(#peb6da416c8)" d="M 342.336397 106.400193 
C 342.806457 106.400193 343.257328 106.213436 343.589711 105.881054 
C 343.922094 105.548671 344.108851 105.0978 344.108851 104.627739 
C 344.108851 104.157679 343.922094 103.706808 343.589711 103.374425 
C 343.257328 103.042042 342.806457 102.855286 342.336397 102.855286 
C 341.866337 102.855286 341.415466 103.042042 341.083083 103.374425 
C 340.7507 103.706808 340.563943 104.157679 340.563943 104.627739 
C 340.563943 105.0978 340.7507 105.548671 341.083083 105.881054 
C 341.415466 106.213436 341.866337 106.400193 342.336397 106.400193 
z
" style="stroke:#000000;stroke-width:0.886227;"/>
    <path clip-path="url(#peb6da416c8)" d="M 299.191009 128.291545 
C 299.66107 128.291545 300.111941 128.104789 300.444324 127.772406 
C 300.776706 127.440023 300.963463 126.989152 300.963463 126.519092 
C 300.963463 126.049031 300.776706 125.59816 300.444324 125.265777 
C 300.111941 124.933395 299.66107 124.746638 299.191009 124.746638 
C 298.720949 124.746638 298.270078 124.933395 297.937695 125.265777 
C 297.605313 125.59816 297.418556 126.049031 297.418556 126.519092 
C 297.418556 126.989152 297.605313 127.440023 297.937695 127.772406 
C 298.270078 128.104789 298.720949 128.291545 299.191009 128.291545 
z
" style="stroke:#000000;stroke-width:0.886227;"/>
    <path clip-path="url(#peb6da416c8)" d="M 327.683186 93.212798 
C 328.153246 93.212798 328.604118 93.026041 328.9365 92.693658 
C 329.268883 92.361275 329.45564 91.910404 329.45564 91.440344 
C 329.45564 90.970284 329.268883 90.519412 328.9365 90.18703 
C 328.604118 89.854647 328.153246 89.66789 327.683186 89.66789 
C 327.213126 89.66789 326.762255 89.854647 326.429872 90.18703 
C 326.097489 90.519412 325.910732 90.970284 325.910732 91.440344 
C 325.910732 91.910404 326.097489 92.361275 326.429872 92.693658 
C 326.762255 93.026041 327.213126 93.212798 327.683186 93.212798 
z
" style="stroke:#000000;stroke-width:0.886227;"/>
    <path clip-path="url(#peb6da416c8)" d="M 242.051957 127.659733 
C 242.522017 127.659733 242.972888 127.472976 243.305271 127.140594 
C 243.637654 126.808211 243.824411 126.35734 243.824411 125.887279 
C 243.824411 125.417219 243.637654 124.966348 243.305271 124.633965 
C 242.972888 124.301582 242.522017 124.114826 242.051957 124.114826 
C 241.581897 124.114826 241.131026 124.301582 240.798643 124.633965 
C 240.46626 124.966348 240.279503 125.417219 240.279503 125.887279 
C 240.279503 126.35734 240.46626 126.808211 240.798643 127.140594 
C 241.131026 127.472976 241.581897 127.659733 242.051957 127.659733 
z
" style="stroke:#000000;stroke-width:0.886227;"/>
    <path clip-path="url(#peb6da416c8)" d="M 248.642052 192.349162 
C 249.112112 192.349162 249.562983 192.162405 249.895366 191.830022 
C 250.227749 191.497639 250.414506 191.046768 250.414506 190.576708 
C 250.414506 190.106647 250.227749 189.655776 249.895366 189.323394 
C 249.562983 188.991011 249.112112 188.804254 248.642052 188.804254 
C 248.171992 188.804254 247.721121 188.991011 247.388738 189.323394 
C 247.056355 189.655776 246.869598 190.106647 246.869598 190.576708 
C 246.869598 191.046768 247.056355 191.497639 247.388738 191.830022 
C 247.721121 192.162405 248.171992 192.349162 248.642052 192.349162 
z
" style="stroke:#000000;stroke-width:0.886227;"/>
    <path clip-path="url(#peb6da416c8)" d="M 174.633929 129.847633 
C 175.103989 129.847633 175.55486 129.660876 175.887243 129.328493 
C 176.219626 128.99611 176.406383 128.545239 176.406383 128.075179 
C 176.406383 127.605119 176.219626 127.154248 175.887243 126.821865 
C 175.55486 126.489482 175.103989 126.302725 174.633929 126.302725 
C 174.163869 126.302725 173.712998 126.489482 173.380615 126.821865 
C 173.048232 127.154248 172.861475 127.605119 172.861475 128.075179 
C 172.861475 128.545239 173.048232 128.99611 173.380615 129.328493 
C 173.712998 129.660876 174.163869 129.847633 174.633929 129.847633 
z
" style="stroke:#000000;stroke-width:0.886227;"/>
    <path clip-path="url(#peb6da416c8)" d="M 229.49046 164.070707 
C 229.96052 164.070707 230.411391 163.88395 230.743774 163.551568 
C 231.076157 163.219185 231.262914 162.768314 231.262914 162.298253 
C 231.262914 161.828193 231.076157 161.377322 230.743774 161.044939 
C 230.411391 160.712556 229.96052 160.5258 229.49046 160.5258 
C 229.0204 160.5258 228.569529 160.712556 228.237146 161.044939 
C 227.904763 161.377322 227.718006 161.828193 227.718006 162.298253 
C 227.718006 162.768314 227.904763 163.219185 228.237146 163.551568 
C 228.569529 163.88395 229.0204 164.070707 229.49046 164.070707 
z
" style="stroke:#000000;stroke-width:0.886227;"/>
    <path clip-path="url(#peb6da416c8)" d="M 346.593752 104.992983 
C 347.063813 104.992983 347.514684 104.806227 347.847067 104.473844 
C 348.179449 104.141461 348.366206 103.69059 348.366206 103.22053 
C 348.366206 102.750469 348.179449 102.299598 347.847067 101.967215 
C 347.514684 101.634833 347.063813 101.448076 346.593752 101.448076 
C 346.123692 101.448076 345.672821 101.634833 345.340438 101.967215 
C 345.008056 102.299598 344.821299 102.750469 344.821299 103.22053 
C 344.821299 103.69059 345.008056 104.141461 345.340438 104.473844 
C 345.672821 104.806227 346.123692 104.992983 346.593752 104.992983 
z
" style="stroke:#000000;stroke-width:0.886227;"/>
    <path clip-path="url(#peb6da416c8)" d="M 208.891427 238.081179 
C 209.361487 238.081179 209.812358 237.894422 210.144741 237.562039 
C 210.477124 237.229656 210.663881 236.778785 210.663881 236.308725 
C 210.663881 235.838664 210.477124 235.387793 210.144741 235.055411 
C 209.812358 234.723028 209.361487 234.536271 208.891427 234.536271 
C 208.421367 234.536271 207.970496 234.723028 207.638113 235.055411 
C 207.30573 235.387793 207.118973 235.838664 207.118973 236.308725 
C 207.118973 236.778785 207.30573 237.229656 207.638113 237.562039 
C 207.970496 237.894422 208.421367 238.081179 208.891427 238.081179 
z
" style="stroke:#000000;stroke-width:0.886227;"/>
   </g>
  </g>
 </g>
 <defs>
  <clipPath id="peb6da416c8">
   <rect height="266.112" width="357.12" x="51.367063" y="7.2"/>
  </clipPath>
 </defs>
</svg>
