<?xml version="1.0" encoding="utf-8" standalone="no"?>
<!DOCTYPE svg PUBLIC "-//W3C//DTD SVG 1.1//EN"
  "http://www.w3.org/Graphics/SVG/1.1/DTD/svg11.dtd">
<!-- Created with matplotlib (https://matplotlib.org/) -->
<svg height="309.024687pt" version="1.1" viewBox="0 0 415.687063 309.024687" width="415.687063pt" xmlns="http://www.w3.org/2000/svg" xmlns:xlink="http://www.w3.org/1999/xlink">
 <metadata>
  <rdf:RDF xmlns:cc="http://creativecommons.org/ns#" xmlns:dc="http://purl.org/dc/elements/1.1/" xmlns:rdf="http://www.w3.org/1999/02/22-rdf-syntax-ns#">
   <cc:Work>
    <dc:type rdf:resource="http://purl.org/dc/dcmitype/StillImage"/>
    <dc:date>2020-12-04T12:11:25.019167</dc:date>
    <dc:format>image/svg+xml</dc:format>
    <dc:creator>
     <cc:Agent>
      <dc:title>Matplotlib v3.3.2, https://matplotlib.org/</dc:title>
     </cc:Agent>
    </dc:creator>
   </cc:Work>
  </rdf:RDF>
 </metadata>
 <defs>
  <style type="text/css">*{stroke-linecap:butt;stroke-linejoin:round;}</style>
 </defs>
 <g id="figure_1">
  <g id="patch_1">
   <path d="M 0 309.024687 
L 415.687063 309.024687 
L 415.687063 0 
L 0 0 
z
" style="fill:#ffffff;stroke:#ffffff;stroke-linejoin:miter;"/>
  </g>
  <g id="axes_1">
   <g id="patch_2">
    <path d="M 51.367063 273.312 
L 408.487063 273.312 
L 408.487063 7.2 
L 51.367063 7.2 
z
" style="fill:#ebebeb;"/>
   </g>
   <g id="matplotlib.axis_1">
    <g id="xtick_1">
     <g id="line2d_1">
      <path clip-path="url(#p866aaf9b62)" d="M 118.827866 273.312 
L 118.827866 7.2 
" style="fill:none;stroke:#ffffff;"/>
     </g>
     <g id="line2d_2">
      <path d="M 118.827866 273.312 
" style="fill:none;stroke:#333333;stroke-width:1.5;"/>
      <defs>
       <path d="M 0 0 
L 0 2.75 
" id="m414e51b55f" style="stroke:#000000;"/>
      </defs>
      <g>
       <use style="fill:#333333;stroke:#000000;" x="118.827866" xlink:href="#m414e51b55f" y="273.312"/>
      </g>
     </g>
     <g id="text_1">
      <!-- −4 -->
      <g style="fill:#4d4d4d;" transform="translate(112.341304 284.948625)scale(0.088 -0.088)">
       <defs>
        <path d="M 10.59375 35.5 
L 73.1875 35.5 
L 73.1875 27.203125 
L 10.59375 27.203125 
z
" id="DejaVuSans-8722"/>
        <path d="M 37.796875 64.3125 
L 12.890625 25.390625 
L 37.796875 25.390625 
z
M 35.203125 72.90625 
L 47.609375 72.90625 
L 47.609375 25.390625 
L 58.015625 25.390625 
L 58.015625 17.1875 
L 47.609375 17.1875 
L 47.609375 0 
L 37.796875 0 
L 37.796875 17.1875 
L 4.890625 17.1875 
L 4.890625 26.703125 
z
" id="DejaVuSans-52"/>
       </defs>
       <use xlink:href="#DejaVuSans-8722"/>
       <use x="83.789062" xlink:href="#DejaVuSans-52"/>
      </g>
     </g>
    </g>
    <g id="xtick_2">
     <g id="line2d_3">
      <path clip-path="url(#p866aaf9b62)" d="M 194.772428 273.312 
L 194.772428 7.2 
" style="fill:none;stroke:#ffffff;"/>
     </g>
     <g id="line2d_4">
      <path d="M 194.772428 273.312 
" style="fill:none;stroke:#333333;stroke-width:1.5;"/>
      <g>
       <use style="fill:#333333;stroke:#000000;" x="194.772428" xlink:href="#m414e51b55f" y="273.312"/>
      </g>
     </g>
     <g id="text_2">
      <!-- −2 -->
      <g style="fill:#4d4d4d;" transform="translate(188.285866 284.948625)scale(0.088 -0.088)">
       <defs>
        <path d="M 19.1875 8.296875 
L 53.609375 8.296875 
L 53.609375 0 
L 7.328125 0 
L 7.328125 8.296875 
Q 12.9375 14.109375 22.625 23.890625 
Q 32.328125 33.6875 34.8125 36.53125 
Q 39.546875 41.84375 41.421875 45.53125 
Q 43.3125 49.21875 43.3125 52.78125 
Q 43.3125 58.59375 39.234375 62.25 
Q 35.15625 65.921875 28.609375 65.921875 
Q 23.96875 65.921875 18.8125 64.3125 
Q 13.671875 62.703125 7.8125 59.421875 
L 7.8125 69.390625 
Q 13.765625 71.78125 18.9375 73 
Q 24.125 74.21875 28.421875 74.21875 
Q 39.75 74.21875 46.484375 68.546875 
Q 53.21875 62.890625 53.21875 53.421875 
Q 53.21875 48.921875 51.53125 44.890625 
Q 49.859375 40.875 45.40625 35.40625 
Q 44.1875 33.984375 37.640625 27.21875 
Q 31.109375 20.453125 19.1875 8.296875 
z
" id="DejaVuSans-50"/>
       </defs>
       <use xlink:href="#DejaVuSans-8722"/>
       <use x="83.789062" xlink:href="#DejaVuSans-50"/>
      </g>
     </g>
    </g>
    <g id="xtick_3">
     <g id="line2d_5">
      <path clip-path="url(#p866aaf9b62)" d="M 270.716991 273.312 
L 270.716991 7.2 
" style="fill:none;stroke:#ffffff;"/>
     </g>
     <g id="line2d_6">
      <path d="M 270.716991 273.312 
" style="fill:none;stroke:#333333;stroke-width:1.5;"/>
      <g>
       <use style="fill:#333333;stroke:#000000;" x="270.716991" xlink:href="#m414e51b55f" y="273.312"/>
      </g>
     </g>
     <g id="text_3">
      <!-- 0 -->
      <g style="fill:#4d4d4d;" transform="translate(267.917491 284.948625)scale(0.088 -0.088)">
       <defs>
        <path d="M 31.78125 66.40625 
Q 24.171875 66.40625 20.328125 58.90625 
Q 16.5 51.421875 16.5 36.375 
Q 16.5 21.390625 20.328125 13.890625 
Q 24.171875 6.390625 31.78125 6.390625 
Q 39.453125 6.390625 43.28125 13.890625 
Q 47.125 21.390625 47.125 36.375 
Q 47.125 51.421875 43.28125 58.90625 
Q 39.453125 66.40625 31.78125 66.40625 
z
M 31.78125 74.21875 
Q 44.046875 74.21875 50.515625 64.515625 
Q 56.984375 54.828125 56.984375 36.375 
Q 56.984375 17.96875 50.515625 8.265625 
Q 44.046875 -1.421875 31.78125 -1.421875 
Q 19.53125 -1.421875 13.0625 8.265625 
Q 6.59375 17.96875 6.59375 36.375 
Q 6.59375 54.828125 13.0625 64.515625 
Q 19.53125 74.21875 31.78125 74.21875 
z
" id="DejaVuSans-48"/>
       </defs>
       <use xlink:href="#DejaVuSans-48"/>
      </g>
     </g>
    </g>
    <g id="xtick_4">
     <g id="line2d_7">
      <path clip-path="url(#p866aaf9b62)" d="M 346.661553 273.312 
L 346.661553 7.2 
" style="fill:none;stroke:#ffffff;"/>
     </g>
     <g id="line2d_8">
      <path d="M 346.661553 273.312 
" style="fill:none;stroke:#333333;stroke-width:1.5;"/>
      <g>
       <use style="fill:#333333;stroke:#000000;" x="346.661553" xlink:href="#m414e51b55f" y="273.312"/>
      </g>
     </g>
     <g id="text_4">
      <!-- 2 -->
      <g style="fill:#4d4d4d;" transform="translate(343.862053 284.948625)scale(0.088 -0.088)">
       <use xlink:href="#DejaVuSans-50"/>
      </g>
     </g>
    </g>
    <g id="xtick_5">
     <g id="line2d_9">
      <path clip-path="url(#p866aaf9b62)" d="M 80.855585 273.312 
L 80.855585 7.2 
" style="fill:none;stroke:#ffffff;stroke-width:0.5;"/>
     </g>
    </g>
    <g id="xtick_6">
     <g id="line2d_10">
      <path clip-path="url(#p866aaf9b62)" d="M 156.800147 273.312 
L 156.800147 7.2 
" style="fill:none;stroke:#ffffff;stroke-width:0.5;"/>
     </g>
    </g>
    <g id="xtick_7">
     <g id="line2d_11">
      <path clip-path="url(#p866aaf9b62)" d="M 232.744709 273.312 
L 232.744709 7.2 
" style="fill:none;stroke:#ffffff;stroke-width:0.5;"/>
     </g>
    </g>
    <g id="xtick_8">
     <g id="line2d_12">
      <path clip-path="url(#p866aaf9b62)" d="M 308.689272 273.312 
L 308.689272 7.2 
" style="fill:none;stroke:#ffffff;stroke-width:0.5;"/>
     </g>
    </g>
    <g id="xtick_9">
     <g id="line2d_13">
      <path clip-path="url(#p866aaf9b62)" d="M 384.633834 273.312 
L 384.633834 7.2 
" style="fill:none;stroke:#ffffff;stroke-width:0.5;"/>
     </g>
    </g>
    <g id="text_5">
     <!-- Years of Schooling (Residualized) -->
     <g transform="translate(133.535656 299.537031)scale(0.11 -0.11)">
      <defs>
       <path d="M -0.203125 72.90625 
L 10.40625 72.90625 
L 30.609375 42.921875 
L 50.6875 72.90625 
L 61.28125 72.90625 
L 35.5 34.71875 
L 35.5 0 
L 25.59375 0 
L 25.59375 34.71875 
z
" id="DejaVuSans-89"/>
       <path d="M 56.203125 29.59375 
L 56.203125 25.203125 
L 14.890625 25.203125 
Q 15.484375 15.921875 20.484375 11.0625 
Q 25.484375 6.203125 34.421875 6.203125 
Q 39.59375 6.203125 44.453125 7.46875 
Q 49.3125 8.734375 54.109375 11.28125 
L 54.109375 2.78125 
Q 49.265625 0.734375 44.1875 -0.34375 
Q 39.109375 -1.421875 33.890625 -1.421875 
Q 20.796875 -1.421875 13.15625 6.1875 
Q 5.515625 13.8125 5.515625 26.8125 
Q 5.515625 40.234375 12.765625 48.109375 
Q 20.015625 56 32.328125 56 
Q 43.359375 56 49.78125 48.890625 
Q 56.203125 41.796875 56.203125 29.59375 
z
M 47.21875 32.234375 
Q 47.125 39.59375 43.09375 43.984375 
Q 39.0625 48.390625 32.421875 48.390625 
Q 24.90625 48.390625 20.390625 44.140625 
Q 15.875 39.890625 15.1875 32.171875 
z
" id="DejaVuSans-101"/>
       <path d="M 34.28125 27.484375 
Q 23.390625 27.484375 19.1875 25 
Q 14.984375 22.515625 14.984375 16.5 
Q 14.984375 11.71875 18.140625 8.90625 
Q 21.296875 6.109375 26.703125 6.109375 
Q 34.1875 6.109375 38.703125 11.40625 
Q 43.21875 16.703125 43.21875 25.484375 
L 43.21875 27.484375 
z
M 52.203125 31.203125 
L 52.203125 0 
L 43.21875 0 
L 43.21875 8.296875 
Q 40.140625 3.328125 35.546875 0.953125 
Q 30.953125 -1.421875 24.3125 -1.421875 
Q 15.921875 -1.421875 10.953125 3.296875 
Q 6 8.015625 6 15.921875 
Q 6 25.140625 12.171875 29.828125 
Q 18.359375 34.515625 30.609375 34.515625 
L 43.21875 34.515625 
L 43.21875 35.40625 
Q 43.21875 41.609375 39.140625 45 
Q 35.0625 48.390625 27.6875 48.390625 
Q 23 48.390625 18.546875 47.265625 
Q 14.109375 46.140625 10.015625 43.890625 
L 10.015625 52.203125 
Q 14.9375 54.109375 19.578125 55.046875 
Q 24.21875 56 28.609375 56 
Q 40.484375 56 46.34375 49.84375 
Q 52.203125 43.703125 52.203125 31.203125 
z
" id="DejaVuSans-97"/>
       <path d="M 41.109375 46.296875 
Q 39.59375 47.171875 37.8125 47.578125 
Q 36.03125 48 33.890625 48 
Q 26.265625 48 22.1875 43.046875 
Q 18.109375 38.09375 18.109375 28.8125 
L 18.109375 0 
L 9.078125 0 
L 9.078125 54.6875 
L 18.109375 54.6875 
L 18.109375 46.1875 
Q 20.953125 51.171875 25.484375 53.578125 
Q 30.03125 56 36.53125 56 
Q 37.453125 56 38.578125 55.875 
Q 39.703125 55.765625 41.0625 55.515625 
z
" id="DejaVuSans-114"/>
       <path d="M 44.28125 53.078125 
L 44.28125 44.578125 
Q 40.484375 46.53125 36.375 47.5 
Q 32.28125 48.484375 27.875 48.484375 
Q 21.1875 48.484375 17.84375 46.4375 
Q 14.5 44.390625 14.5 40.28125 
Q 14.5 37.15625 16.890625 35.375 
Q 19.28125 33.59375 26.515625 31.984375 
L 29.59375 31.296875 
Q 39.15625 29.25 43.1875 25.515625 
Q 47.21875 21.78125 47.21875 15.09375 
Q 47.21875 7.46875 41.1875 3.015625 
Q 35.15625 -1.421875 24.609375 -1.421875 
Q 20.21875 -1.421875 15.453125 -0.5625 
Q 10.6875 0.296875 5.421875 2 
L 5.421875 11.28125 
Q 10.40625 8.6875 15.234375 7.390625 
Q 20.0625 6.109375 24.8125 6.109375 
Q 31.15625 6.109375 34.5625 8.28125 
Q 37.984375 10.453125 37.984375 14.40625 
Q 37.984375 18.0625 35.515625 20.015625 
Q 33.0625 21.96875 24.703125 23.78125 
L 21.578125 24.515625 
Q 13.234375 26.265625 9.515625 29.90625 
Q 5.8125 33.546875 5.8125 39.890625 
Q 5.8125 47.609375 11.28125 51.796875 
Q 16.75 56 26.8125 56 
Q 31.78125 56 36.171875 55.265625 
Q 40.578125 54.546875 44.28125 53.078125 
z
" id="DejaVuSans-115"/>
       <path id="DejaVuSans-32"/>
       <path d="M 30.609375 48.390625 
Q 23.390625 48.390625 19.1875 42.75 
Q 14.984375 37.109375 14.984375 27.296875 
Q 14.984375 17.484375 19.15625 11.84375 
Q 23.34375 6.203125 30.609375 6.203125 
Q 37.796875 6.203125 41.984375 11.859375 
Q 46.1875 17.53125 46.1875 27.296875 
Q 46.1875 37.015625 41.984375 42.703125 
Q 37.796875 48.390625 30.609375 48.390625 
z
M 30.609375 56 
Q 42.328125 56 49.015625 48.375 
Q 55.71875 40.765625 55.71875 27.296875 
Q 55.71875 13.875 49.015625 6.21875 
Q 42.328125 -1.421875 30.609375 -1.421875 
Q 18.84375 -1.421875 12.171875 6.21875 
Q 5.515625 13.875 5.515625 27.296875 
Q 5.515625 40.765625 12.171875 48.375 
Q 18.84375 56 30.609375 56 
z
" id="DejaVuSans-111"/>
       <path d="M 37.109375 75.984375 
L 37.109375 68.5 
L 28.515625 68.5 
Q 23.6875 68.5 21.796875 66.546875 
Q 19.921875 64.59375 19.921875 59.515625 
L 19.921875 54.6875 
L 34.71875 54.6875 
L 34.71875 47.703125 
L 19.921875 47.703125 
L 19.921875 0 
L 10.890625 0 
L 10.890625 47.703125 
L 2.296875 47.703125 
L 2.296875 54.6875 
L 10.890625 54.6875 
L 10.890625 58.5 
Q 10.890625 67.625 15.140625 71.796875 
Q 19.390625 75.984375 28.609375 75.984375 
z
" id="DejaVuSans-102"/>
       <path d="M 53.515625 70.515625 
L 53.515625 60.890625 
Q 47.90625 63.578125 42.921875 64.890625 
Q 37.9375 66.21875 33.296875 66.21875 
Q 25.25 66.21875 20.875 63.09375 
Q 16.5 59.96875 16.5 54.203125 
Q 16.5 49.359375 19.40625 46.890625 
Q 22.3125 44.4375 30.421875 42.921875 
L 36.375 41.703125 
Q 47.40625 39.59375 52.65625 34.296875 
Q 57.90625 29 57.90625 20.125 
Q 57.90625 9.515625 50.796875 4.046875 
Q 43.703125 -1.421875 29.984375 -1.421875 
Q 24.8125 -1.421875 18.96875 -0.25 
Q 13.140625 0.921875 6.890625 3.21875 
L 6.890625 13.375 
Q 12.890625 10.015625 18.65625 8.296875 
Q 24.421875 6.59375 29.984375 6.59375 
Q 38.421875 6.59375 43.015625 9.90625 
Q 47.609375 13.234375 47.609375 19.390625 
Q 47.609375 24.75 44.3125 27.78125 
Q 41.015625 30.8125 33.5 32.328125 
L 27.484375 33.5 
Q 16.453125 35.6875 11.515625 40.375 
Q 6.59375 45.0625 6.59375 53.421875 
Q 6.59375 63.09375 13.40625 68.65625 
Q 20.21875 74.21875 32.171875 74.21875 
Q 37.3125 74.21875 42.625 73.28125 
Q 47.953125 72.359375 53.515625 70.515625 
z
" id="DejaVuSans-83"/>
       <path d="M 48.78125 52.59375 
L 48.78125 44.1875 
Q 44.96875 46.296875 41.140625 47.34375 
Q 37.3125 48.390625 33.40625 48.390625 
Q 24.65625 48.390625 19.8125 42.84375 
Q 14.984375 37.3125 14.984375 27.296875 
Q 14.984375 17.28125 19.8125 11.734375 
Q 24.65625 6.203125 33.40625 6.203125 
Q 37.3125 6.203125 41.140625 7.25 
Q 44.96875 8.296875 48.78125 10.40625 
L 48.78125 2.09375 
Q 45.015625 0.34375 40.984375 -0.53125 
Q 36.96875 -1.421875 32.421875 -1.421875 
Q 20.0625 -1.421875 12.78125 6.34375 
Q 5.515625 14.109375 5.515625 27.296875 
Q 5.515625 40.671875 12.859375 48.328125 
Q 20.21875 56 33.015625 56 
Q 37.15625 56 41.109375 55.140625 
Q 45.0625 54.296875 48.78125 52.59375 
z
" id="DejaVuSans-99"/>
       <path d="M 54.890625 33.015625 
L 54.890625 0 
L 45.90625 0 
L 45.90625 32.71875 
Q 45.90625 40.484375 42.875 44.328125 
Q 39.84375 48.1875 33.796875 48.1875 
Q 26.515625 48.1875 22.3125 43.546875 
Q 18.109375 38.921875 18.109375 30.90625 
L 18.109375 0 
L 9.078125 0 
L 9.078125 75.984375 
L 18.109375 75.984375 
L 18.109375 46.1875 
Q 21.34375 51.125 25.703125 53.5625 
Q 30.078125 56 35.796875 56 
Q 45.21875 56 50.046875 50.171875 
Q 54.890625 44.34375 54.890625 33.015625 
z
" id="DejaVuSans-104"/>
       <path d="M 9.421875 75.984375 
L 18.40625 75.984375 
L 18.40625 0 
L 9.421875 0 
z
" id="DejaVuSans-108"/>
       <path d="M 9.421875 54.6875 
L 18.40625 54.6875 
L 18.40625 0 
L 9.421875 0 
z
M 9.421875 75.984375 
L 18.40625 75.984375 
L 18.40625 64.59375 
L 9.421875 64.59375 
z
" id="DejaVuSans-105"/>
       <path d="M 54.890625 33.015625 
L 54.890625 0 
L 45.90625 0 
L 45.90625 32.71875 
Q 45.90625 40.484375 42.875 44.328125 
Q 39.84375 48.1875 33.796875 48.1875 
Q 26.515625 48.1875 22.3125 43.546875 
Q 18.109375 38.921875 18.109375 30.90625 
L 18.109375 0 
L 9.078125 0 
L 9.078125 54.6875 
L 18.109375 54.6875 
L 18.109375 46.1875 
Q 21.34375 51.125 25.703125 53.5625 
Q 30.078125 56 35.796875 56 
Q 45.21875 56 50.046875 50.171875 
Q 54.890625 44.34375 54.890625 33.015625 
z
" id="DejaVuSans-110"/>
       <path d="M 45.40625 27.984375 
Q 45.40625 37.75 41.375 43.109375 
Q 37.359375 48.484375 30.078125 48.484375 
Q 22.859375 48.484375 18.828125 43.109375 
Q 14.796875 37.75 14.796875 27.984375 
Q 14.796875 18.265625 18.828125 12.890625 
Q 22.859375 7.515625 30.078125 7.515625 
Q 37.359375 7.515625 41.375 12.890625 
Q 45.40625 18.265625 45.40625 27.984375 
z
M 54.390625 6.78125 
Q 54.390625 -7.171875 48.1875 -13.984375 
Q 42 -20.796875 29.203125 -20.796875 
Q 24.46875 -20.796875 20.265625 -20.09375 
Q 16.0625 -19.390625 12.109375 -17.921875 
L 12.109375 -9.1875 
Q 16.0625 -11.328125 19.921875 -12.34375 
Q 23.78125 -13.375 27.78125 -13.375 
Q 36.625 -13.375 41.015625 -8.765625 
Q 45.40625 -4.15625 45.40625 5.171875 
L 45.40625 9.625 
Q 42.625 4.78125 38.28125 2.390625 
Q 33.9375 0 27.875 0 
Q 17.828125 0 11.671875 7.65625 
Q 5.515625 15.328125 5.515625 27.984375 
Q 5.515625 40.671875 11.671875 48.328125 
Q 17.828125 56 27.875 56 
Q 33.9375 56 38.28125 53.609375 
Q 42.625 51.21875 45.40625 46.390625 
L 45.40625 54.6875 
L 54.390625 54.6875 
z
" id="DejaVuSans-103"/>
       <path d="M 31 75.875 
Q 24.46875 64.65625 21.28125 53.65625 
Q 18.109375 42.671875 18.109375 31.390625 
Q 18.109375 20.125 21.3125 9.0625 
Q 24.515625 -2 31 -13.1875 
L 23.1875 -13.1875 
Q 15.875 -1.703125 12.234375 9.375 
Q 8.59375 20.453125 8.59375 31.390625 
Q 8.59375 42.28125 12.203125 53.3125 
Q 15.828125 64.359375 23.1875 75.875 
z
" id="DejaVuSans-40"/>
       <path d="M 44.390625 34.1875 
Q 47.5625 33.109375 50.5625 29.59375 
Q 53.5625 26.078125 56.59375 19.921875 
L 66.609375 0 
L 56 0 
L 46.6875 18.703125 
Q 43.0625 26.03125 39.671875 28.421875 
Q 36.28125 30.8125 30.421875 30.8125 
L 19.671875 30.8125 
L 19.671875 0 
L 9.8125 0 
L 9.8125 72.90625 
L 32.078125 72.90625 
Q 44.578125 72.90625 50.734375 67.671875 
Q 56.890625 62.453125 56.890625 51.90625 
Q 56.890625 45.015625 53.6875 40.46875 
Q 50.484375 35.9375 44.390625 34.1875 
z
M 19.671875 64.796875 
L 19.671875 38.921875 
L 32.078125 38.921875 
Q 39.203125 38.921875 42.84375 42.21875 
Q 46.484375 45.515625 46.484375 51.90625 
Q 46.484375 58.296875 42.84375 61.546875 
Q 39.203125 64.796875 32.078125 64.796875 
z
" id="DejaVuSans-82"/>
       <path d="M 45.40625 46.390625 
L 45.40625 75.984375 
L 54.390625 75.984375 
L 54.390625 0 
L 45.40625 0 
L 45.40625 8.203125 
Q 42.578125 3.328125 38.25 0.953125 
Q 33.9375 -1.421875 27.875 -1.421875 
Q 17.96875 -1.421875 11.734375 6.484375 
Q 5.515625 14.40625 5.515625 27.296875 
Q 5.515625 40.1875 11.734375 48.09375 
Q 17.96875 56 27.875 56 
Q 33.9375 56 38.25 53.625 
Q 42.578125 51.265625 45.40625 46.390625 
z
M 14.796875 27.296875 
Q 14.796875 17.390625 18.875 11.75 
Q 22.953125 6.109375 30.078125 6.109375 
Q 37.203125 6.109375 41.296875 11.75 
Q 45.40625 17.390625 45.40625 27.296875 
Q 45.40625 37.203125 41.296875 42.84375 
Q 37.203125 48.484375 30.078125 48.484375 
Q 22.953125 48.484375 18.875 42.84375 
Q 14.796875 37.203125 14.796875 27.296875 
z
" id="DejaVuSans-100"/>
       <path d="M 8.5 21.578125 
L 8.5 54.6875 
L 17.484375 54.6875 
L 17.484375 21.921875 
Q 17.484375 14.15625 20.5 10.265625 
Q 23.53125 6.390625 29.59375 6.390625 
Q 36.859375 6.390625 41.078125 11.03125 
Q 45.3125 15.671875 45.3125 23.6875 
L 45.3125 54.6875 
L 54.296875 54.6875 
L 54.296875 0 
L 45.3125 0 
L 45.3125 8.40625 
Q 42.046875 3.421875 37.71875 1 
Q 33.40625 -1.421875 27.6875 -1.421875 
Q 18.265625 -1.421875 13.375 4.4375 
Q 8.5 10.296875 8.5 21.578125 
z
M 31.109375 56 
z
" id="DejaVuSans-117"/>
       <path d="M 5.515625 54.6875 
L 48.1875 54.6875 
L 48.1875 46.484375 
L 14.40625 7.171875 
L 48.1875 7.171875 
L 48.1875 0 
L 4.296875 0 
L 4.296875 8.203125 
L 38.09375 47.515625 
L 5.515625 47.515625 
z
" id="DejaVuSans-122"/>
       <path d="M 8.015625 75.875 
L 15.828125 75.875 
Q 23.140625 64.359375 26.78125 53.3125 
Q 30.421875 42.28125 30.421875 31.390625 
Q 30.421875 20.453125 26.78125 9.375 
Q 23.140625 -1.703125 15.828125 -13.1875 
L 8.015625 -13.1875 
Q 14.5 -2 17.703125 9.0625 
Q 20.90625 20.125 20.90625 31.390625 
Q 20.90625 42.671875 17.703125 53.65625 
Q 14.5 64.65625 8.015625 75.875 
z
" id="DejaVuSans-41"/>
      </defs>
      <use xlink:href="#DejaVuSans-89"/>
      <use x="47.833984" xlink:href="#DejaVuSans-101"/>
      <use x="109.357422" xlink:href="#DejaVuSans-97"/>
      <use x="170.636719" xlink:href="#DejaVuSans-114"/>
      <use x="211.75" xlink:href="#DejaVuSans-115"/>
      <use x="263.849609" xlink:href="#DejaVuSans-32"/>
      <use x="295.636719" xlink:href="#DejaVuSans-111"/>
      <use x="356.818359" xlink:href="#DejaVuSans-102"/>
      <use x="392.023438" xlink:href="#DejaVuSans-32"/>
      <use x="423.810547" xlink:href="#DejaVuSans-83"/>
      <use x="487.287109" xlink:href="#DejaVuSans-99"/>
      <use x="542.267578" xlink:href="#DejaVuSans-104"/>
      <use x="605.646484" xlink:href="#DejaVuSans-111"/>
      <use x="666.828125" xlink:href="#DejaVuSans-111"/>
      <use x="728.009766" xlink:href="#DejaVuSans-108"/>
      <use x="755.792969" xlink:href="#DejaVuSans-105"/>
      <use x="783.576172" xlink:href="#DejaVuSans-110"/>
      <use x="846.955078" xlink:href="#DejaVuSans-103"/>
      <use x="910.431641" xlink:href="#DejaVuSans-32"/>
      <use x="942.21875" xlink:href="#DejaVuSans-40"/>
      <use x="981.232422" xlink:href="#DejaVuSans-82"/>
      <use x="1046.214844" xlink:href="#DejaVuSans-101"/>
      <use x="1107.738281" xlink:href="#DejaVuSans-115"/>
      <use x="1159.837891" xlink:href="#DejaVuSans-105"/>
      <use x="1187.621094" xlink:href="#DejaVuSans-100"/>
      <use x="1251.097656" xlink:href="#DejaVuSans-117"/>
      <use x="1314.476562" xlink:href="#DejaVuSans-97"/>
      <use x="1375.755859" xlink:href="#DejaVuSans-108"/>
      <use x="1403.539062" xlink:href="#DejaVuSans-105"/>
      <use x="1431.322266" xlink:href="#DejaVuSans-122"/>
      <use x="1483.8125" xlink:href="#DejaVuSans-101"/>
      <use x="1545.335938" xlink:href="#DejaVuSans-100"/>
      <use x="1608.8125" xlink:href="#DejaVuSans-41"/>
     </g>
    </g>
   </g>
   <g id="matplotlib.axis_2">
    <g id="ytick_1">
     <g id="line2d_14">
      <path clip-path="url(#p866aaf9b62)" d="M 51.367063 220.315146 
L 408.487063 220.315146 
" style="fill:none;stroke:#ffffff;"/>
     </g>
     <g id="line2d_15">
      <path d="M 51.367063 220.315146 
" style="fill:none;stroke:#333333;stroke-width:1.5;"/>
      <defs>
       <path d="M 0 0 
L -2.75 0 
" id="m8373f4c45f" style="stroke:#000000;"/>
      </defs>
      <g>
       <use style="fill:#333333;stroke:#000000;" x="51.367063" xlink:href="#m8373f4c45f" y="220.315146"/>
      </g>
     </g>
     <g id="text_6">
      <!-- −100 -->
      <g style="fill:#4d4d4d;" transform="translate(22.245938 222.743396)scale(0.088 -0.088)">
       <defs>
        <path d="M 12.40625 8.296875 
L 28.515625 8.296875 
L 28.515625 63.921875 
L 10.984375 60.40625 
L 10.984375 69.390625 
L 28.421875 72.90625 
L 38.28125 72.90625 
L 38.28125 8.296875 
L 54.390625 8.296875 
L 54.390625 0 
L 12.40625 0 
z
" id="DejaVuSans-49"/>
       </defs>
       <use xlink:href="#DejaVuSans-8722"/>
       <use x="83.789062" xlink:href="#DejaVuSans-49"/>
       <use x="147.412109" xlink:href="#DejaVuSans-48"/>
       <use x="211.035156" xlink:href="#DejaVuSans-48"/>
      </g>
     </g>
    </g>
    <g id="ytick_2">
     <g id="line2d_16">
      <path clip-path="url(#p866aaf9b62)" d="M 51.367063 165.854218 
L 408.487063 165.854218 
" style="fill:none;stroke:#ffffff;"/>
     </g>
     <g id="line2d_17">
      <path d="M 51.367063 165.854218 
" style="fill:none;stroke:#333333;stroke-width:1.5;"/>
      <g>
       <use style="fill:#333333;stroke:#000000;" x="51.367063" xlink:href="#m8373f4c45f" y="165.854218"/>
      </g>
     </g>
     <g id="text_7">
      <!-- −50 -->
      <g style="fill:#4d4d4d;" transform="translate(27.844938 168.282468)scale(0.088 -0.088)">
       <defs>
        <path d="M 10.796875 72.90625 
L 49.515625 72.90625 
L 49.515625 64.59375 
L 19.828125 64.59375 
L 19.828125 46.734375 
Q 21.96875 47.46875 24.109375 47.828125 
Q 26.265625 48.1875 28.421875 48.1875 
Q 40.625 48.1875 47.75 41.5 
Q 54.890625 34.8125 54.890625 23.390625 
Q 54.890625 11.625 47.5625 5.09375 
Q 40.234375 -1.421875 26.90625 -1.421875 
Q 22.3125 -1.421875 17.546875 -0.640625 
Q 12.796875 0.140625 7.71875 1.703125 
L 7.71875 11.625 
Q 12.109375 9.234375 16.796875 8.0625 
Q 21.484375 6.890625 26.703125 6.890625 
Q 35.15625 6.890625 40.078125 11.328125 
Q 45.015625 15.765625 45.015625 23.390625 
Q 45.015625 31 40.078125 35.4375 
Q 35.15625 39.890625 26.703125 39.890625 
Q 22.75 39.890625 18.8125 39.015625 
Q 14.890625 38.140625 10.796875 36.28125 
z
" id="DejaVuSans-53"/>
       </defs>
       <use xlink:href="#DejaVuSans-8722"/>
       <use x="83.789062" xlink:href="#DejaVuSans-53"/>
       <use x="147.412109" xlink:href="#DejaVuSans-48"/>
      </g>
     </g>
    </g>
    <g id="ytick_3">
     <g id="line2d_18">
      <path clip-path="url(#p866aaf9b62)" d="M 51.367063 111.39329 
L 408.487063 111.39329 
" style="fill:none;stroke:#ffffff;"/>
     </g>
     <g id="line2d_19">
      <path d="M 51.367063 111.39329 
" style="fill:none;stroke:#333333;stroke-width:1.5;"/>
      <g>
       <use style="fill:#333333;stroke:#000000;" x="51.367063" xlink:href="#m8373f4c45f" y="111.39329"/>
      </g>
     </g>
     <g id="text_8">
      <!-- 0 -->
      <g style="fill:#4d4d4d;" transform="translate(40.818063 113.82154)scale(0.088 -0.088)">
       <use xlink:href="#DejaVuSans-48"/>
      </g>
     </g>
    </g>
    <g id="ytick_4">
     <g id="line2d_20">
      <path clip-path="url(#p866aaf9b62)" d="M 51.367063 56.932361 
L 408.487063 56.932361 
" style="fill:none;stroke:#ffffff;"/>
     </g>
     <g id="line2d_21">
      <path d="M 51.367063 56.932361 
" style="fill:none;stroke:#333333;stroke-width:1.5;"/>
      <g>
       <use style="fill:#333333;stroke:#000000;" x="51.367063" xlink:href="#m8373f4c45f" y="56.932361"/>
      </g>
     </g>
     <g id="text_9">
      <!-- 50 -->
      <g style="fill:#4d4d4d;" transform="translate(35.219063 59.360611)scale(0.088 -0.088)">
       <use xlink:href="#DejaVuSans-53"/>
       <use x="63.623047" xlink:href="#DejaVuSans-48"/>
      </g>
     </g>
    </g>
    <g id="ytick_5">
     <g id="line2d_22">
      <path clip-path="url(#p866aaf9b62)" d="M 51.367063 247.545611 
L 408.487063 247.545611 
" style="fill:none;stroke:#ffffff;stroke-width:0.5;"/>
     </g>
    </g>
    <g id="ytick_6">
     <g id="line2d_23">
      <path clip-path="url(#p866aaf9b62)" d="M 51.367063 193.084682 
L 408.487063 193.084682 
" style="fill:none;stroke:#ffffff;stroke-width:0.5;"/>
     </g>
    </g>
    <g id="ytick_7">
     <g id="line2d_24">
      <path clip-path="url(#p866aaf9b62)" d="M 51.367063 138.623754 
L 408.487063 138.623754 
" style="fill:none;stroke:#ffffff;stroke-width:0.5;"/>
     </g>
    </g>
    <g id="ytick_8">
     <g id="line2d_25">
      <path clip-path="url(#p866aaf9b62)" d="M 51.367063 84.162826 
L 408.487063 84.162826 
" style="fill:none;stroke:#ffffff;stroke-width:0.5;"/>
     </g>
    </g>
    <g id="ytick_9">
     <g id="line2d_26">
      <path clip-path="url(#p866aaf9b62)" d="M 51.367063 29.701897 
L 408.487063 29.701897 
" style="fill:none;stroke:#ffffff;stroke-width:0.5;"/>
     </g>
    </g>
    <g id="text_10">
     <!-- PIRLS score (residualized) -->
     <g transform="translate(15.558281 209.489172)rotate(-90)scale(0.11 -0.11)">
      <defs>
       <path d="M 19.671875 64.796875 
L 19.671875 37.40625 
L 32.078125 37.40625 
Q 38.96875 37.40625 42.71875 40.96875 
Q 46.484375 44.53125 46.484375 51.125 
Q 46.484375 57.671875 42.71875 61.234375 
Q 38.96875 64.796875 32.078125 64.796875 
z
M 9.8125 72.90625 
L 32.078125 72.90625 
Q 44.34375 72.90625 50.609375 67.359375 
Q 56.890625 61.8125 56.890625 51.125 
Q 56.890625 40.328125 50.609375 34.8125 
Q 44.34375 29.296875 32.078125 29.296875 
L 19.671875 29.296875 
L 19.671875 0 
L 9.8125 0 
z
" id="DejaVuSans-80"/>
       <path d="M 9.8125 72.90625 
L 19.671875 72.90625 
L 19.671875 0 
L 9.8125 0 
z
" id="DejaVuSans-73"/>
       <path d="M 9.8125 72.90625 
L 19.671875 72.90625 
L 19.671875 8.296875 
L 55.171875 8.296875 
L 55.171875 0 
L 9.8125 0 
z
" id="DejaVuSans-76"/>
      </defs>
      <use xlink:href="#DejaVuSans-80"/>
      <use x="60.302734" xlink:href="#DejaVuSans-73"/>
      <use x="89.794922" xlink:href="#DejaVuSans-82"/>
      <use x="159.277344" xlink:href="#DejaVuSans-76"/>
      <use x="214.990234" xlink:href="#DejaVuSans-83"/>
      <use x="278.466797" xlink:href="#DejaVuSans-32"/>
      <use x="310.253906" xlink:href="#DejaVuSans-115"/>
      <use x="362.353516" xlink:href="#DejaVuSans-99"/>
      <use x="417.333984" xlink:href="#DejaVuSans-111"/>
      <use x="478.515625" xlink:href="#DejaVuSans-114"/>
      <use x="517.378906" xlink:href="#DejaVuSans-101"/>
      <use x="578.902344" xlink:href="#DejaVuSans-32"/>
      <use x="610.689453" xlink:href="#DejaVuSans-40"/>
      <use x="649.703125" xlink:href="#DejaVuSans-114"/>
      <use x="688.566406" xlink:href="#DejaVuSans-101"/>
      <use x="750.089844" xlink:href="#DejaVuSans-115"/>
      <use x="802.189453" xlink:href="#DejaVuSans-105"/>
      <use x="829.972656" xlink:href="#DejaVuSans-100"/>
      <use x="893.449219" xlink:href="#DejaVuSans-117"/>
      <use x="956.828125" xlink:href="#DejaVuSans-97"/>
      <use x="1018.107422" xlink:href="#DejaVuSans-108"/>
      <use x="1045.890625" xlink:href="#DejaVuSans-105"/>
      <use x="1073.673828" xlink:href="#DejaVuSans-122"/>
      <use x="1126.164062" xlink:href="#DejaVuSans-101"/>
      <use x="1187.6875" xlink:href="#DejaVuSans-100"/>
      <use x="1251.164062" xlink:href="#DejaVuSans-41"/>
     </g>
    </g>
   </g>
   <g id="PathCollection_1">
    <path clip-path="url(#p866aaf9b62)" d="M 174.052506 211.104805 
C 174.522567 211.104805 174.973438 210.918048 175.305821 210.585666 
C 175.638203 210.253283 175.82496 209.802412 175.82496 209.332351 
C 175.82496 208.862291 175.638203 208.41142 175.305821 208.079037 
C 174.973438 207.746654 174.522567 207.559898 174.052506 207.559898 
C 173.582446 207.559898 173.131575 207.746654 172.799192 208.079037 
C 172.46681 208.41142 172.280053 208.862291 172.280053 209.332351 
C 172.280053 209.802412 172.46681 210.253283 172.799192 210.585666 
C 173.131575 210.918048 173.582446 211.104805 174.052506 211.104805 
z
" style="stroke:#000000;stroke-width:0.886227;"/>
    <path clip-path="url(#p866aaf9b62)" d="M 283.121004 161.137892 
C 283.591064 161.137892 284.041936 160.951135 284.374318 160.618752 
C 284.706701 160.28637 284.893458 159.835499 284.893458 159.365438 
C 284.893458 158.895378 284.706701 158.444507 284.374318 158.112124 
C 284.041936 157.779741 283.591064 157.592984 283.121004 157.592984 
C 282.650944 157.592984 282.200073 157.779741 281.86769 158.112124 
C 281.535307 158.444507 281.34855 158.895378 281.34855 159.365438 
C 281.34855 159.835499 281.535307 160.28637 281.86769 160.618752 
C 282.200073 160.951135 282.650944 161.137892 283.121004 161.137892 
z
" style="stroke:#000000;stroke-width:0.886227;"/>
    <path clip-path="url(#p866aaf9b62)" d="M 298.62814 89.036733 
C 299.0982 89.036733 299.549071 88.849976 299.881454 88.517593 
C 300.213837 88.185211 300.400594 87.734339 300.400594 87.264279 
C 300.400594 86.794219 300.213837 86.343348 299.881454 86.010965 
C 299.549071 85.678582 299.0982 85.491825 298.62814 85.491825 
C 298.15808 85.491825 297.707209 85.678582 297.374826 86.010965 
C 297.042443 86.343348 296.855686 86.794219 296.855686 87.264279 
C 296.855686 87.734339 297.042443 88.185211 297.374826 88.517593 
C 297.707209 88.849976 298.15808 89.036733 298.62814 89.036733 
z
" style="stroke:#000000;stroke-width:0.886227;"/>
    <path clip-path="url(#p866aaf9b62)" d="M 223.973502 90.814984 
C 224.443563 90.814984 224.894434 90.628228 225.226816 90.295845 
C 225.559199 89.963462 225.745956 89.512591 225.745956 89.042531 
C 225.745956 88.57247 225.559199 88.121599 225.226816 87.789216 
C 224.894434 87.456834 224.443563 87.270077 223.973502 87.270077 
C 223.503442 87.270077 223.052571 87.456834 222.720188 87.789216 
C 222.387805 88.121599 222.201048 88.57247 222.201048 89.042531 
C 222.201048 89.512591 222.387805 89.963462 222.720188 90.295845 
C 223.052571 90.628228 223.503442 90.814984 223.973502 90.814984 
z
" style="stroke:#000000;stroke-width:0.886227;"/>
    <path clip-path="url(#p866aaf9b62)" d="M 290.094453 48.744388 
C 290.564514 48.744388 291.015385 48.557631 291.347768 48.225248 
C 291.68015 47.892865 291.866907 47.441994 291.866907 46.971934 
C 291.866907 46.501874 291.68015 46.051003 291.347768 45.71862 
C 291.015385 45.386237 290.564514 45.19948 290.094453 45.19948 
C 289.624393 45.19948 289.173522 45.386237 288.841139 45.71862 
C 288.508757 46.051003 288.322 46.501874 288.322 46.971934 
C 288.322 47.441994 288.508757 47.892865 288.841139 48.225248 
C 289.173522 48.557631 289.624393 48.744388 290.094453 48.744388 
z
" style="stroke:#000000;stroke-width:0.886227;"/>
    <path clip-path="url(#p866aaf9b62)" d="M 258.589842 93.465869 
C 259.059903 93.465869 259.510774 93.279112 259.843157 92.946729 
C 260.175539 92.614346 260.362296 92.163475 260.362296 91.693415 
C 260.362296 91.223355 260.175539 90.772484 259.843157 90.440101 
C 259.510774 90.107718 259.059903 89.920961 258.589842 89.920961 
C 258.119782 89.920961 257.668911 90.107718 257.336528 90.440101 
C 257.004145 90.772484 256.817389 91.223355 256.817389 91.693415 
C 256.817389 92.163475 257.004145 92.614346 257.336528 92.946729 
C 257.668911 93.279112 258.119782 93.465869 258.589842 93.465869 
z
" style="stroke:#000000;stroke-width:0.886227;"/>
    <path clip-path="url(#p866aaf9b62)" d="M 357.577316 36.233162 
C 358.047376 36.233162 358.498247 36.046405 358.83063 35.714022 
C 359.163013 35.38164 359.34977 34.930769 359.34977 34.460708 
C 359.34977 33.990648 359.163013 33.539777 358.83063 33.207394 
C 358.498247 32.875011 358.047376 32.688254 357.577316 32.688254 
C 357.107256 32.688254 356.656385 32.875011 356.324002 33.207394 
C 355.991619 33.539777 355.804862 33.990648 355.804862 34.460708 
C 355.804862 34.930769 355.991619 35.38164 356.324002 35.714022 
C 356.656385 36.046405 357.107256 36.233162 357.577316 36.233162 
z
" style="stroke:#000000;stroke-width:0.886227;"/>
    <path clip-path="url(#p866aaf9b62)" d="M 241.110565 135.155087 
C 241.580625 135.155087 242.031496 134.96833 242.363879 134.635948 
C 242.696262 134.303565 242.883018 133.852694 242.883018 133.382633 
C 242.883018 132.912573 242.696262 132.461702 242.363879 132.129319 
C 242.031496 131.796936 241.580625 131.61018 241.110565 131.61018 
C 240.640504 131.61018 240.189633 131.796936 239.85725 132.129319 
C 239.524868 132.461702 239.338111 132.912573 239.338111 133.382633 
C 239.338111 133.852694 239.524868 134.303565 239.85725 134.635948 
C 240.189633 134.96833 240.640504 135.155087 241.110565 135.155087 
z
" style="stroke:#000000;stroke-width:0.886227;"/>
    <path clip-path="url(#p866aaf9b62)" d="M 301.048275 206.733635 
C 301.518336 206.733635 301.969207 206.546878 302.30159 206.214495 
C 302.633972 205.882112 302.820729 205.431241 302.820729 204.961181 
C 302.820729 204.491121 302.633972 204.04025 302.30159 203.707867 
C 301.969207 203.375484 301.518336 203.188727 301.048275 203.188727 
C 300.578215 203.188727 300.127344 203.375484 299.794961 203.707867 
C 299.462579 204.04025 299.275822 204.491121 299.275822 204.961181 
C 299.275822 205.431241 299.462579 205.882112 299.794961 206.214495 
C 300.127344 206.546878 300.578215 206.733635 301.048275 206.733635 
z
" style="stroke:#000000;stroke-width:0.886227;"/>
    <path clip-path="url(#p866aaf9b62)" d="M 329.253821 69.892293 
C 329.723881 69.892293 330.174752 69.705536 330.507135 69.373154 
C 330.839518 69.040771 331.026275 68.5899 331.026275 68.119839 
C 331.026275 67.649779 330.839518 67.198908 330.507135 66.866525 
C 330.174752 66.534143 329.723881 66.347386 329.253821 66.347386 
C 328.783761 66.347386 328.33289 66.534143 328.000507 66.866525 
C 327.668124 67.198908 327.481367 67.649779 327.481367 68.119839 
C 327.481367 68.5899 327.668124 69.040771 328.000507 69.373154 
C 328.33289 69.705536 328.783761 69.892293 329.253821 69.892293 
z
" style="stroke:#000000;stroke-width:0.886227;"/>
    <path clip-path="url(#p866aaf9b62)" d="M 280.871584 83.544644 
C 281.341645 83.544644 281.792516 83.357887 282.124899 83.025504 
C 282.457281 82.693121 282.644038 82.24225 282.644038 81.77219 
C 282.644038 81.30213 282.457281 80.851259 282.124899 80.518876 
C 281.792516 80.186493 281.341645 79.999736 280.871584 79.999736 
C 280.401524 79.999736 279.950653 80.186493 279.61827 80.518876 
C 279.285887 80.851259 279.099131 81.30213 279.099131 81.77219 
C 279.099131 82.24225 279.285887 82.693121 279.61827 83.025504 
C 279.950653 83.357887 280.401524 83.544644 280.871584 83.544644 
z
" style="stroke:#000000;stroke-width:0.886227;"/>
    <path clip-path="url(#p866aaf9b62)" d="M 230.384418 122.360238 
C 230.854478 122.360238 231.305349 122.173481 231.637732 121.841099 
C 231.970115 121.508716 232.156872 121.057845 232.156872 120.587784 
C 232.156872 120.117724 231.970115 119.666853 231.637732 119.33447 
C 231.305349 119.002088 230.854478 118.815331 230.384418 118.815331 
C 229.914358 118.815331 229.463487 119.002088 229.131104 119.33447 
C 228.798721 119.666853 228.611964 120.117724 228.611964 120.587784 
C 228.611964 121.057845 228.798721 121.508716 229.131104 121.841099 
C 229.463487 122.173481 229.914358 122.360238 230.384418 122.360238 
z
" style="stroke:#000000;stroke-width:0.886227;"/>
    <path clip-path="url(#p866aaf9b62)" d="M 286.590225 121.763609 
C 287.060286 121.763609 287.511157 121.576852 287.843539 121.24447 
C 288.175922 120.912087 288.362679 120.461216 288.362679 119.991156 
C 288.362679 119.521095 288.175922 119.070224 287.843539 118.737841 
C 287.511157 118.405459 287.060286 118.218702 286.590225 118.218702 
C 286.120165 118.218702 285.669294 118.405459 285.336911 118.737841 
C 285.004528 119.070224 284.817772 119.521095 284.817772 119.991156 
C 284.817772 120.461216 285.004528 120.912087 285.336911 121.24447 
C 285.669294 121.576852 286.120165 121.763609 286.590225 121.763609 
z
" style="stroke:#000000;stroke-width:0.886227;"/>
    <path clip-path="url(#p866aaf9b62)" d="M 239.654263 160.377306 
C 240.124323 160.377306 240.575195 160.190549 240.907577 159.858167 
C 241.23996 159.525784 241.426717 159.074913 241.426717 158.604852 
C 241.426717 158.134792 241.23996 157.683921 240.907577 157.351538 
C 240.575195 157.019156 240.124323 156.832399 239.654263 156.832399 
C 239.184203 156.832399 238.733332 157.019156 238.400949 157.351538 
C 238.068566 157.683921 237.881809 158.134792 237.881809 158.604852 
C 237.881809 159.074913 238.068566 159.525784 238.400949 159.858167 
C 238.733332 160.190549 239.184203 160.377306 239.654263 160.377306 
z
" style="stroke:#000000;stroke-width:0.886227;"/>
    <path clip-path="url(#p866aaf9b62)" d="M 290.439914 123.555866 
C 290.909975 123.555866 291.360846 123.369109 291.693229 123.036726 
C 292.025611 122.704343 292.212368 122.253472 292.212368 121.783412 
C 292.212368 121.313351 292.025611 120.86248 291.693229 120.530098 
C 291.360846 120.197715 290.909975 120.010958 290.439914 120.010958 
C 289.969854 120.010958 289.518983 120.197715 289.1866 120.530098 
C 288.854217 120.86248 288.667461 121.313351 288.667461 121.783412 
C 288.667461 122.253472 288.854217 122.704343 289.1866 123.036726 
C 289.518983 123.369109 289.969854 123.555866 290.439914 123.555866 
z
" style="stroke:#000000;stroke-width:0.886227;"/>
    <path clip-path="url(#p866aaf9b62)" d="M 242.955757 98.832291 
C 243.425817 98.832291 243.876688 98.645534 244.209071 98.313151 
C 244.541453 97.980768 244.72821 97.529897 244.72821 97.059837 
C 244.72821 96.589777 244.541453 96.138905 244.209071 95.806523 
C 243.876688 95.47414 243.425817 95.287383 242.955757 95.287383 
C 242.485696 95.287383 242.034825 95.47414 241.702442 95.806523 
C 241.37006 96.138905 241.183303 96.589777 241.183303 97.059837 
C 241.183303 97.529897 241.37006 97.980768 241.702442 98.313151 
C 242.034825 98.645534 242.485696 98.832291 242.955757 98.832291 
z
" style="stroke:#000000;stroke-width:0.886227;"/>
    <path clip-path="url(#p866aaf9b62)" d="M 373.018216 54.55216 
C 373.488276 54.55216 373.939147 54.365404 374.27153 54.033021 
C 374.603913 53.700638 374.79067 53.249767 374.79067 52.779707 
C 374.79067 52.309646 374.603913 51.858775 374.27153 51.526392 
C 373.939147 51.19401 373.488276 51.007253 373.018216 51.007253 
C 372.548156 51.007253 372.097285 51.19401 371.764902 51.526392 
C 371.432519 51.858775 371.245762 52.309646 371.245762 52.779707 
C 371.245762 53.249767 371.432519 53.700638 371.764902 54.033021 
C 372.097285 54.365404 372.548156 54.55216 373.018216 54.55216 
z
" style="stroke:#000000;stroke-width:0.886227;"/>
    <path clip-path="url(#p866aaf9b62)" d="M 329.547718 78.382936 
C 330.017778 78.382936 330.468649 78.19618 330.801032 77.863797 
C 331.133415 77.531414 331.320171 77.080543 331.320171 76.610483 
C 331.320171 76.140422 331.133415 75.689551 330.801032 75.357168 
C 330.468649 75.024786 330.017778 74.838029 329.547718 74.838029 
C 329.077657 74.838029 328.626786 75.024786 328.294403 75.357168 
C 327.962021 75.689551 327.775264 76.140422 327.775264 76.610483 
C 327.775264 77.080543 327.962021 77.531414 328.294403 77.863797 
C 328.626786 78.19618 329.077657 78.382936 329.547718 78.382936 
z
" style="stroke:#000000;stroke-width:0.886227;"/>
    <path clip-path="url(#p866aaf9b62)" d="M 286.52115 63.67212 
C 286.99121 63.67212 287.442081 63.485363 287.774464 63.15298 
C 288.106846 62.820598 288.293603 62.369726 288.293603 61.899666 
C 288.293603 61.429606 288.106846 60.978735 287.774464 60.646352 
C 287.442081 60.313969 286.99121 60.127212 286.52115 60.127212 
C 286.051089 60.127212 285.600218 60.313969 285.267835 60.646352 
C 284.935453 60.978735 284.748696 61.429606 284.748696 61.899666 
C 284.748696 62.369726 284.935453 62.820598 285.267835 63.15298 
C 285.600218 63.485363 286.051089 63.67212 286.52115 63.67212 
z
" style="stroke:#000000;stroke-width:0.886227;"/>
    <path clip-path="url(#p866aaf9b62)" d="M 243.88023 220.444891 
C 244.35029 220.444891 244.801161 220.258134 245.133544 219.925751 
C 245.465927 219.593368 245.652684 219.142497 245.652684 218.672437 
C 245.652684 218.202377 245.465927 217.751506 245.133544 217.419123 
C 244.801161 217.08674 244.35029 216.899983 243.88023 216.899983 
C 243.41017 216.899983 242.959299 217.08674 242.626916 217.419123 
C 242.294533 217.751506 242.107776 218.202377 242.107776 218.672437 
C 242.107776 219.142497 242.294533 219.593368 242.626916 219.925751 
C 242.959299 220.258134 243.41017 220.444891 243.88023 220.444891 
z
" style="stroke:#000000;stroke-width:0.886227;"/>
    <path clip-path="url(#p866aaf9b62)" d="M 253.389532 133.638791 
C 253.859592 133.638791 254.310463 133.452034 254.642846 133.119652 
C 254.975229 132.787269 255.161985 132.336398 255.161985 131.866338 
C 255.161985 131.396277 254.975229 130.945406 254.642846 130.613023 
C 254.310463 130.280641 253.859592 130.093884 253.389532 130.093884 
C 252.919471 130.093884 252.4686 130.280641 252.136217 130.613023 
C 251.803835 130.945406 251.617078 131.396277 251.617078 131.866338 
C 251.617078 132.336398 251.803835 132.787269 252.136217 133.119652 
C 252.4686 133.452034 252.919471 133.638791 253.389532 133.638791 
z
" style="stroke:#000000;stroke-width:0.886227;"/>
    <path clip-path="url(#p866aaf9b62)" d="M 273.009368 91.97163 
C 273.479428 91.97163 273.9303 91.784873 274.262682 91.452491 
C 274.595065 91.120108 274.781822 90.669237 274.781822 90.199176 
C 274.781822 89.729116 274.595065 89.278245 274.262682 88.945862 
C 273.9303 88.61348 273.479428 88.426723 273.009368 88.426723 
C 272.539308 88.426723 272.088437 88.61348 271.756054 88.945862 
C 271.423671 89.278245 271.236914 89.729116 271.236914 90.199176 
C 271.236914 90.669237 271.423671 91.120108 271.756054 91.452491 
C 272.088437 91.784873 272.539308 91.97163 273.009368 91.97163 
z
" style="stroke:#000000;stroke-width:0.886227;"/>
    <path clip-path="url(#p866aaf9b62)" d="M 242.521305 43.200399 
C 242.991365 43.200399 243.442236 43.013642 243.774619 42.681259 
C 244.107002 42.348877 244.293759 41.898005 244.293759 41.427945 
C 244.293759 40.957885 244.107002 40.507014 243.774619 40.174631 
C 243.442236 39.842248 242.991365 39.655491 242.521305 39.655491 
C 242.051245 39.655491 241.600374 39.842248 241.267991 40.174631 
C 240.935608 40.507014 240.748851 40.957885 240.748851 41.427945 
C 240.748851 41.898005 240.935608 42.348877 241.267991 42.681259 
C 241.600374 43.013642 242.051245 43.200399 242.521305 43.200399 
z
" style="stroke:#000000;stroke-width:0.886227;"/>
    <path clip-path="url(#p866aaf9b62)" d="M 276.730044 92.926974 
C 277.200104 92.926974 277.650975 92.740217 277.983358 92.407835 
C 278.315741 92.075452 278.502498 91.624581 278.502498 91.154521 
C 278.502498 90.68446 278.315741 90.233589 277.983358 89.901206 
C 277.650975 89.568824 277.200104 89.382067 276.730044 89.382067 
C 276.259984 89.382067 275.809113 89.568824 275.47673 89.901206 
C 275.144347 90.233589 274.95759 90.68446 274.95759 91.154521 
C 274.95759 91.624581 275.144347 92.075452 275.47673 92.407835 
C 275.809113 92.740217 276.259984 92.926974 276.730044 92.926974 
z
" style="stroke:#000000;stroke-width:0.886227;"/>
    <path clip-path="url(#p866aaf9b62)" d="M 167.118884 128.989659 
C 167.588944 128.989659 168.039815 128.802902 168.372198 128.470519 
C 168.704581 128.138137 168.891338 127.687266 168.891338 127.217205 
C 168.891338 126.747145 168.704581 126.296274 168.372198 125.963891 
C 168.039815 125.631508 167.588944 125.444752 167.118884 125.444752 
C 166.648824 125.444752 166.197953 125.631508 165.86557 125.963891 
C 165.533187 126.296274 165.34643 126.747145 165.34643 127.217205 
C 165.34643 127.687266 165.533187 128.138137 165.86557 128.470519 
C 166.197953 128.802902 166.648824 128.989659 167.118884 128.989659 
z
" style="stroke:#000000;stroke-width:0.886227;"/>
    <path clip-path="url(#p866aaf9b62)" d="M 277.276275 53.030946 
C 277.746335 53.030946 278.197206 52.844189 278.529589 52.511806 
C 278.861971 52.179423 279.048728 51.728552 279.048728 51.258492 
C 279.048728 50.788432 278.861971 50.337561 278.529589 50.005178 
C 278.197206 49.672795 277.746335 49.486038 277.276275 49.486038 
C 276.806214 49.486038 276.355343 49.672795 276.02296 50.005178 
C 275.690578 50.337561 275.503821 50.788432 275.503821 51.258492 
C 275.503821 51.728552 275.690578 52.179423 276.02296 52.511806 
C 276.355343 52.844189 276.806214 53.030946 277.276275 53.030946 
z
" style="stroke:#000000;stroke-width:0.886227;"/>
    <path clip-path="url(#p866aaf9b62)" d="M 267.789038 101.31574 
C 268.259098 101.31574 268.709969 101.128983 269.042352 100.7966 
C 269.374735 100.464218 269.561492 100.013346 269.561492 99.543286 
C 269.561492 99.073226 269.374735 98.622355 269.042352 98.289972 
C 268.709969 97.957589 268.259098 97.770832 267.789038 97.770832 
C 267.318978 97.770832 266.868107 97.957589 266.535724 98.289972 
C 266.203341 98.622355 266.016584 99.073226 266.016584 99.543286 
C 266.016584 100.013346 266.203341 100.464218 266.535724 100.7966 
C 266.868107 101.128983 267.318978 101.31574 267.789038 101.31574 
z
" style="stroke:#000000;stroke-width:0.886227;"/>
    <path clip-path="url(#p866aaf9b62)" d="M 344.760693 29.449401 
C 345.230753 29.449401 345.681624 29.262644 346.014007 28.930262 
C 346.34639 28.597879 346.533146 28.147008 346.533146 27.676947 
C 346.533146 27.206887 346.34639 26.756016 346.014007 26.423633 
C 345.681624 26.09125 345.230753 25.904494 344.760693 25.904494 
C 344.290632 25.904494 343.839761 26.09125 343.507378 26.423633 
C 343.174996 26.756016 342.988239 27.206887 342.988239 27.676947 
C 342.988239 28.147008 343.174996 28.597879 343.507378 28.930262 
C 343.839761 29.262644 344.290632 29.449401 344.760693 29.449401 
z
" style="stroke:#000000;stroke-width:0.886227;"/>
    <path clip-path="url(#p866aaf9b62)" d="M 351.78365 50.388004 
C 352.25371 50.388004 352.704581 50.201247 353.036964 49.868864 
C 353.369347 49.536481 353.556104 49.08561 353.556104 48.61555 
C 353.556104 48.14549 353.369347 47.694619 353.036964 47.362236 
C 352.704581 47.029853 352.25371 46.843096 351.78365 46.843096 
C 351.31359 46.843096 350.862719 47.029853 350.530336 47.362236 
C 350.197953 47.694619 350.011196 48.14549 350.011196 48.61555 
C 350.011196 49.08561 350.197953 49.536481 350.530336 49.868864 
C 350.862719 50.201247 351.31359 50.388004 351.78365 50.388004 
z
" style="stroke:#000000;stroke-width:0.886227;"/>
    <path clip-path="url(#p866aaf9b62)" d="M 256.478153 131.304583 
C 256.948213 131.304583 257.399084 131.117826 257.731467 130.785444 
C 258.06385 130.453061 258.250607 130.00219 258.250607 129.53213 
C 258.250607 129.062069 258.06385 128.611198 257.731467 128.278815 
C 257.399084 127.946433 256.948213 127.759676 256.478153 127.759676 
C 256.008093 127.759676 255.557222 127.946433 255.224839 128.278815 
C 254.892456 128.611198 254.705699 129.062069 254.705699 129.53213 
C 254.705699 130.00219 254.892456 130.453061 255.224839 130.785444 
C 255.557222 131.117826 256.008093 131.304583 256.478153 131.304583 
z
" style="stroke:#000000;stroke-width:0.886227;"/>
    <path clip-path="url(#p866aaf9b62)" d="M 291.653713 82.518457 
C 292.123773 82.518457 292.574644 82.3317 292.907027 81.999318 
C 293.23941 81.666935 293.426166 81.216064 293.426166 80.746003 
C 293.426166 80.275943 293.23941 79.825072 292.907027 79.492689 
C 292.574644 79.160306 292.123773 78.97355 291.653713 78.97355 
C 291.183652 78.97355 290.732781 79.160306 290.400398 79.492689 
C 290.068016 79.825072 289.881259 80.275943 289.881259 80.746003 
C 289.881259 81.216064 290.068016 81.666935 290.400398 81.999318 
C 290.732781 82.3317 291.183652 82.518457 291.653713 82.518457 
z
" style="stroke:#000000;stroke-width:0.886227;"/>
    <path clip-path="url(#p866aaf9b62)" d="M 270.122754 118.677258 
C 270.592815 118.677258 271.043686 118.490501 271.376069 118.158118 
C 271.708451 117.825735 271.895208 117.374864 271.895208 116.904804 
C 271.895208 116.434744 271.708451 115.983873 271.376069 115.65149 
C 271.043686 115.319107 270.592815 115.13235 270.122754 115.13235 
C 269.652694 115.13235 269.201823 115.319107 268.86944 115.65149 
C 268.537057 115.983873 268.350301 116.434744 268.350301 116.904804 
C 268.350301 117.374864 268.537057 117.825735 268.86944 118.158118 
C 269.201823 118.490501 269.652694 118.677258 270.122754 118.677258 
z
" style="stroke:#000000;stroke-width:0.886227;"/>
    <path clip-path="url(#p866aaf9b62)" d="M 351.363707 57.809021 
C 351.833768 57.809021 352.284639 57.622264 352.617021 57.289881 
C 352.949404 56.957498 353.136161 56.506627 353.136161 56.036567 
C 353.136161 55.566507 352.949404 55.115636 352.617021 54.783253 
C 352.284639 54.45087 351.833768 54.264113 351.363707 54.264113 
C 350.893647 54.264113 350.442776 54.45087 350.110393 54.783253 
C 349.77801 55.115636 349.591253 55.566507 349.591253 56.036567 
C 349.591253 56.506627 349.77801 56.957498 350.110393 57.289881 
C 350.442776 57.622264 350.893647 57.809021 351.363707 57.809021 
z
" style="stroke:#000000;stroke-width:0.886227;"/>
    <path clip-path="url(#p866aaf9b62)" d="M 243.945304 66.541438 
C 244.415364 66.541438 244.866235 66.354681 245.198618 66.022298 
C 245.531001 65.689915 245.717758 65.239044 245.717758 64.768984 
C 245.717758 64.298924 245.531001 63.848052 245.198618 63.51567 
C 244.866235 63.183287 244.415364 62.99653 243.945304 62.99653 
C 243.475244 62.99653 243.024372 63.183287 242.69199 63.51567 
C 242.359607 63.848052 242.17285 64.298924 242.17285 64.768984 
C 242.17285 65.239044 242.359607 65.689915 242.69199 66.022298 
C 243.024372 66.354681 243.475244 66.541438 243.945304 66.541438 
z
" style="stroke:#000000;stroke-width:0.886227;"/>
    <path clip-path="url(#p866aaf9b62)" d="M 67.59979 262.988454 
C 68.06985 262.988454 68.520721 262.801697 68.853104 262.469314 
C 69.185487 262.136931 69.372244 261.68606 69.372244 261.216 
C 69.372244 260.74594 69.185487 260.295069 68.853104 259.962686 
C 68.520721 259.630303 68.06985 259.443546 67.59979 259.443546 
C 67.12973 259.443546 66.678858 259.630303 66.346476 259.962686 
C 66.014093 260.295069 65.827336 260.74594 65.827336 261.216 
C 65.827336 261.68606 66.014093 262.136931 66.346476 262.469314 
C 66.678858 262.801697 67.12973 262.988454 67.59979 262.988454 
z
" style="stroke:#000000;stroke-width:0.886227;"/>
    <path clip-path="url(#p866aaf9b62)" d="M 309.816512 68.243954 
C 310.286573 68.243954 310.737444 68.057197 311.069827 67.724814 
C 311.402209 67.392432 311.588966 66.94156 311.588966 66.4715 
C 311.588966 66.00144 311.402209 65.550569 311.069827 65.218186 
C 310.737444 64.885803 310.286573 64.699046 309.816512 64.699046 
C 309.346452 64.699046 308.895581 64.885803 308.563198 65.218186 
C 308.230816 65.550569 308.044059 66.00144 308.044059 66.4715 
C 308.044059 66.94156 308.230816 67.392432 308.563198 67.724814 
C 308.895581 68.057197 309.346452 68.243954 309.816512 68.243954 
z
" style="stroke:#000000;stroke-width:0.886227;"/>
    <path clip-path="url(#p866aaf9b62)" d="M 181.940011 251.746216 
C 182.410071 251.746216 182.860942 251.559459 183.193325 251.227077 
C 183.525707 250.894694 183.712464 250.443823 183.712464 249.973762 
C 183.712464 249.503702 183.525707 249.052831 183.193325 248.720448 
C 182.860942 248.388066 182.410071 248.201309 181.940011 248.201309 
C 181.46995 248.201309 181.019079 248.388066 180.686696 248.720448 
C 180.354314 249.052831 180.167557 249.503702 180.167557 249.973762 
C 180.167557 250.443823 180.354314 250.894694 180.686696 251.227077 
C 181.019079 251.559459 181.46995 251.746216 181.940011 251.746216 
z
" style="stroke:#000000;stroke-width:0.886227;"/>
    <path clip-path="url(#p866aaf9b62)" d="M 265.802142 141.286551 
C 266.272202 141.286551 266.723073 141.099794 267.055456 140.767411 
C 267.387839 140.435028 267.574595 139.984157 267.574595 139.514097 
C 267.574595 139.044037 267.387839 138.593166 267.055456 138.260783 
C 266.723073 137.9284 266.272202 137.741643 265.802142 137.741643 
C 265.332081 137.741643 264.88121 137.9284 264.548827 138.260783 
C 264.216445 138.593166 264.029688 139.044037 264.029688 139.514097 
C 264.029688 139.984157 264.216445 140.435028 264.548827 140.767411 
C 264.88121 141.099794 265.332081 141.286551 265.802142 141.286551 
z
" style="stroke:#000000;stroke-width:0.886227;"/>
    <path clip-path="url(#p866aaf9b62)" d="M 277.900784 128.586038 
C 278.370844 128.586038 278.821715 128.399281 279.154098 128.066899 
C 279.486481 127.734516 279.673238 127.283645 279.673238 126.813585 
C 279.673238 126.343524 279.486481 125.892653 279.154098 125.56027 
C 278.821715 125.227888 278.370844 125.041131 277.900784 125.041131 
C 277.430723 125.041131 276.979852 125.227888 276.64747 125.56027 
C 276.315087 125.892653 276.12833 126.343524 276.12833 126.813585 
C 276.12833 127.283645 276.315087 127.734516 276.64747 128.066899 
C 276.979852 128.399281 277.430723 128.586038 277.900784 128.586038 
z
" style="stroke:#000000;stroke-width:0.886227;"/>
    <path clip-path="url(#p866aaf9b62)" d="M 220.18567 118.364784 
C 220.65573 118.364784 221.106601 118.178027 221.438984 117.845644 
C 221.771367 117.513261 221.958124 117.06239 221.958124 116.59233 
C 221.958124 116.12227 221.771367 115.671399 221.438984 115.339016 
C 221.106601 115.006633 220.65573 114.819876 220.18567 114.819876 
C 219.71561 114.819876 219.264739 115.006633 218.932356 115.339016 
C 218.599973 115.671399 218.413216 116.12227 218.413216 116.59233 
C 218.413216 117.06239 218.599973 117.513261 218.932356 117.845644 
C 219.264739 118.178027 219.71561 118.364784 220.18567 118.364784 
z
" style="stroke:#000000;stroke-width:0.886227;"/>
    <path clip-path="url(#p866aaf9b62)" d="M 273.137043 134.385139 
C 273.607103 134.385139 274.057974 134.198382 274.390357 133.865999 
C 274.72274 133.533616 274.909497 133.082745 274.909497 132.612685 
C 274.909497 132.142625 274.72274 131.691754 274.390357 131.359371 
C 274.057974 131.026988 273.607103 130.840231 273.137043 130.840231 
C 272.666982 130.840231 272.216111 131.026988 271.883729 131.359371 
C 271.551346 131.691754 271.364589 132.142625 271.364589 132.612685 
C 271.364589 133.082745 271.551346 133.533616 271.883729 133.865999 
C 272.216111 134.198382 272.666982 134.385139 273.137043 134.385139 
z
" style="stroke:#000000;stroke-width:0.886227;"/>
    <path clip-path="url(#p866aaf9b62)" d="M 288.335932 76.730993 
C 288.805993 76.730993 289.256864 76.544236 289.589246 76.211853 
C 289.921629 75.879471 290.108386 75.428599 290.108386 74.958539 
C 290.108386 74.488479 289.921629 74.037608 289.589246 73.705225 
C 289.256864 73.372842 288.805993 73.186085 288.335932 73.186085 
C 287.865872 73.186085 287.415001 73.372842 287.082618 73.705225 
C 286.750235 74.037608 286.563478 74.488479 286.563478 74.958539 
C 286.563478 75.428599 286.750235 75.879471 287.082618 76.211853 
C 287.415001 76.544236 287.865872 76.730993 288.335932 76.730993 
z
" style="stroke:#000000;stroke-width:0.886227;"/>
    <path clip-path="url(#p866aaf9b62)" d="M 272.119733 133.411732 
C 272.589793 133.411732 273.040664 133.224975 273.373047 132.892592 
C 273.70543 132.560209 273.892187 132.109338 273.892187 131.639278 
C 273.892187 131.169218 273.70543 130.718347 273.373047 130.385964 
C 273.040664 130.053581 272.589793 129.866824 272.119733 129.866824 
C 271.649673 129.866824 271.198802 130.053581 270.866419 130.385964 
C 270.534036 130.718347 270.347279 131.169218 270.347279 131.639278 
C 270.347279 132.109338 270.534036 132.560209 270.866419 132.892592 
C 271.198802 133.224975 271.649673 133.411732 272.119733 133.411732 
z
" style="stroke:#000000;stroke-width:0.886227;"/>
    <path clip-path="url(#p866aaf9b62)" d="M 294.768809 73.554409 
C 295.238869 73.554409 295.689741 73.367652 296.022123 73.03527 
C 296.354506 72.702887 296.541263 72.252016 296.541263 71.781955 
C 296.541263 71.311895 296.354506 70.861024 296.022123 70.528641 
C 295.689741 70.196258 295.238869 70.009502 294.768809 70.009502 
C 294.298749 70.009502 293.847878 70.196258 293.515495 70.528641 
C 293.183112 70.861024 292.996355 71.311895 292.996355 71.781955 
C 292.996355 72.252016 293.183112 72.702887 293.515495 73.03527 
C 293.847878 73.367652 294.298749 73.554409 294.768809 73.554409 
z
" style="stroke:#000000;stroke-width:0.886227;"/>
    <path clip-path="url(#p866aaf9b62)" d="M 268.224621 183.108517 
C 268.694681 183.108517 269.145552 182.92176 269.477935 182.589378 
C 269.810318 182.256995 269.997074 181.806124 269.997074 181.336064 
C 269.997074 180.866003 269.810318 180.415132 269.477935 180.082749 
C 269.145552 179.750367 268.694681 179.56361 268.224621 179.56361 
C 267.75456 179.56361 267.303689 179.750367 266.971306 180.082749 
C 266.638924 180.415132 266.452167 180.866003 266.452167 181.336064 
C 266.452167 181.806124 266.638924 182.256995 266.971306 182.589378 
C 267.303689 182.92176 267.75456 183.108517 268.224621 183.108517 
z
" style="stroke:#000000;stroke-width:0.886227;"/>
    <path clip-path="url(#p866aaf9b62)" d="M 295.362695 117.947743 
C 295.832755 117.947743 296.283627 117.760986 296.616009 117.428603 
C 296.948392 117.096221 297.135149 116.64535 297.135149 116.175289 
C 297.135149 115.705229 296.948392 115.254358 296.616009 114.921975 
C 296.283627 114.589592 295.832755 114.402835 295.362695 114.402835 
C 294.892635 114.402835 294.441764 114.589592 294.109381 114.921975 
C 293.776998 115.254358 293.590241 115.705229 293.590241 116.175289 
C 293.590241 116.64535 293.776998 117.096221 294.109381 117.428603 
C 294.441764 117.760986 294.892635 117.947743 295.362695 117.947743 
z
" style="stroke:#000000;stroke-width:0.886227;"/>
    <path clip-path="url(#p866aaf9b62)" d="M 330.74083 66.141695 
C 331.21089 66.141695 331.661761 65.954938 331.994144 65.622556 
C 332.326526 65.290173 332.513283 64.839302 332.513283 64.369241 
C 332.513283 63.899181 332.326526 63.44831 331.994144 63.115927 
C 331.661761 62.783544 331.21089 62.596788 330.74083 62.596788 
C 330.270769 62.596788 329.819898 62.783544 329.487515 63.115927 
C 329.155133 63.44831 328.968376 63.899181 328.968376 64.369241 
C 328.968376 64.839302 329.155133 65.290173 329.487515 65.622556 
C 329.819898 65.954938 330.270769 66.141695 330.74083 66.141695 
z
" style="stroke:#000000;stroke-width:0.886227;"/>
    <path clip-path="url(#p866aaf9b62)" d="M 182.961762 52.214168 
C 183.431822 52.214168 183.882693 52.027411 184.215076 51.695029 
C 184.547459 51.362646 184.734216 50.911775 184.734216 50.441714 
C 184.734216 49.971654 184.547459 49.520783 184.215076 49.1884 
C 183.882693 48.856017 183.431822 48.669261 182.961762 48.669261 
C 182.491702 48.669261 182.040831 48.856017 181.708448 49.1884 
C 181.376065 49.520783 181.189308 49.971654 181.189308 50.441714 
C 181.189308 50.911775 181.376065 51.362646 181.708448 51.695029 
C 182.040831 52.027411 182.491702 52.214168 182.961762 52.214168 
z
" style="stroke:#000000;stroke-width:0.886227;"/>
    <path clip-path="url(#p866aaf9b62)" d="M 268.327387 161.614098 
C 268.797447 161.614098 269.248318 161.427341 269.580701 161.094958 
C 269.913083 160.762576 270.09984 160.311705 270.09984 159.841644 
C 270.09984 159.371584 269.913083 158.920713 269.580701 158.58833 
C 269.248318 158.255947 268.797447 158.06919 268.327387 158.06919 
C 267.857326 158.06919 267.406455 158.255947 267.074072 158.58833 
C 266.74169 158.920713 266.554933 159.371584 266.554933 159.841644 
C 266.554933 160.311705 266.74169 160.762576 267.074072 161.094958 
C 267.406455 161.427341 267.857326 161.614098 268.327387 161.614098 
z
" style="stroke:#000000;stroke-width:0.886227;"/>
    <path clip-path="url(#p866aaf9b62)" d="M 105.626649 251.598753 
C 106.096709 251.598753 106.54758 251.411997 106.879963 251.079614 
C 107.212346 250.747231 107.399103 250.29636 107.399103 249.8263 
C 107.399103 249.356239 107.212346 248.905368 106.879963 248.572985 
C 106.54758 248.240603 106.096709 248.053846 105.626649 248.053846 
C 105.156589 248.053846 104.705717 248.240603 104.373335 248.572985 
C 104.040952 248.905368 103.854195 249.356239 103.854195 249.8263 
C 103.854195 250.29636 104.040952 250.747231 104.373335 251.079614 
C 104.705717 251.411997 105.156589 251.598753 105.626649 251.598753 
z
" style="stroke:#000000;stroke-width:0.886227;"/>
    <path clip-path="url(#p866aaf9b62)" d="M 321.67533 76.879456 
C 322.14539 76.879456 322.596261 76.6927 322.928644 76.360317 
C 323.261027 76.027934 323.447784 75.577063 323.447784 75.107003 
C 323.447784 74.636942 323.261027 74.186071 322.928644 73.853688 
C 322.596261 73.521306 322.14539 73.334549 321.67533 73.334549 
C 321.20527 73.334549 320.754399 73.521306 320.422016 73.853688 
C 320.089633 74.186071 319.902876 74.636942 319.902876 75.107003 
C 319.902876 75.577063 320.089633 76.027934 320.422016 76.360317 
C 320.754399 76.6927 321.20527 76.879456 321.67533 76.879456 
z
" style="stroke:#000000;stroke-width:0.886227;"/>
    <path clip-path="url(#p866aaf9b62)" d="M 341.072793 21.068454 
C 341.542853 21.068454 341.993724 20.881697 342.326107 20.549314 
C 342.658489 20.216931 342.845246 19.76606 342.845246 19.296 
C 342.845246 18.82594 342.658489 18.375069 342.326107 18.042686 
C 341.993724 17.710303 341.542853 17.523546 341.072793 17.523546 
C 340.602732 17.523546 340.151861 17.710303 339.819478 18.042686 
C 339.487096 18.375069 339.300339 18.82594 339.300339 19.296 
C 339.300339 19.76606 339.487096 20.216931 339.819478 20.549314 
C 340.151861 20.881697 340.602732 21.068454 341.072793 21.068454 
z
" style="stroke:#000000;stroke-width:0.886227;"/>
    <path clip-path="url(#p866aaf9b62)" d="M 173.061797 200.709249 
C 173.531858 200.709249 173.982729 200.522492 174.315112 200.190109 
C 174.647494 199.857726 174.834251 199.406855 174.834251 198.936795 
C 174.834251 198.466735 174.647494 198.015864 174.315112 197.683481 
C 173.982729 197.351098 173.531858 197.164341 173.061797 197.164341 
C 172.591737 197.164341 172.140866 197.351098 171.808483 197.683481 
C 171.4761 198.015864 171.289344 198.466735 171.289344 198.936795 
C 171.289344 199.406855 171.4761 199.857726 171.808483 200.190109 
C 172.140866 200.522492 172.591737 200.709249 173.061797 200.709249 
z
" style="stroke:#000000;stroke-width:0.886227;"/>
    <path clip-path="url(#p866aaf9b62)" d="M 183.549301 86.642648 
C 184.019361 86.642648 184.470232 86.455891 184.802615 86.123508 
C 185.134998 85.791125 185.321755 85.340254 185.321755 84.870194 
C 185.321755 84.400134 185.134998 83.949263 184.802615 83.61688 
C 184.470232 83.284497 184.019361 83.09774 183.549301 83.09774 
C 183.079241 83.09774 182.62837 83.284497 182.295987 83.61688 
C 181.963604 83.949263 181.776847 84.400134 181.776847 84.870194 
C 181.776847 85.340254 181.963604 85.791125 182.295987 86.123508 
C 182.62837 86.455891 183.079241 86.642648 183.549301 86.642648 
z
" style="stroke:#000000;stroke-width:0.886227;"/>
    <path clip-path="url(#p866aaf9b62)" d="M 225.006236 75.988168 
C 225.476296 75.988168 225.927167 75.801411 226.25955 75.469028 
C 226.591933 75.136646 226.77869 74.685774 226.77869 74.215714 
C 226.77869 73.745654 226.591933 73.294783 226.25955 72.9624 
C 225.927167 72.630017 225.476296 72.44326 225.006236 72.44326 
C 224.536176 72.44326 224.085305 72.630017 223.752922 72.9624 
C 223.420539 73.294783 223.233782 73.745654 223.233782 74.215714 
C 223.233782 74.685774 223.420539 75.136646 223.752922 75.469028 
C 224.085305 75.801411 224.536176 75.988168 225.006236 75.988168 
z
" style="stroke:#000000;stroke-width:0.886227;"/>
    <path clip-path="url(#p866aaf9b62)" d="M 379.577387 60.624294 
C 380.047447 60.624294 380.498318 60.437537 380.830701 60.105154 
C 381.163084 59.772771 381.349841 59.3219 381.349841 58.85184 
C 381.349841 58.38178 381.163084 57.930909 380.830701 57.598526 
C 380.498318 57.266143 380.047447 57.079386 379.577387 57.079386 
C 379.107327 57.079386 378.656456 57.266143 378.324073 57.598526 
C 377.99169 57.930909 377.804933 58.38178 377.804933 58.85184 
C 377.804933 59.3219 377.99169 59.772771 378.324073 60.105154 
C 378.656456 60.437537 379.107327 60.624294 379.577387 60.624294 
z
" style="stroke:#000000;stroke-width:0.886227;"/>
    <path clip-path="url(#p866aaf9b62)" d="M 342.336397 68.375492 
C 342.806457 68.375492 343.257328 68.188735 343.589711 67.856352 
C 343.922094 67.52397 344.108851 67.073098 344.108851 66.603038 
C 344.108851 66.132978 343.922094 65.682107 343.589711 65.349724 
C 343.257328 65.017341 342.806457 64.830584 342.336397 64.830584 
C 341.866337 64.830584 341.415466 65.017341 341.083083 65.349724 
C 340.7507 65.682107 340.563943 66.132978 340.563943 66.603038 
C 340.563943 67.073098 340.7507 67.52397 341.083083 67.856352 
C 341.415466 68.188735 341.866337 68.375492 342.336397 68.375492 
z
" style="stroke:#000000;stroke-width:0.886227;"/>
    <path clip-path="url(#p866aaf9b62)" d="M 299.191009 79.152707 
C 299.66107 79.152707 300.111941 78.96595 300.444324 78.633567 
C 300.776706 78.301184 300.963463 77.850313 300.963463 77.380253 
C 300.963463 76.910193 300.776706 76.459322 300.444324 76.126939 
C 300.111941 75.794556 299.66107 75.607799 299.191009 75.607799 
C 298.720949 75.607799 298.270078 75.794556 297.937695 76.126939 
C 297.605313 76.459322 297.418556 76.910193 297.418556 77.380253 
C 297.418556 77.850313 297.605313 78.301184 297.937695 78.633567 
C 298.270078 78.96595 298.720949 79.152707 299.191009 79.152707 
z
" style="stroke:#000000;stroke-width:0.886227;"/>
    <path clip-path="url(#p866aaf9b62)" d="M 327.683186 96.416607 
C 328.153246 96.416607 328.604118 96.22985 328.9365 95.897468 
C 329.268883 95.565085 329.45564 95.114214 329.45564 94.644154 
C 329.45564 94.174093 329.268883 93.723222 328.9365 93.390839 
C 328.604118 93.058457 328.153246 92.8717 327.683186 92.8717 
C 327.213126 92.8717 326.762255 93.058457 326.429872 93.390839 
C 326.097489 93.723222 325.910732 94.174093 325.910732 94.644154 
C 325.910732 95.114214 326.097489 95.565085 326.429872 95.897468 
C 326.762255 96.22985 327.213126 96.416607 327.683186 96.416607 
z
" style="stroke:#000000;stroke-width:0.886227;"/>
    <path clip-path="url(#p866aaf9b62)" d="M 289.012042 138.380843 
C 289.482102 138.380843 289.932973 138.194086 290.265356 137.861703 
C 290.597739 137.52932 290.784496 137.078449 290.784496 136.608389 
C 290.784496 136.138329 290.597739 135.687458 290.265356 135.355075 
C 289.932973 135.022692 289.482102 134.835935 289.012042 134.835935 
C 288.541982 134.835935 288.091111 135.022692 287.758728 135.355075 
C 287.426345 135.687458 287.239588 136.138329 287.239588 136.608389 
C 287.239588 137.078449 287.426345 137.52932 287.758728 137.861703 
C 288.091111 138.194086 288.541982 138.380843 289.012042 138.380843 
z
" style="stroke:#000000;stroke-width:0.886227;"/>
    <path clip-path="url(#p866aaf9b62)" d="M 229.49046 142.231457 
C 229.96052 142.231457 230.411391 142.0447 230.743774 141.712317 
C 231.076157 141.379935 231.262914 140.929064 231.262914 140.459003 
C 231.262914 139.988943 231.076157 139.538072 230.743774 139.205689 
C 230.411391 138.873306 229.96052 138.686549 229.49046 138.686549 
C 229.0204 138.686549 228.569529 138.873306 228.237146 139.205689 
C 227.904763 139.538072 227.718006 139.988943 227.718006 140.459003 
C 227.718006 140.929064 227.904763 141.379935 228.237146 141.712317 
C 228.569529 142.0447 229.0204 142.231457 229.49046 142.231457 
z
" style="stroke:#000000;stroke-width:0.886227;"/>
    <path clip-path="url(#p866aaf9b62)" d="M 346.593752 69.950683 
C 347.063813 69.950683 347.514684 69.763926 347.847067 69.431543 
C 348.179449 69.09916 348.366206 68.648289 348.366206 68.178229 
C 348.366206 67.708169 348.179449 67.257298 347.847067 66.924915 
C 347.514684 66.592532 347.063813 66.405775 346.593752 66.405775 
C 346.123692 66.405775 345.672821 66.592532 345.340438 66.924915 
C 345.008056 67.257298 344.821299 67.708169 344.821299 68.178229 
C 344.821299 68.648289 345.008056 69.09916 345.340438 69.431543 
C 345.672821 69.763926 346.123692 69.950683 346.593752 69.950683 
z
" style="stroke:#000000;stroke-width:0.886227;"/>
    <path clip-path="url(#p866aaf9b62)" d="M 322.322359 258.446556 
C 322.792419 258.446556 323.24329 258.259799 323.575673 257.927416 
C 323.908056 257.595033 324.094813 257.144162 324.094813 256.674102 
C 324.094813 256.204042 323.908056 255.753171 323.575673 255.420788 
C 323.24329 255.088405 322.792419 254.901648 322.322359 254.901648 
C 321.852299 254.901648 321.401428 255.088405 321.069045 255.420788 
C 320.736662 255.753171 320.549905 256.204042 320.549905 256.674102 
C 320.549905 257.144162 320.736662 257.595033 321.069045 257.927416 
C 321.401428 258.259799 321.852299 258.446556 322.322359 258.446556 
z
" style="stroke:#000000;stroke-width:0.886227;"/>
   </g>
  </g>
 </g>
 <defs>
  <clipPath id="p866aaf9b62">
   <rect height="266.112" width="357.12" x="51.367063" y="7.2"/>
  </clipPath>
 </defs>
</svg>
